<?xml version="1.0" standalone="no"?>
<!DOCTYPE svg PUBLIC "-//W3C//DTD SVG 1.1//EN" "http://www.w3.org/Graphics/SVG/1.1/DTD/svg11.dtd" >
<svg>
<metadata>
Created by FontForge 20090914 at Thu Feb 23 18:40:13 2012
 By ffonts
&#194;&#169; Graham Meade &#38; Apostrophic Laboratories. All rights reserved. Distribute freely. apostrofe@mail.com 
</metadata>
<defs>
<font id="Duralith" horiz-adv-x="500" >
  <font-face 
    font-family="Duralith"
    font-weight="400"
    font-stretch="normal"
    units-per-em="1000"
    panose-1="0 0 0 0 0 0 0 0 0 0"
    ascent="800"
    descent="-200"
    x-height="464"
    cap-height="700"
    bbox="-149 -269 1185 990"
    underline-thickness="50"
    underline-position="-75"
    unicode-range="U+0020-U+FFE6"
  />
<missing-glyph 
 />
    <glyph glyph-name=".notdef" 
 />
    <glyph glyph-name=".null" horiz-adv-x="0" 
 />
    <glyph glyph-name="nonmarkingreturn" 
 />
    <glyph glyph-name="space" unicode=" " horiz-adv-x="300" 
 />
    <glyph glyph-name="space" unicode="&#xa0;" horiz-adv-x="300" 
 />
    <glyph glyph-name="D" unicode="D" horiz-adv-x="684" 
d="M298 87q55 0 102.5 20.5t83 56t56 83.5t20.5 103t-20.5 102.5t-56 83t-83 56t-102.5 20.5h-140q-18 0 -18 -17v-490q0 -18 18 -18h140v0zM298 700q72 0 136 -27.5t111.5 -75t75 -111.5t27.5 -136t-27.5 -136t-75 -111.5t-111.5 -75t-136 -27.5h-292q20 2 33.5 17t13.5 35
v595q0 20 -13.5 35.5t-33.5 17.5h292v0z" />
    <glyph glyph-name="d" unicode="d" horiz-adv-x="547" 
d="M235 84q31 0 58.5 12t47.5 32t32 47.5t12 59.5q0 31 -12 58.5t-32 48t-47.5 32.5t-58.5 12q-32 0 -59.5 -12t-48 -32.5t-32.5 -48t-12 -58.5q0 -32 12 -59.5t32.5 -47.5t48 -32t59.5 -12zM470 50q0 -20 13 -34t31 -16h-78q-21 0 -36 15t-15 35v5q-30 -26 -68.5 -40.5
t-81.5 -14.5q-49 0 -92 18.5t-74.5 50t-50 74.5t-18.5 92t18.5 91.5t50 74.5t74.5 50.5t92 18.5q43 0 81.5 -14.5t68.5 -40.5v233q0 19 -12.5 34t-30.5 17h77q21 0 36 -15t15 -35v-599v0z" />
    <glyph glyph-name="E" unicode="E" horiz-adv-x="580" 
d="M490 700q22 0 37 -15.5t15 -37.5v-81q-2 20 -17 33t-35 13h-333q-7 0 -12 -4.5t-5 -12.5v-175q0 -8 5 -13t12 -5h228q20 0 35 13t17 33v-180q-2 20 -17 33.5t-35 13.5h-228q-7 0 -12 -5t-5 -13v-192q0 -8 5 -13t12 -5h333q20 0 35 13t17 33v-81q0 -21 -15 -36.5
t-37 -15.5h-484q20 2 33 17t13 35v595q0 20 -13 35.5t-33 17.5h484v0z" />
    <glyph glyph-name="F" unicode="F" horiz-adv-x="568" 
d="M490 700q22 0 37.5 -15.5t15.5 -37.5v-83q-2 20 -17.5 34t-35.5 14h-332q-18 0 -18 -17v-175q0 -18 18 -18h227q22 0 37.5 -15t15.5 -37v-82q-2 20 -17.5 33.5t-35.5 13.5h-227q-18 0 -18 -18v-245q0 -21 -14.5 -36.5t-37.5 -15.5h-82q20 2 33.5 17t13.5 35v595
q0 20 -13.5 35.5t-33.5 17.5h484v0z" />
    <glyph glyph-name="f" unicode="f" horiz-adv-x="491" 
d="M460 614q0 -4 1 -5q10 -18 4 -37.5t-24 -29.5l-70 -38q17 11 22 29.5t-3 35.5q-43 48 -110 48q-34 0 -61.5 -11t-47 -31t-30 -47t-10.5 -58v-50q0 -6 5 -11t12 -5h115q20 0 35 -14.5t15 -34.5v-76q-2 18 -17 30.5t-33 12.5h-115q-7 0 -12 -4.5t-5 -11.5v-257
q0 -20 -13.5 -34.5t-34.5 -14.5h-77q18 2 31 16t13 33v601q0 18 -13 33t-31 17h77q21 0 34.5 -15t13.5 -35v-4q63 54 149 54q54 0 101 -23.5t79 -62.5z" />
    <glyph glyph-name="G" unicode="G" horiz-adv-x="702" 
d="M623 52q0 -20 13.5 -35t32.5 -17h-81q-22 0 -37.5 15.5t-15.5 36.5v1q-40 -25 -86.5 -39t-98.5 -14q-72 0 -136 27.5t-111.5 75t-75 111.5t-27.5 136t27.5 136t75 111.5t111.5 75t136 27.5q78 0 143.5 -29.5t114.5 -83.5h1q15 -16 14 -38t-17 -37l-63 -60q16 15 17 36
t-14 37q-37 40 -86.5 63.5t-109.5 23.5q-54 0 -101.5 -20.5t-83.5 -56t-56.5 -83t-20.5 -102.5t20.5 -103t56.5 -83.5t83.5 -56t101.5 -20.5q55 0 102.5 21.5t82.5 56.5v115q0 17 -17 17h-193q-20 0 -35 -13t-17 -33v81q0 22 15.5 37.5t36.5 15.5h193q21 0 40.5 -8.5
t33.5 -22.5t22.5 -33.5t8.5 -40.5v-228v0z" />
    <glyph glyph-name="g" unicode="g" horiz-adv-x="498" 
d="M234 85q31 0 58 11.5t47.5 31.5t32 47t11.5 58t-11.5 58t-32 47t-47.5 32t-58 12t-58 -12t-47 -32t-31.5 -47t-11.5 -58t11.5 -58t31.5 -47t47 -31.5t58 -11.5zM416 465q22 0 35.5 -14.5t13.5 -35.5v-380q0 -48 -18 -90.5t-49.5 -73.5t-73.5 -49t-90 -18h-100
q-20 0 -34 14.5t-14 34.5v77q2 -19 15.5 -31.5t32.5 -12.5v-1h100v1q31 0 58 11.5t47.5 32t32 47.5t11.5 58v20q-30 -26 -68.5 -39.5t-80.5 -13.5q-48 0 -90 18t-73.5 49.5t-50 73.5t-18.5 90t18.5 90.5t50 74t73.5 49.5t90 18q42 0 80.5 -14t68.5 -40v4q0 19 -13 33.5
t-31 16.5h77v0z" />
    <glyph glyph-name="H" unicode="H" horiz-adv-x="650" 
d="M472 647q0 22 15.5 37.5t37.5 15.5h81q-19 -2 -32.5 -17.5t-13.5 -35.5v-595q0 -20 13.5 -35t32.5 -17h-81q-22 0 -37.5 15.5t-15.5 36.5v245h-332v-245q0 -21 -15.5 -36.5t-37.5 -15.5h-81q20 2 33 17t13 35h1l-1 1v594q0 20 -13 35.5t-33 17.5h81q22 0 37.5 -15.5
t15.5 -37.5v-262h332v262v0z" />
    <glyph glyph-name="h" unicode="h" horiz-adv-x="590" 
d="M513 50q0 -20 13 -34t31 -16h-77q-20 0 -34.5 15t-14.5 35v182q0 31 -11.5 58t-32 47.5t-48 32.5t-58.5 12t-58 -12t-47 -32.5t-31.5 -47.5t-11.5 -58v-183q0 -19 12.5 -33t30.5 -16h-77q-20 0 -35 14.5t-15 34.5v602q0 17 -12.5 32t-30.5 17h76q21 0 36 -14.5t15 -34.5
v-241q29 26 67.5 40t80.5 14q48 0 90.5 -18t74 -49.5t49.5 -74t18 -90.5v-182v0z" />
    <glyph glyph-name="I" unicode="I" horiz-adv-x="302" 
d="M210 700q22 0 37.5 -15.5t15.5 -37.5v-81q-2 20 -17.5 33t-35.5 13h-35v-525h35q20 0 35.5 13t17.5 33v-81q0 -19 -12.5 -33t-30.5 -18v-1h-167q-22 0 -37.5 15.5t-15.5 36.5v81q2 -20 17 -33t36 -13h35v525h-35q-21 0 -36 -13t-17 -33v81q0 20 13 34t32 18q-2 0 -3 1
h168v0z" />
    <glyph glyph-name="i" unicode="i" horiz-adv-x="223" 
d="M136 567q0 -20 11.5 -34.5t31.5 -16.5h-76q-23 0 -37.5 15.5t-14.5 35.5t-12 34t-32 16h78q21 0 36 -14t15 -36zM136 49q0 -18 11.5 -32.5t31.5 -16.5h-76q-23 0 -37.5 15t-14.5 34v367q0 20 -12 34.5t-32 16.5h78q21 0 36 -14.5t15 -36.5v-367v0z" />
    <glyph glyph-name="J" unicode="J" horiz-adv-x="524" 
d="M437 700q22 0 37.5 -15.5t15.5 -36.5v-403q0 -51 -19 -95.5t-52.5 -78t-78 -52.5t-95.5 -19t-95.5 19t-78 52.5t-52.5 78t-19 95.5q0 22 15.5 37t36.5 15h81q-20 -2 -33 -17t-13 -35q0 -33 12.5 -61.5t34 -50t50 -34t61.5 -12.5t61.5 12.5t49.5 34t33.5 50t12.5 61.5v403
q0 19 -13 34.5t-33 17.5h81v0z" />
    <glyph glyph-name="j" unicode="j" horiz-adv-x="191" 
d="M48 564q0 19 -13.5 32.5t-30.5 15.5h76q20 0 34 -13.5t14 -34.5q0 -19 13 -33.5t31 -16.5h-76q-20 0 -34 15t-14 35zM80 466q20 0 34 -14.5t14 -33.5v-406q0 -48 -18 -89.5t-49 -72.5t-72.5 -49t-89.5 -18q-20 0 -34 14t-14 34v77q2 -19 16 -31.5t32 -12.5q31 0 58 11.5
t47.5 32t32 47.5t11.5 57v406q0 17 -13.5 31.5t-30.5 16.5h76v0z" />
    <glyph glyph-name="K" unicode="K" horiz-adv-x="603" 
d="M398 647q8 11 22 20.5t30 17t31 11.5t26 4h81q-21 -2 -45.5 -17.5t-39.5 -35.5l-216 -284l204 -310v-1q13 -20 36 -35t43 -17h-80q-11 0 -26 4t-30 11.5t-28 16.5t-20 20v1l-155 237l-91 -122v-116q0 -20 13.5 -35t32.5 -17h-81q-22 0 -37.5 15.5t-15.5 36.5v595
q0 20 -13 35.5t-33 17.5h81q22 0 37.5 -15.5t15.5 -37.5v-343l258 343v0z" />
    <glyph glyph-name="k" unicode="k" horiz-adv-x="563" 
d="M455 55q14 -23 37.5 -38t43.5 -17h-78q-21 0 -46.5 15.5t-41.5 37.5v2l-122 175l-108 -115v-63q0 -20 13 -35t33 -17h-81q-21 0 -36.5 15.5t-15.5 36.5v595q0 20 -13.5 35.5t-33.5 17.5h82q23 0 37.5 -15.5t14.5 -37.5v-420l197 210q10 11 26 20.5t33 17t33 11.5t26 4h81
q-22 -2 -49 -17.5t-45 -35.5l-145 -156l158 -226v0z" />
    <glyph glyph-name="L" unicode="L" 
d="M421 87q19 0 34.5 13t17.5 33v-81q0 -21 -15.5 -36.5t-36.5 -15.5h-263q-21 0 -40.5 8.5t-33.5 22.5t-22.5 33.5t-8.5 40.5v542q0 20 -13.5 35.5t-33.5 17.5h82q23 0 37.5 -15.5t14.5 -37.5v-542q0 -18 18 -18h263v0z" />
    <glyph glyph-name="l" unicode="l" horiz-adv-x="219" 
d="M140 52q0 -20 13 -35t33 -17h-81q-21 0 -36.5 15.5t-15.5 36.5v595q0 20 -13.5 35.5t-33.5 17.5h82q23 0 37.5 -15.5t14.5 -37.5v-595v0z" />
    <glyph glyph-name="M" unicode="M" horiz-adv-x="851" 
d="M757 52q0 -20 13.5 -35t32.5 -17h-81q-22 0 -37.5 15.5t-15.5 36.5v457l-250 -509h-31l-248 509v-457q0 -21 -15.5 -36.5t-37.5 -15.5h-81q20 2 33 17t13 35h1l-1 1v593q0 20 -13 35.5t-33 17.5h99q16 1 30.5 -6.5t22.5 -23.5v-1l247 -499l246 499l1 1q17 32 54 30h97
q-19 -2 -32.5 -17.5t-13.5 -35.5v-594v0z" />
    <glyph glyph-name="m" unicode="m" horiz-adv-x="851" 
d="M774 52q0 -20 13 -34t32 -16h-79q-20 0 -34.5 15t-14.5 35v184q0 31 -6.5 58.5t-20.5 48t-36.5 32.5t-54.5 12q-31 0 -53 -12t-36 -32.5t-20.5 -48t-6.5 -58.5v-184q0 -20 12.5 -34t30.5 -16h-77q-20 0 -35 15t-15 35v184q0 31 -6.5 58.5t-21 48t-36.5 32.5t-53 12
t-53.5 -12t-36.5 -32.5t-21 -48t-7 -58.5v-184q0 -20 13 -34t32 -16h-78q-20 0 -35 15t-15 35v368q0 18 -12.5 33t-32.5 17h79q18 0 31 -11t16 -28q25 18 54.5 28.5t65.5 10.5q54 0 93.5 -22t65.5 -60q25 38 64.5 60t93.5 22q49 0 86.5 -18.5t63 -50t38.5 -74t13 -91.5v-184
v0z" />
    <glyph glyph-name="N" unicode="N" horiz-adv-x="680" 
d="M508 647q0 22 15.5 37.5t36.5 15.5h81q-20 -2 -33 -17.5t-13 -35.5v-595q0 -20 13 -35t33 -17h-81q-15 0 -26.5 7.5t-18.5 20.5l-375 490v-466q0 -21 -14.5 -36.5t-37.5 -15.5h-82q20 2 33.5 17t13.5 35v595q0 20 -13.5 35.5t-33.5 17.5h82q17 0 30 -9t19 -23l371 -487
v466v0z" />
    <glyph glyph-name="n" unicode="n" horiz-adv-x="604" 
d="M522 51q0 -20 12.5 -34.5t30.5 -16.5h-77q-21 0 -35.5 15t-14.5 36v183q0 31 -12 58t-32 47.5t-47.5 32.5t-58.5 12t-58.5 -12t-48 -32.5t-32.5 -47.5t-12 -58v-185q0 -19 13 -33t32 -16h-78q-20 0 -35 14.5t-15 34.5v369q0 18 -12.5 32.5t-31.5 16.5h78q21 0 35 -14.5
t14 -34.5v-6q32 26 70 40.5t81 14.5q48 0 91 -18.5t74.5 -50t50 -74t18.5 -90.5v-183v0z" />
    <glyph glyph-name="O" unicode="O" horiz-adv-x="661" 
d="M279 319q-14 17 -14 37t14 37l58 57q-12 -15 -11 -35t16 -34q15 -15 15 -37q0 -21 -15 -37l-59 -58q13 16 11.5 35.5t-15.5 34.5zM317 87q55 0 97 20.5t71 56t44 83.5t15 103t-15 102.5t-44 83t-71 56t-97 20.5t-97.5 -20.5t-71.5 -56t-44 -83t-15 -102.5t15 -103
t44 -83.5t71.5 -56t97.5 -20.5zM317 700q72 0 130.5 -27.5t99.5 -75t63 -111.5t22 -136t-22 -136t-63 -111.5t-99.5 -75t-130.5 -27.5t-130.5 27.5t-99.5 75t-63 111.5t-22 136t22 136t63 111.5t99.5 75t130.5 27.5z" />
    <glyph glyph-name="o" unicode="o" 
d="M256 331q-15 -14 -15 -35q0 -20 15 -35q14 -14 14 -35q0 -19 -14 -35l-60 -58q15 13 15 34t-15 36q-14 16 -14 35t14 35l60 58v0zM232 84q31 0 58 11.5t47 31.5t32 47t12 58t-12 58t-32 47.5t-47 32.5t-58 12t-58 -12t-47.5 -32.5t-32.5 -47.5t-12 -58t12 -58t32.5 -47
t47.5 -31.5t58 -11.5zM232 464q48 0 90.5 -18t74 -49.5t49.5 -74t18 -90.5t-18 -90.5t-49.5 -74t-74 -49.5t-90.5 -18t-90.5 18t-74 49.5t-49.5 74t-18 90.5t18 90.5t49.5 74t74 49.5t90.5 18z" />
    <glyph glyph-name="P" unicode="P" horiz-adv-x="551" 
d="M333 402q22 0 41 8t33 22.5t22.5 33.5t8.5 41t-8.5 41t-22.5 33.5t-33 22.5t-41 8h-175q-18 0 -18 -17v-175q0 -18 18 -18h175v0zM333 700q40 0 75 -15.5t61 -41.5t41 -61t15 -75q0 -39 -15 -74t-41 -61.5t-61 -41.5t-75 -15h-175q-18 0 -18 -18v-245q0 -21 -14.5 -36.5
t-37.5 -15.5h-82q20 2 33.5 17t13.5 35v595q0 20 -13.5 35.5t-33.5 17.5h327v0z" />
    <glyph glyph-name="p" unicode="p" horiz-adv-x="551" 
d="M285 83q31 0 59 12t48.5 32.5t32.5 48t12 59.5q0 31 -12 58.5t-32.5 47.5t-48.5 32t-59 12t-58.5 -12t-48 -32t-32.5 -47.5t-12 -58.5q0 -32 12 -59.5t32.5 -48t48 -32.5t58.5 -12zM285 469q49 0 91.5 -18.5t74.5 -50t50.5 -74t18.5 -91.5t-18.5 -92t-50.5 -74.5
t-74.5 -50t-91.5 -18.5q-88 0 -151 54v-206q0 -18 13 -33t32 -17h-79q-21 0 -35 15t-15 35v570q0 19 -12.5 34t-31.5 17h77q21 0 36 -15t15 -36v-4q31 26 69.5 40.5t81.5 14.5z" />
    <glyph glyph-name="q" unicode="q" horiz-adv-x="519" 
d="M234 83q31 0 59 12t48.5 32.5t32.5 48t12 58.5t-12 58.5t-32.5 47.5t-48.5 32t-59 12t-58.5 -12t-48 -32t-32.5 -47.5t-12 -58.5t12 -58.5t32.5 -48t48 -32.5t58.5 -12zM470 -153q0 -17 12.5 -32t30.5 -17h-77q-21 0 -35.5 14.5t-14.5 34.5v207q-63 -54 -152 -54
q-48 0 -91 18t-74.5 49.5t-50 74t-18.5 92.5q0 49 18.5 91.5t50 74.5t74.5 50.5t91 18.5q45 0 83 -14.5t69 -40.5v4h1l-1 1q0 17 -13 32.5t-32 17.5h78q21 0 36 -15t15 -35v-572v0z" />
    <glyph glyph-name="R" unicode="R" horiz-adv-x="580" 
d="M333 402q22 0 41 8t33 22.5t22.5 33.5t8.5 41t-8.5 41t-22.5 33.5t-33 22.5t-41 8h-175q-18 0 -18 -17v-175q0 -18 18 -18h175v0zM483 52q9 -20 30 -35t41 -17h-81q-11 0 -25 4t-28 11.5t-25.5 16.5t-16.5 20v1l-49 100l-42 86l-36 76h-93q-18 0 -18 -18v-245
q0 -21 -14.5 -36.5t-37.5 -15.5h-82q20 2 33.5 17t13.5 35v595q0 20 -13.5 35.5t-33.5 17.5h327q40 0 75 -15.5t61 -41.5t41 -61t15 -75q0 -36 -13 -69t-36 -58.5t-54.5 -42.5t-67.5 -21l38 -77l91 -186v-1v0z" />
    <glyph glyph-name="r" unicode="r" 
d="M464 378q0 -1 1 -2t1 -2q10 -18 4.5 -38t-23.5 -30l-73 -40q17 10 23 29.5t-3 37.5q-20 23 -49 36t-63 13q-31 0 -58 -12t-47.5 -32t-32 -47t-11.5 -58v-184q0 -20 -15 -34.5t-36 -14.5h-76q19 2 31 16t12 33v366q0 19 -12 34t-31 17h76q21 0 36 -15t15 -36v-4
q30 26 68.5 40.5t80.5 14.5q57 0 103.5 -24t78.5 -64z" />
    <glyph glyph-name="S" unicode="S" horiz-adv-x="561" 
d="M322 402q43 0 81.5 -16t67 -43t45 -63.5t16.5 -77.5q0 -42 -16.5 -79t-45 -64t-67 -43t-81.5 -16h-143q-48 0 -86.5 15.5t-59.5 38.5t-21.5 50t26.5 51l80 37q-20 -10 -27.5 -30t0.5 -40q17 -16 39.5 -25.5t48.5 -9.5h142v1q25 0 47.5 9t39.5 24.5t26.5 36t9.5 44.5
t-9.5 44.5t-26.5 35.5t-39.5 24t-47.5 9h-122q-40 0 -75 15t-61.5 41.5t-41.5 61.5t-15 74q0 40 15 75t41.5 61t61.5 41.5t75 15.5h159q18 2 43 -3t50 -15.5t45.5 -25.5t30.5 -32.5t5 -37.5t-32 -40l-79 -36q20 8 27 28t-1 40v-1q-36 36 -89 36v-1h-159q-45 0 -75 -30
t-30 -75t30 -75t75 -30h123v0z" />
    <glyph glyph-name="s" unicode="s" horiz-adv-x="425" 
d="M324 282q0 -1 -0.5 -1.5l-0.5 -0.5l1 2v0zM324 282q13 15 12.5 34.5t-13.5 34.5l-2 -2q-8 10 -19 17.5t-31 12t-52 6t-82 -1.5q-20 -2 -34.5 -15.5t-14.5 -34.5t14.5 -35.5t34.5 -14.5h118q27 0 51.5 -11t42.5 -30.5t28.5 -45t10.5 -55.5q0 -29 -10.5 -54.5t-28.5 -45
t-42.5 -30.5t-51.5 -11h-102q-36 2 -69 16t-57 35q-4 2 -7 5q-15 13 -15 35q0 20 14 36l55 58q-13 -15 -12.5 -35t15.5 -34v1q17 -15 38 -24t46 -10h94q21 0 35 18t14 40q0 23 -14 41t-35 18h-118q-27 0 -51.5 10.5t-42.5 28.5t-28.5 42.5t-10.5 51.5q0 28 10.5 52t28.5 42
t42 28.5t51 11.5h103q37 0 72.5 -14t61.5 -37q1 -1 2.5 -2t3.5 -3q15 -14 15.5 -35t-14.5 -36l-56 -58v0z" />
    <glyph glyph-name="T" unicode="T" horiz-adv-x="644" 
d="M567 700q19 -2 32.5 -17t13.5 -36v-83q-2 20 -17.5 34t-35.5 14h-207v-560q0 -21 -15.5 -36.5t-36.5 -15.5h-82q20 2 33.5 17t13.5 35v560h-213q-21 0 -36 -13t-17 -33v81q0 22 15.5 37.5t37.5 15.5h514v0z" />
    <glyph glyph-name="t" unicode="t" horiz-adv-x="331" 
d="M249 467q21 0 36.5 14t17.5 34v-83q0 -22 -15.5 -37.5t-38.5 -15.5h-71v-325q0 -22 13.5 -37t32.5 -17h-81q-23 0 -39 15.5t-16 38.5v325h-34q-22 0 -37 -13.5t-17 -33.5v84q0 21 15.5 36t38.5 15h34v178q0 21 -13.5 36.5t-35.5 17.5h85q23 0 38.5 -15.5t15.5 -38.5v-178
h71v0z" />
    <glyph glyph-name="U" unicode="U" horiz-adv-x="649" 
d="M490 647q0 22 15.5 37.5t36.5 15.5h81q-20 -2 -33 -17.5t-13 -35.5v-385q0 -54 -20.5 -101.5t-56 -83.5t-83 -56.5t-102.5 -20.5t-103 20.5t-83.5 56.5t-56 83.5t-20.5 101.5v385q0 20 -13 35.5t-33 17.5h81q22 0 37.5 -15.5t15.5 -37.5v-385q0 -36 13.5 -68t37.5 -56
t56 -37.5t68 -13.5t68 13.5t56 37.5t37.5 56t13.5 68v385v0z" />
    <glyph glyph-name="u" unicode="u" horiz-adv-x="570" 
d="M403 419q0 21 15 36t36 15h77q-18 -2 -30.5 -17t-12.5 -34v-184q0 -49 -16 -91.5t-45 -74.5t-69 -50.5t-89 -18.5q-48 0 -88.5 18.5t-69 50.5t-44.5 74.5t-16 91.5v184q0 19 -13 34t-32 17h79q21 0 35 -15t14 -36v-184q0 -31 9.5 -58.5t26.5 -47.5t42 -32t57 -12
q31 0 56 12t42.5 32t26.5 47.5t9 58.5v184v0z" />
    <glyph glyph-name="V" unicode="V" horiz-adv-x="706" 
d="M555 672q8 15 21.5 22.5t27.5 5.5h99q-19 -2 -36 -20t-30 -47l-142 -333l-129 -300h-26l-129 302l-141 326q-12 32 -30 51t-36 21h95q14 1 27.5 -6.5t19.5 -23.5v-1l205 -489l204 488v4v0z" />
    <glyph glyph-name="v" unicode="v" horiz-adv-x="576" 
d="M569 466q-20 -2 -38.5 -19.5t-32.5 -46.5l-56 -112l-142 -288h-29l-140 288l-54 108q-13 30 -33 48.5t-40 20.5h97q15 1 28.5 -6t21.5 -22l1 -2l83 -169l51 -104l52 102l82 171q2 0 2 3q8 15 22 22t29 6h96v0z" />
    <glyph glyph-name="W" unicode="W" horiz-adv-x="1061" 
d="M1054 697q-18 -2 -35.5 -20t-29.5 -47l-142 -330l-129 -300h-26l-129 300l-35 81l-33 -79l-129 -302h-28l-127 300l-141 327q-12 32 -30 51t-36 21h87q14 1 27 -6.5t19 -23.5v-1l142 -328l73 -171l48 110l86 200l-64 148q-12 32 -30 51t-36 21h87q14 1 27 -6.5t19 -23.5
l1 -1l142 -328l74 -171l72 171l141 325q0 2 2 4q6 15 18 22.5t26 5.5h89v0z" />
    <glyph glyph-name="w" unicode="w" horiz-adv-x="823" 
d="M686 415q0 21 14.5 36t34.5 15h78q-19 -2 -32 -17t-13 -34v-182q0 -48 -13 -90.5t-38 -74t-62.5 -50t-85.5 -18.5q-54 0 -93 22.5t-64 60.5q-26 -38 -65.5 -60.5t-93.5 -22.5q-48 0 -85.5 18.5t-62.5 50t-38 74t-13 90.5v182q0 19 -13 34t-32 17h78q21 0 35 -15t14 -36
v-182q0 -31 6.5 -58.5t21 -47.5t36.5 -32t53 -12t53 12t36 32t20.5 47.5t6.5 58.5v182q0 19 -12 34t-31 17h76q21 0 36 -15t15 -36v-182q0 -31 6.5 -58.5t20.5 -47.5t36 -32t53 -12t53.5 12t36.5 32t20.5 47.5t6.5 58.5v182v0z" />
    <glyph glyph-name="X" unicode="X" horiz-adv-x="750" 
d="M567 675q17 24 44 25h129q-19 -3 -42 -18t-55 -53h1l-214 -278l214 -280h-1q32 -39 55 -54t42 -17h-129q-27 1 -44 27l-191 251l-193 -251q-14 -26 -42 -27h-131q20 2 43 17t55 54l212 280l-212 278q-32 38 -55 53t-43 18h131q28 -1 42 -25l193 -253l191 253v0z" />
    <glyph glyph-name="x" unicode="x" horiz-adv-x="566" 
d="M463 68q29 -38 50.5 -52.5t40.5 -15.5h-121q-14 1 -25 7.5t-17 16.5l-112 144l-104 -143q-14 -24 -41 -25h-125q17 1 40.5 15.5t53.5 52.5l123 168l-126 163q-31 37 -54.5 51t-40.5 17h126q28 -2 41 -24l106 -136l97 135q16 23 42 25h123q-18 -3 -40 -17t-51 -51
l-118 -160l132 -171v0z" />
    <glyph glyph-name="Y" unicode="Y" horiz-adv-x="748" 
d="M560 671q6 12 18 20.5t27 8.5h131q-20 -2 -45 -18.5t-60 -61.5l-215 -283v-284q0 -22 -15.5 -37.5t-36.5 -15.5h-82q20 2 33.5 17t13.5 36v286l-214 281q-35 45 -61 61.5t-46 18.5h132q15 0 27.5 -8.5t18.5 -20.5l186 -245l188 245v0z" />
    <glyph glyph-name="y" unicode="y" horiz-adv-x="549" 
d="M400 414q0 21 15 36t36 15h76q-18 -2 -30.5 -17t-12.5 -34v-416q0 -48 -18.5 -90.5t-50 -74t-74 -50t-90.5 -18.5h-100q-21 0 -36 14.5t-15 34.5v78q2 -19 16.5 -31.5t34.5 -12.5h100q31 0 58 12t47 32.5t32 47.5t12 58v47q-26 -22 -59.5 -34.5t-73.5 -12.5
q-48 0 -88 18.5t-68.5 50t-44 74t-15.5 91.5v182q0 19 -13 34t-32 17h78q21 0 35 -15t14 -36v-182q0 -31 9.5 -58.5t26.5 -47.5t42 -32t56 -12t56 12t42 32t26 47.5t9 58.5v182v0z" />
    <glyph glyph-name="Z" unicode="Z" horiz-adv-x="752" 
d="M230 87h417q20 0 35.5 13t17.5 33v-81q0 -21 -15.5 -36.5t-37.5 -15.5h-635q17 1 40.5 15.5t55.5 55.5l411 541h-379q-21 0 -36 -13t-17 -33v81q0 22 15.5 37.5t37.5 15.5h605q-21 -2 -50 -21t-65 -67v1z" />
    <glyph glyph-name="z" unicode="z" horiz-adv-x="634" 
d="M630 467q-40 -4 -108 -74h1l-292 -311h284q20 0 35.5 12.5t17.5 32.5v-78q0 -20 -15.5 -34.5t-37.5 -14.5h-509q9 1 21 7.5t25 16t26 21t24 22.5l298 316h-301q-20 0 -34 -12t-16 -31v76q0 21 14.5 36t35.5 15h531v0z" />
    <glyph glyph-name="period" unicode="." horiz-adv-x="232" 
d="M93 0q2 0 3 1zM93 0q-1 -1 -3 -1l3 1v0zM155 173q-1 -1 -3 -1zM90 -1q-1 -1 -3 -1zM159 174q-1 -1 -4 -1l4 1v0zM178 111q35 -17 41 -36t-20 -30l-103 -44q21 12 12.5 30t-40.5 32q-34 15 -40.5 34.5t20.5 31.5l104 43q-23 -12 -16 -29.5t42 -31.5z" />
    <glyph glyph-name="comma" unicode="," horiz-adv-x="204" 
d="M143 89q15 -9 24.5 -25t11 -35t-7 -38.5t-30.5 -36.5l-110 -79q10 10 26 30.5t25 43.5t6 45.5t-30 37.5q-31 16 -34.5 40t19.5 38l85 57q-21 -14 -17.5 -37.5t32.5 -40.5z" />
    <glyph glyph-name="b" unicode="b" horiz-adv-x="547" 
d="M282 82q31 0 58 12t47.5 32.5t32 47.5t11.5 58t-11.5 58t-32 47.5t-47.5 32t-58 11.5t-58 -11.5t-47.5 -32t-32 -47.5t-11.5 -58t11.5 -58t32 -47.5t47.5 -32.5t58 -12zM282 464q48 0 90.5 -18t74 -49.5t50 -74t18.5 -90.5t-18.5 -90.5t-50 -74t-74 -49.5t-90.5 -18
q-42 0 -80.5 14t-68.5 40v-5q0 -19 12.5 -33t31.5 -16h-77q-20 0 -35 14.5t-15 34.5v600q0 19 -13 34t-31 17h77q22 0 36 -15t14 -36v-239q30 26 68.5 40t80.5 14z" />
    <glyph glyph-name="asterisk" unicode="*" horiz-adv-x="450" 
d="M40 623q-1 1 -1 3l1 -3v0zM41 620q-1 1 -1 3l1 -3v0zM314 474q3 -3 6 -11l71 -144q-15 31 -47 52t-67 27q-2 -6 -4.5 -10.5l-5.5 -9.5l-89 -134q17 27 20.5 64.5t-9.5 69.5q-6 -2 -13 -2h-165q17 1 34.5 8t33 17.5t29 23.5t22.5 26q-5 8 -10 14.5t-8 14.5l-71 140
q9 -15 23 -28.5t30.5 -23.5t34.5 -16t36 -7q3 6 6.5 11t6.5 10l83 125q-17 -31 -16.5 -71.5t18.5 -71.5q9 1 18 0h147q-32 -3 -63.5 -25.5t-50.5 -48.5z" />
    <glyph glyph-name="ampersand" unicode="&#x26;" horiz-adv-x="549" 
d="M459 280q20 1 35.5 13.5t17.5 32.5v-80q0 -22 -15 -37.5t-38 -15.5q-2 -41 -19 -76t-45 -61t-65.5 -41t-80.5 -15h-39q-45 0 -84 17h-1v1q-55 23 -90 72.5t-35 111.5q0 49 23.5 90.5t61.5 70.5q-32 26 -49.5 62.5t-17.5 81.5q0 40 15 75t41.5 61t61.5 41.5t74 15.5
q52 0 95 -20t69 -58q1 -3 5 -7v-3q9 -19 1 -39t-27 -28l-80 -37q20 10 27.5 30t-0.5 40v-1q-36 36 -90 36v-1q-21 0 -40.5 -8t-33.5 -22.5t-22.5 -33.5t-8.5 -41t8.5 -41t22.5 -33.5t33.5 -22.5t40.5 -8h35v-2q4 2 11 2q18 0 31 -12t13 -32q0 -17 -13 -30t-31 -13
q-3 0 -6 0.5t-5 0.5v-1h-35q-26 0 -48 -9t-38.5 -24.5t-26 -36t-9.5 -43.5q0 -24 9.5 -44.5t26 -36.5t38.5 -25t48 -9h39q24 0 45.5 8.5t38 22.5t26.5 33.5t12 41.5h-87q-20 0 -35 -13.5t-17 -33.5v82q0 21 15 36.5t37 15.5h175v0z" />
    <glyph glyph-name="exclam" unicode="!" horiz-adv-x="204" 
d="M130 146l-4 -2l4 2v0zM147 93q29 -13 34 -28.5t-18 -25.5l-88 -38q20 11 14.5 26t-33.5 27q-29 13 -34 28.5t18 24.5l86 37q-20 -9 -14 -24t35 -27zM139 231q0 -21 13 -35t32 -16h-78q-20 0 -35 14.5t-15 36.5v418q0 19 -13 34t-32 17h78q20 0 35 -15t15 -36v-418v0z" />
    <glyph glyph-name="question" unicode="?" horiz-adv-x="539" 
d="M112 519l-6 2l6 -2v0zM231 92q29 -12 33.5 -27.5t-17.5 -25.5l-88 -38q20 11 14.5 25.5t-33.5 26.5q-29 14 -33.5 29.5t17.5 24.5l89 38q-22 -9 -16.5 -24.5t34.5 -28.5zM323 700q38 0 71.5 -14.5t58.5 -39.5t39.5 -58.5t14.5 -70.5q0 -38 -14.5 -71.5t-39.5 -58.5
t-58.5 -39.5t-71.5 -14.5q-24 0 -44.5 -8t-36 -21.5t-25 -32.5t-10.5 -40q1 -20 13 -33t30 -15h-77q-19 0 -32.5 12t-16.5 30h-1v8q0 6 1 7q3 37 19.5 69.5t43 56.5t61.5 37.5t75 13.5q21 0 39 7.5t31.5 21t21.5 32t8 39.5q0 42 -29 71t-71 29h-152q-24 0 -46 -9t-38 -25v1
q-8 -17 -2.5 -35.5t21.5 -27.5l-70 32q-19 8 -26 26.5t1 37.5h-2l2 2q0 1 1 2q1 2 2 3t2 3q25 37 66 55t89 18h152v0z" />
    <glyph glyph-name="nine" unicode="9" horiz-adv-x="547" 
d="M420 507q0 22 -8.5 41t-22.5 33.5t-33.5 22.5t-40.5 8h-105q-25 0 -47.5 -9t-39 -24.5t-26.5 -36t-10 -44.5t10 -44.5t26.5 -35.5t39 -24t47.5 -9h105q58 0 105 -31v153v0zM507 192q0 -39 -15 -74t-41 -61.5t-61 -41.5t-75 -15h-123q-39 0 -74 15t-61.5 41.5t-41.5 61.5
t-15 74q0 22 15.5 37.5t36.5 15.5h81q-20 -2 -33 -17.5t-13 -35.5q0 -45 30 -75t75 -30h123q21 0 40.5 8t33.5 22.5t22.5 33.5t8.5 41t-8.5 41t-22.5 33.5t-33.5 22.5t-40.5 8h-105q-44 0 -82 16t-66.5 43.5t-45 64t-16.5 77.5q0 42 16.5 79t45 64t66.5 43t82 16h106
q40 0 75 -15.5t60.5 -41.5t40.5 -61t15 -75v-315v0z" />
    <glyph glyph-name="eight" unicode="8" horiz-adv-x="549" 
d="M309 87q26 0 48.5 9t39.5 25t26.5 36.5t9.5 44.5q0 23 -9.5 43.5t-26 36t-39 24.5t-47.5 9h-102q-25 0 -47 -9t-38.5 -24.5t-26 -36t-9.5 -43.5q0 -24 9.5 -44.5t26 -36.5t38.5 -25t48 -9h99v0zM430 367q42 -28 65.5 -71t23.5 -94q0 -41 -16 -77.5t-43.5 -63.5t-65 -43.5
t-79.5 -17.5h-105q-44 0 -82 16t-66.5 43t-45 64t-16.5 79q0 49 23.5 90.5t61.5 70.5q-32 26 -49.5 62.5t-17.5 81.5q0 40 15 75t41 61t61 41.5t75 15.5q52 0 95 -20t69 -58q1 -3 5 -7v-3q9 -19 1 -39t-27 -28l-80 -37q20 10 27.5 30t-0.5 40v-1q-36 36 -90 36v-1
q-21 0 -40.5 -8t-33.5 -22.5t-22.5 -33.5t-8.5 -41t8.5 -41t22.5 -33.5t33.5 -22.5t40.5 -8h88q22 0 41 8t33 22.5t22.5 33.5t8.5 41q0 30 -14 53q15 30 3 55.5t-33 44.5t-41 29.5l-20 10.5q40 0 75 -15.5t61 -41.5t41 -61t15 -75q0 -42 -16.5 -78t-43.5 -62z" />
    <glyph glyph-name="seven" unicode="7" horiz-adv-x="623" 
d="M618 700q-11 -1 -26.5 -7t-31.5 -16t-30 -24t-23 -31l-223 -593q-5 -12 -17.5 -20t-27.5 -9h-134q11 1 24.5 5t27.5 12.5t27 21.5t23 32l209 541h-364q-20 0 -35 -13t-17 -33v81q0 22 15.5 37.5t36.5 15.5h566v0z" />
    <glyph glyph-name="six" unicode="6" horiz-adv-x="537" 
d="M193 315q-58 0 -105 31v-154q0 -22 8.5 -41t22.5 -33.5t33.5 -22.5t40.5 -8h105v1q25 0 47.5 9t39 24.5t26.5 36t10 44.5t-10 44.5t-26.5 35.5t-39 24t-47.5 9h-105v0zM374 455q20 2 33 17t13 35h1q0 22 -8.5 41t-22.5 33.5t-33 22.5t-41 8h-123q-21 0 -40.5 -8
t-33.5 -22.5t-22.5 -33.5t-8.5 -41t8.5 -41t22.5 -33.5t33.5 -22.5t40.5 -8h105q43 0 81.5 -16t67 -43t45 -63.5t16.5 -77.5q0 -42 -16.5 -79t-45 -64t-67 -43t-81.5 -16h-106q-40 0 -75 15.5t-61 41.5t-41 61t-15 74h1v315q0 40 15 75t41 61t61 41.5t75 15.5h123
q39 0 74 -15.5t61.5 -41.5t41.5 -61t15 -75q0 -21 -15.5 -36.5t-37.5 -15.5h-81v0z" />
    <glyph glyph-name="five" unicode="5" horiz-adv-x="528" 
d="M494 192q-2 -40 -19 -75t-45 -61t-65.5 -41t-80.5 -15h-105q-51 0 -93.5 20t-68.5 58q-2 2 -3 3.5t-3 3.5v3q-8 19 0 39t27 28l80 37q-20 -10 -27.5 -30t0.5 -40v1q36 -36 88 -36v1h105q26 0 48.5 9t39 24.5t26 36t9.5 44.5v26q0 24 -9.5 44.5t-26 35.5t-39 24t-48.5 9
h-105q-25 0 -47.5 -9t-39.5 -25v-1h-88l35 341q0 22 15.5 37.5t37.5 15.5h332q23 0 38 -15.5t15 -37.5v-81q-2 20 -17.5 33t-35.5 13h-298l-21 -197q33 13 74 13h107q42 0 79.5 -15t65 -41t44.5 -61t19 -75v-44v0z" />
    <glyph glyph-name="four" unicode="4" horiz-adv-x="567" 
d="M500 210q20 0 35 13t17 33v-81q0 -21 -14.5 -36.5t-37.5 -15.5h-105v-70q0 -22 -15 -37.5t-38 -15.5h-80q20 2 32.5 17t12.5 36v70h-264q-22 0 -31 15.5t-1 36.5l95 247l87 225q7 20 -1 35.5t-27 17.5h82q23 0 32 -15.5t0 -37.5l-60 -157l-26 -68l-81 -212h195v174
q0 23 15.5 38t37.5 15h81q-19 -2 -32.5 -17.5t-13.5 -35.5v-174h105v0z" />
    <glyph glyph-name="three" unicode="3" horiz-adv-x="556" 
d="M445 363q39 -29 62.5 -70.5t23.5 -90.5q0 -42 -17 -79t-45.5 -64t-66.5 -43t-81 -16h-140v1h-2q-51 0 -93.5 19.5t-68.5 57.5q-2 2 -3 4t-3 5v1q-8 20 0 39.5t27 29.5l80 35q-20 -8 -27.5 -28.5t0.5 -40.5q17 -16 40.5 -25.5t49.5 -9.5v-1h140q25 0 47 9t38.5 25t26 36.5
t9.5 44.5t-9.5 44.5t-26 35.5t-38.5 24t-47 9h-133q-18 1 -30 13.5t-12 29.5q0 18 12 31t30 13h133q21 0 40.5 8t33.5 22.5t22.5 33.5t8.5 41t-8.5 41t-22.5 33.5t-33.5 22.5t-40.5 8h-140q-26 1 -49.5 -8.5t-40.5 -26.5v1q-8 -20 -0.5 -40t27.5 -30l-80 37q-19 8 -27 28
t0 39v3q2 2 3 3.5t3 3.5q26 38 68.5 58t93.5 20h142q39 0 74 -15.5t61 -41.5t41 -61t15 -75q0 -45 -17.5 -81.5t-49.5 -62.5z" />
    <glyph glyph-name="two" unicode="2" horiz-adv-x="554" 
d="M199 297q-45 0 -75 -30t-30 -75v-105h368q19 0 34.5 13t17.5 33v-81q0 -21 -15.5 -36.5t-36.5 -15.5h-403q-23 0 -37.5 15.5t-14.5 36.5v140h-1q0 40 15 75t41.5 61t61.5 41.5t75 15.5h122q25 0 47.5 9t39.5 24t26.5 35.5t9.5 44.5t-9.5 44.5t-26.5 36t-39.5 24.5
t-47.5 9h-142q-52 1 -88 -35q-8 -19 -0.5 -39t27.5 -30l-80 37q-20 8 -27.5 28t0.5 39h-1l1 1v2q2 2 3 3.5t3 3.5q25 38 68 58t94 20h143q43 0 81.5 -16t67 -43t45 -64t16.5 -79q0 -41 -16.5 -77.5t-45 -64t-67 -43.5t-81.5 -16l-1 1v-1h-122v0z" />
    <glyph glyph-name="one" unicode="1" horiz-adv-x="302" 
d="M1 653v-1q1 0 1 -1l-1 2v0zM0 655v2v-2zM2 651l1 -1zM0 655q0 -1 0.5 -1.5l0.5 -0.5zM195 697q7 3 15 3h80q-20 -2 -32.5 -17.5t-12.5 -35.5v-595q0 -21 -15.5 -36.5t-37.5 -15.5h-81q19 2 32.5 17t13.5 35v528l-31 -16l-15 -8q-20 -10 -40.5 -3.5t-29.5 25.5l-38 72
q11 -17 30.5 -21.5t36.5 5.5l17 7l91 48q7 7 15 8l2 2v-2v0z" />
    <glyph glyph-name="zero" unicode="0" horiz-adv-x="549" 
d="M262 87q54 0 88.5 20.5t54 56t26.5 83.5t7 103q0 66 -10.5 121.5t-42.5 91.5q-28 -30 -41 -74t-5 -84q5 -23 3 -47.5t-10.5 -47.5t-23 -43.5t-32.5 -34.5l-133 -98q19 -22 48 -34.5t71 -12.5zM88 350q0 -69 10.5 -124.5t42.5 -91.5q31 31 45 76t6 87q-5 22 -3 46.5
t10.5 47.5t23 43.5t32.5 34.5l130 95q-20 23 -50 35.5t-73 12.5q-54 0 -88 -20.5t-53 -56t-26 -83t-7 -102.5zM262 700q73 0 123 -27.5t81 -75t45 -111.5t14 -136t-14 -136t-45 -111.5t-81 -75t-123 -27.5q-72 0 -122 27.5t-81 75t-45 111.5t-14 136t14 136t45 111.5t81 75
t122 27.5z" />
    <glyph glyph-name="registered" unicode="&#xae;" horiz-adv-x="452" 
d="M272 567q0 -11 -8 -19t-19 -8h-46q-5 0 -5 4v46q0 5 5 5h46q11 0 19 -8.5t8 -19.5zM296 435q-8 1 -13 14l-22 48l-11 20q19 2 31.5 16t12.5 34q0 21 -14 35.5t-35 14.5h-84q4 -2 7.5 -5.5t3.5 -8.5v-154q0 -6 -3 -9.5t-6 -4.5h18q13 0 13 14v63q0 5 5 5h23l11 -20l10 -23
l14 -25q3 -7 11 -10.5t13 -3.5h15zM377 514q35 -37 51 -69t13 -55t-23.5 -36t-59.5 -11l-313 10q39 -1 59.5 11.5t23.5 36t-13 55.5t-51 69t-51 69t-13 55t24 36t60 12l312 -12q-38 2 -59 -11t-23.5 -36t13 -55t50.5 -69z" />
    <glyph glyph-name="copyright" unicode="&#xa9;" horiz-adv-x="876" 
d="M552 445q8 -8 7 -19t-9 -19l33 31q8 8 8 18q0 11 -8 19v2q-25 26 -59 41.5t-72 15.5q-37 0 -69.5 -14t-56.5 -38t-38 -56.5t-14 -69.5t14 -69.5t38 -56.5t56.5 -38t69.5 -14q38 0 71.5 14.5t57.5 40.5v2q8 8 8 18q0 11 -8 19l-30 27q6 -8 5.5 -17.5t-6.5 -16.5v1
q-18 -20 -43.5 -32t-54.5 -12q-28 0 -52.5 10.5t-42.5 28.5t-28.5 42.5t-10.5 52.5t10.5 52t28.5 42t42.5 28.5t52.5 10.5q30 0 55.5 -12t44.5 -32zM766 672q-71 0 -108 -25.5t-40 -70.5t28.5 -105.5t97.5 -130.5q67 -72 97.5 -134t25.5 -107.5t-45.5 -70t-116.5 -21.5
l-594 20q70 0 107 26t40 71t-27.5 105.5t-95.5 130.5q-68 72 -99 134t-26 107t45.5 70t116.5 22z" />
    <glyph glyph-name="numbersign" unicode="#" horiz-adv-x="545" 
d="M224 270h106v107h-106v-107zM470 466q23 0 37.5 -16t14.5 -39v-83q-2 21 -16 35t-36 14h-52v-107h52q23 0 37.5 -14t14.5 -37v-82q-2 19 -16.5 33t-35.5 14h-52v-53q0 -20 12.5 -35.5t32.5 -17.5h-81q-21 0 -36.5 16t-15.5 37v53h-106v-53q0 -20 13.5 -35.5t32.5 -17.5
h-81q-23 0 -38 16t-15 37v53h-52q-22 0 -38 15t-16 37v81q2 -20 17.5 -33.5t36.5 -13.5h52v107h-52q-22 0 -38 15t-16 38v81q2 -20 17.5 -32.5t36.5 -12.5h52v52q0 20 -13 35t-33 17h81q23 0 38 -14.5t15 -37.5v-52h106v52q0 20 -14 35t-34 17h82q23 0 38.5 -14.5
t15.5 -37.5v-52h52v0z" />
    <glyph glyph-name="quoteleft" unicode="&#x2018;" horiz-adv-x="193" 
d="M45 495q-22 22 -22 56q0 33 22 58l90 87q-20 -23 -19.5 -53.5t23.5 -52.5q22 -23 22 -57t-22 -57l-90 -90q10 12 15.5 26t5 29t-6.5 29t-18 25z" />
    <glyph glyph-name="quoteright" unicode="&#x2019;" horiz-adv-x="193" 
d="M49 696q-3 1 -4 4l4 -4v0zM45 590q22 22 23 52.5t-19 53.5l90 -87q22 -25 22 -58q0 -34 -22 -56q-24 -23 -24.5 -55t21.5 -56l-91 92q-22 23 -22 57t22 57z" />
    <glyph glyph-name="equal" unicode="=" horiz-adv-x="549" 
d="M452 406q23 0 39.5 -16t16.5 -39v-86q-2 22 -18.5 36t-37.5 14h-398q-22 0 -38 16t-16 39v83q2 -20 17.5 -33.5t36.5 -13.5h398v0zM452 189q23 0 39.5 -16t16.5 -39v-86q-2 21 -18.5 35.5t-37.5 14.5h-398q-22 0 -38 16t-16 39v83q2 -20 17.5 -33.5t36.5 -13.5h398v0z
" />
    <glyph glyph-name="hyphen" unicode="-" horiz-adv-x="496" 
d="M386 319q25 0 43 -17.5t18 -43.5v-80q-2 23 -20 38.5t-41 15.5h-276q-24 0 -41.5 15t-17.5 40v86q2 -23 19 -38.5t40 -15.5h276v0z" />
    <glyph glyph-name="hyphen" unicode="&#xad;" horiz-adv-x="496" 
d="M386 319q25 0 43 -17.5t18 -43.5v-80q-2 23 -20 38.5t-41 15.5h-276q-24 0 -41.5 15t-17.5 40v86q2 -23 19 -38.5t40 -15.5h276v0z" />
    <glyph glyph-name="slash" unicode="/" horiz-adv-x="565" 
d="M556 700q-20 -3 -42 -19.5t-45 -63.5l-303 -588q-4 -9 -14.5 -18.5t-25.5 -10.5h-118q20 1 40 15t43 55v2l314 603q7 25 37 25h114z" />
    <glyph glyph-name="less" unicode="&#x3c;" 
d="M367 429q20 10 41.5 3t30.5 -28l37 -74q-11 17 -30.5 21t-37.5 -4l-147 -74l-64 -32l64 -33l147 -74q19 -9 38.5 -3.5t30.5 22.5l-38 -76q-9 -20 -30.5 -27.5t-41.5 3.5l-146 74l-144 68q-25 4 -36 28l-38 76q11 -17 31 -23t39 4l148 75l146 74v0z" />
    <glyph glyph-name="greater" unicode="&#x3e;" 
d="M72 347q-19 8 -38 4t-30 -21l37 74q9 21 30.5 28t41.5 -3l146 -74l148 -75q17 -10 37.5 -4t32.5 23l-38 -76q-11 -24 -36 -28l-144 -68l-146 -74q-20 -11 -41.5 -3.5t-30.5 27.5l-38 76q11 -17 30.5 -22.5t38.5 3.5l147 74l64 33l-64 32l-147 74v0z" />
    <glyph glyph-name="plus" unicode="+" horiz-adv-x="443" 
d="M365 297q18 0 31 13t15 30v-73q0 -19 -13 -32t-33 -13h-121v-138q0 -17 18 -30t37 -15h-86q-20 0 -33 13.5t-13 31.5v138h-122q-17 0 -30 -12.5t-15 -30.5v73q0 20 13.5 32.5t33.5 12.5h120v122q0 18 -12.5 31.5t-29.5 15.5h73q19 0 32.5 -13.5t13.5 -33.5v-122h121v0z
" />
    <glyph glyph-name="percent" unicode="%" horiz-adv-x="824" 
d="M197 402q-14 16 -14 35t14 35l53 53q-11 -12 -9 -31q1 -20 15 -33q14 -14 14 -35q0 -19 -14 -36l-57 -57q14 16 13 35t-15 34zM588 331q-15 -14 -15 -34t15 -35q14 -14 14 -35q0 -19 -14 -35l-57 -56q13 15 12 34t-15 33q-14 16 -14 35t14 35l60 58v0zM232 283
q31 0 58 11.5t47.5 32t32 47.5t11.5 58t-11.5 58t-32 47.5t-47.5 32.5t-58 12t-58 -12t-47.5 -32.5t-32.5 -47.5t-12 -58t12 -58t32.5 -47.5t47.5 -32t58 -11.5zM565 83q31 0 58 11.5t47 32t32 47.5t12 58t-12 58.5t-32 47.5t-47 32t-58 12t-58.5 -12t-47.5 -32t-32 -47.5
t-12 -58.5t12 -58t32 -47.5t47.5 -32t58.5 -11.5zM565 464q48 0 90 -18t73.5 -49.5t50 -74t18.5 -90.5t-18.5 -90.5t-50 -74t-73.5 -49.5t-90 -18q-37 0 -70.5 10.5t-61.5 30t-49.5 46t-34.5 58.5l-61 -118q-2 -8 -11.5 -17t-24.5 -10h-111q17 2 36 15t42 51l-1 1l73 140
q-30 -8 -59 -8q-48 0 -90.5 18t-74 49.5t-49.5 74t-18 91.5q0 48 18 90.5t49.5 74t74 49.5t90.5 18q37 0 71.5 -11t63 -31.5t50 -48.5t33.5 -61l65 127q10 24 36 24h109q-20 -3 -40.5 -18t-42.5 -61l-66 -126q25 6 54 6z" />
    <glyph glyph-name="perthousand" unicode="&#x2030;" horiz-adv-x="1219" 
d="M591 334q-15 -14 -15 -35t15 -36q14 -14 14 -35q0 -19 -14 -35l-57 -56q13 15 12 34t-15 33q-14 16 -14 35q0 20 14 36l60 59v0zM916 204q-15 15 -15 35q0 21 15 36l57 57q-13 -14 -12.5 -34.5t14.5 -34.5q15 -14 15 -35q0 -20 -15 -35l-56 -56q13 15 12 34t-15 33z
M258 534q-15 -14 -15 -35q0 -20 15 -35q14 -14 14 -35q0 -20 -14 -36l-61 -59q15 15 15 35t-15 35q-14 16 -14 35q0 20 14 36l61 59v0zM568 84q31 0 58 12t47.5 32t32 47.5t11.5 58.5t-11.5 58.5t-32 47.5t-47.5 32t-58 12t-58.5 -12t-48 -32t-32.5 -47.5t-12 -58.5
t12 -58.5t32.5 -47.5t48 -32t58.5 -12zM234 284q31 0 58 12t47.5 32t32 47.5t11.5 58.5t-11.5 58.5t-32 48t-47.5 32.5t-58 12t-58.5 -12t-48 -32.5t-32.5 -48t-12 -58.5t12 -58.5t32.5 -47.5t48 -32t58.5 -12zM951 84q31 0 59 12t48 32t32 47.5t12 58.5t-12 58.5t-32 47.5
t-48 32t-59 12t-58.5 -12t-47.5 -32t-32 -47.5t-12 -58.5t12 -58.5t32 -47.5t47.5 -32t58.5 -12zM951 467q49 0 91.5 -18.5t74 -50t50 -74t18.5 -90.5q0 -49 -18.5 -91.5t-50 -74t-74 -50t-91.5 -18.5q-60 0 -110 27.5t-81 72.5q-32 -45 -82 -72.5t-110 -27.5
q-37 0 -70.5 10.5t-61.5 30t-50 46.5t-35 59l-61 -118q-2 -9 -12 -18t-24 -10h-112q17 2 36 15.5t42 51.5l-1 1l74 140q-32 -8 -59 -8q-49 0 -91.5 18.5t-74 50t-50 74t-18.5 91.5t18.5 91.5t50 74t74 50t91.5 18.5q37 0 71.5 -11.5t63 -31.5t50.5 -48t34 -62l65 127
q10 25 36 25h109q-20 -3 -40.5 -19t-42.5 -60l-66 -127q25 6 54 6q60 0 110 -27.5t82 -72.5q31 45 81 72.5t110 27.5z" />
    <glyph glyph-name="asciicircum" unicode="^" horiz-adv-x="422" 
d="M176 700l2 -2l-2 2v0zM178 698v0q1 0 1 -1l-1 1v0zM162 418q3 -2 9 -3zM266 418l-9 -3zM162 418q-6 2 -9 4l9 -4v0zM275 422q-3 -2 -5 -2.5t-4 -1.5l9 4v0zM386 505q17 -17 6 -33.5t-44 -24.5l-73 -25q21 10 26.5 23.5t-6.5 27.5l-82 82l-50 -50l-30 -32
q-12 -14 -6 -27.5t26 -23.5l-72 25q-32 8 -43 24.5t5 33.5l29 32l117 113q8 8 8 16q0 11 -6 18.5t-12 12.5l23 -13l16 -11t10 -7.5t7.5 -7.5l9.5 -11l109 -110l32 -32v0z" />
    <glyph glyph-name="asciitilde" unicode="~" 
d="M370 650q22 8 37.5 5t25.5 -14.5t14 -29.5t4 -41l-21 -101q0 15 -4.5 30t-12.5 26t-19 18t-24 7l-243 -81q-23 -8 -39 -5t-25.5 14.5t-13.5 30t-4 41.5l20 100q0 -15 5 -29.5t13.5 -25.5t19.5 -18t24 -7l243 80v0z" />
    <glyph glyph-name="bracketleft" unicode="[" horiz-adv-x="182" 
d="M194 836q18 0 30.5 -12.5t12.5 -29.5v-70q0 17 -12.5 28.5t-30.5 11.5h-69q-5 0 -9.5 -3t-4.5 -11v-798q0 -8 4.5 -11.5t9.5 -3.5h69q17 0 29 10.5t14 26.5v-66q0 -17 -12.5 -29.5t-30.5 -12.5h-190q16 2 26.5 14t10.5 28v886q0 16 -10.5 28t-26.5 14h190v0z" />
    <glyph glyph-name="bracketright" unicode="]" horiz-adv-x="182" 
d="M-8 -134q-18 0 -30.5 12.5t-12.5 29.5v67q2 -17 14 -27t29 -10h69q5 0 9.5 3t4.5 11v798q0 8 -4.5 11.5t-9.5 3.5h-69q-17 0 -29 -10.5t-14 -26.5v66q0 17 12.5 29.5t30.5 12.5h190q-16 -2 -26.5 -14t-10.5 -28v-886q0 -16 10.5 -28t26.5 -14h-190v0z" />
    <glyph glyph-name="backslash" unicode="\" horiz-adv-x="565" 
d="M122 700q30 0 37 -25l314 -603v-2q21 -41 42 -55t41 -15h-118q-15 1 -25.5 10.5t-14.5 18.5l-303 588q-23 46 -45.5 63t-41.5 20h114v0z" />
    <glyph glyph-name="breve" unicode="&#x2d8;" horiz-adv-x="369" 
d="M267 635q22 0 38 14.5t18 36.5v-88q0 -21 -16.5 -37.5t-39.5 -16.5h-163q-24 0 -40 16.5t-16 37.5v88q2 -22 17.5 -36.5t38.5 -14.5h163v0z" />
    <glyph glyph-name="caron" unicode="&#x2c7;" horiz-adv-x="352" 
d="M152 463q-1 0 -1.5 -0.5l-0.5 -0.5l2 1v0zM218 699l7.5 -3l7.5 -3zM131 693l7.5 3l7.5 3zM208 506q-5 -6 -8.5 -9.5t-6.5 -6t-8 -6l-13 -9.5l-20 -12q5 4 10.5 10.5t5.5 16.5q0 6 -7 13l-97 94l-25 27q-13 14 -4 27.5t36 20.5l60 21q-17 -8 -22 -19t5 -23l25 -27l42 -42
l42 42l26 27q11 12 6 23t-22 19l60 -21q28 -7 37 -20.5t-5 -27.5l-27 -27z" />
    <glyph glyph-name="divide" unicode="&#xf7;" horiz-adv-x="536" 
d="M248 98q-1 0 -1.5 -0.5t-1.5 -0.5l3 1v0zM300 578q1 1 2 1t2 1zM304 250q-1 -1 -3 -1l3 1v0zM248 428q-1 0 -1.5 -0.5t-1.5 -0.5l3 1v0zM226 483q-30 13 -34.5 29.5t17.5 26.5l91 39q-20 -10 -14.5 -25.5t35.5 -29.5q30 -13 35.5 -29t-19.5 -26l-89 -40q20 11 14.5 26.5
t-36.5 28.5zM321 194q30 -13 35.5 -29.5t-19.5 -25.5l-89 -41q20 11 14.5 26.5t-36.5 29.5q-30 13 -34.5 29t17.5 27l92 39q-21 -11 -15.5 -27t35.5 -28zM434 375q23 0 37.5 -14.5t14.5 -36.5v-89q0 23 -14.5 38.5t-37.5 15.5h-330q-21 0 -36 15t-15 36v82q2 -20 16.5 -33.5
t34.5 -13.5h330v0z" />
    <glyph glyph-name="colon" unicode=":" horiz-adv-x="232" 
d="M93 292q2 0 3 1zM93 0q2 0 3 1zM93 292q-1 -1 -3 -1l3 1v0zM90 291q-1 -1 -3 -1zM90 -1q-1 -1 -3 -1zM93 0q-1 -1 -3 -1l3 1v0zM155 173q-1 -1 -3 -1zM155 465q-1 -1 -3 -1zM159 466q-1 -1 -4 -1l4 1v0zM159 174q-1 -1 -4 -1l4 1v0zM178 111q35 -17 41 -36t-20 -30
l-103 -44q21 12 12.5 30t-40.5 32q-34 15 -40.5 34.5t20.5 31.5l104 43q-23 -12 -16 -29.5t42 -31.5zM178 403q35 -17 41 -36t-20 -30l-103 -44q21 12 12.5 30t-40.5 32q-34 15 -40.5 34.5t20.5 31.5l104 43q-23 -12 -16 -29.5t42 -31.5z" />
    <glyph glyph-name="semicolon" unicode=";" horiz-adv-x="204" 
d="M125 463q-1 -1 -2 -1l2 1v0zM73 293q-1 -1 -3 -1l3 1v0zM129 464q-1 -1 -4 -1l4 1v0zM145 402q29 -17 34.5 -35.5t-17.5 -29.5l-87 -43q18 11 11 29t-35 32q-29 14 -34 33.5t18 31.5l86 41q-18 -12 -11.5 -28.5t35.5 -30.5zM143 89q15 -9 24.5 -25t11 -35t-7 -38.5
t-30.5 -36.5l-110 -79q10 10 26 30.5t25 43.5t6 45.5t-30 37.5q-31 16 -34.5 40t19.5 38l85 57q-21 -14 -17.5 -37.5t32.5 -40.5z" />
    <glyph glyph-name="semicolon" unicode="&#x37e;" horiz-adv-x="204" 
d="M125 463q-1 -1 -2 -1l2 1v0zM73 293q-1 -1 -3 -1l3 1v0zM129 464q-1 -1 -4 -1l4 1v0zM145 402q29 -17 34.5 -35.5t-17.5 -29.5l-87 -43q18 11 11 29t-35 32q-29 14 -34 33.5t18 31.5l86 41q-18 -12 -11.5 -28.5t35.5 -30.5zM143 89q15 -9 24.5 -25t11 -35t-7 -38.5
t-30.5 -36.5l-110 -79q10 10 26 30.5t25 43.5t6 45.5t-30 37.5q-31 16 -34.5 40t19.5 38l85 57q-21 -14 -17.5 -37.5t32.5 -40.5z" />
    <glyph glyph-name="parenleft" unicode="(" horiz-adv-x="251" 
d="M265 813q17 0 29.5 -13t12.5 -31v-71q0 17 -12.5 29.5t-29.5 12.5q-45 0 -73.5 -16.5t-44 -46t-21 -68.5t-5.5 -84h-2v-352h2q0 -45 5.5 -84.5t21 -69t44 -46.5t73.5 -17q17 0 28.5 12t13.5 29v-69q0 -17 -12.5 -30t-29.5 -13q-60 0 -101.5 23t-67 62t-37 91.5
t-11.5 111.5v352q0 59 11.5 111.5t37 91.5t67 62t101.5 23z" />
    <glyph glyph-name="parenright" unicode=")" horiz-adv-x="251" 
d="M-8 -115q-17 0 -29.5 13t-12.5 31v67q2 -16 14 -27t28 -11q45 0 73.5 17t44.5 46t22 68t6 84v352q-1 45 -7 84.5t-21.5 69t-44 46.5t-73.5 17q-16 0 -28 -11.5t-14 -28.5v68q0 17 12.5 30t29.5 13q60 0 101.5 -23t67 -62t37 -91.5t11.5 -111.5v-352q0 -59 -11.5 -111.5
t-37 -91.5t-67 -62t-101.5 -23z" />
    <glyph glyph-name="bar" unicode="|" horiz-adv-x="193" 
d="M52 746q0 22 14.5 37.5t37.5 15.5h82q-20 -2 -33.5 -17.5t-13.5 -35.5v-793q0 -21 -15.5 -36.5t-36.5 -15.5h-81q20 2 33 17t13 35v793z" />
    <glyph glyph-name="OE" unicode="&#x152;" horiz-adv-x="1069" 
d="M279 319q-14 17 -14 37t14 37l58 57q-12 -15 -11 -35t16 -34q15 -15 15 -37q0 -21 -15 -37l-59 -58q13 16 11.5 35.5t-15.5 34.5zM317 87q51 0 91.5 18t69 50t45 75t20.5 93v54q-4 50 -20.5 93t-45 74.5t-69 49.5t-91.5 18q-55 0 -97.5 -20.5t-71.5 -56t-44 -83
t-15 -102.5t15 -103t44 -83.5t71.5 -56t97.5 -20.5zM981 699q22 0 37 -15.5t15 -37.5v-81q-2 20 -17 33t-35 13h-333q-7 0 -12 -4.5t-5 -12.5v-175q0 -8 5 -13t12 -5h228q20 0 35 13t17 33v-180q-2 20 -17 33.5t-35 13.5h-228q-7 0 -12 -5t-5 -13v-192q0 -8 5 -13t12 -5h333
q20 0 35 13t17 33v-81q0 -21 -15 -36.5t-37 -15.5h-484q20 2 33 17t13 35v47q-42 -46 -98 -72t-128 -26t-130.5 27.5t-99.5 75t-63 111.5t-22 136t22 136t63 111.5t99.5 75t130.5 27.5t128 -26.5t98 -72.5v45q0 20 -13 35.5t-33 17.5h484v0z" />
    <glyph glyph-name="AE" unicode="&#xc6;" horiz-adv-x="1031" 
d="M490 444q-2 36 -16 66.5t-37.5 53t-54.5 35.5t-67 13t-68 -13.5t-56 -37t-37.5 -55.5t-13.5 -69v-87h350v94zM928 697q22 0 37 -15.5t15 -37.5v-81q-2 20 -17 33t-35 13h-333q-7 0 -12 -4.5t-5 -12.5v-178q1 -15 17 -15h228q20 0 35 13t17 33v-180q-2 20 -17 33.5
t-35 13.5h-228q-7 0 -12 -5t-5 -13v-195q1 -15 17 -15h333q20 0 35 13t17 33v-81q0 -21 -15 -36.5t-37 -15.5h-484q20 2 33 17t13 35v213h-350v-210q0 -21 -14.5 -36.5t-37.5 -15.5h-82q20 2 33.5 17t13.5 35v385q0 54 20.5 102t56.5 84t83.5 56.5t101.5 20.5
q51 0 95.5 -17.5t79.5 -49.5v11q0 20 -13 35.5t-33 17.5h484v0z" />
    <glyph glyph-name="grave" unicode="`" horiz-adv-x="278" 
d="M29 701q2 0 3 -0.5l3 -1.5l-6 2v0zM79 604q5 15 4 29.5t-7 27.5t-16.5 23t-24.5 15l120 -36q31 -12 45.5 -42t5.5 -60q-11 -29 2.5 -58t42.5 -41l-121 40q-30 12 -44.5 41t-6.5 61z" />
    <glyph glyph-name="acute" unicode="&#xb4;" horiz-adv-x="278" 
d="M257 693q-1 -1 -3 -1zM257 693q1 0 1.5 0.5t2.5 0.5zM205 600q5 -32 -11 -60.5t-47 -38.5l-127 -33q31 9 47.5 37.5t6.5 59.5q-6 31 10.5 59.5t48.5 39.5l121 28q-29 -8 -43 -35.5t-6 -56.5z" />
    <glyph glyph-name="questiondown" unicode="&#xbf;" horiz-adv-x="565" 
d="M426 -44l6 -2l-6 2v0zM307 383q-29 12 -33.5 27.5t17.5 25.5l88 38q-20 -11 -14.5 -25.5t33.5 -26.5q29 -14 33.5 -29.5t-17.5 -24.5l-89 -38q22 9 16.5 24.5t-34.5 28.5zM215 -225q-38 0 -71.5 14.5t-58.5 39.5t-39.5 58t-14.5 71t14.5 71.5t39.5 58.5t58.5 39.5
t71.5 14.5q24 0 44.5 8t36 21.5t25 32.5t10.5 40q-1 20 -13 33t-30 15h77q19 0 32.5 -12t16.5 -30h1v-8q0 -6 -1 -7q-3 -38 -19.5 -70t-43 -56t-61.5 -37.5t-75 -13.5q-21 0 -39.5 -8t-32 -21.5t-21 -31.5t-7.5 -39t7.5 -39t21 -31.5t32 -21.5t39.5 -8h152q24 0 46 9t38 25
v-1q8 17 2.5 35.5t-21.5 27.5l70 -32q19 -8 26 -26.5t-1 -37.5h2l-2 -2q0 -1 -1 -2q-1 -2 -2 -3t-2 -3q-25 -37 -66 -55t-89 -18h-152v0z" />
    <glyph glyph-name="exclamdown" unicode="&#xa1;" horiz-adv-x="234" 
d="M97 336q-1 0 -1.5 -0.5t-1.5 -0.5l3 1v0zM77 388q-29 13 -34 28.5t18 25.5l88 38q-20 -11 -14.5 -26t33.5 -27q29 -13 34 -28.5t-18 -24.5l-87 -38q20 10 14 24.5t-34 27.5zM85 250q0 21 -13 35t-32 16h78q20 0 35 -14.5t15 -36.5v-418q0 -19 13 -34t32 -17h-78
q-20 0 -35 15t-15 36v418v0z" />
    <glyph glyph-name="A" unicode="A" horiz-adv-x="650" 
d="M490 437q0 37 -13.5 69t-37 55.5t-55.5 37t-69 13.5q-36 0 -68 -13.5t-56 -37t-37.5 -55.5t-13.5 -69v-87h350v87zM578 52q0 -20 13.5 -35t32.5 -17h-81q-22 0 -37.5 15.5t-15.5 36.5v210h-350v-210q0 -21 -14.5 -36.5t-37.5 -15.5h-82q20 2 33.5 17t13.5 35v385
q0 54 20.5 102t56.5 84t83.5 56.5t101.5 20.5q55 0 103 -20.5t83.5 -56.5t56 -84t20.5 -102v-385v0z" />
    <glyph glyph-name="a" unicode="a" horiz-adv-x="547" 
d="M233 84q31 0 58.5 11.5t47.5 32t32 47.5t12 58t-12 58.5t-32 48t-47.5 32.5t-58.5 12t-58 -12t-47.5 -32.5t-32.5 -48t-12 -58.5t12 -58t32.5 -47.5t47.5 -32t58 -11.5zM467 50q0 -20 12.5 -34t30.5 -16h-76q-22 0 -36.5 15t-14.5 35v5q-30 -26 -67.5 -40.5t-82.5 -14.5
q-48 0 -90.5 18.5t-74 50t-50 74t-18.5 90.5t18.5 91t50 74.5t74 50t90.5 18.5q45 0 82.5 -14.5t67.5 -40.5v4q0 19 -12.5 34t-31.5 17h77q21 0 36 -15t15 -35v-367v0z" />
    <glyph glyph-name="B" unicode="B" horiz-adv-x="597" 
d="M140 420q0 -8 5 -13t12 -5h193q21 0 40.5 8t33.5 22.5t22.5 33.5t8.5 41t-8.5 41t-22.5 33.5t-33.5 22.5t-40.5 8h-193q-7 0 -12 -4.5t-5 -12.5v-175v0zM350 88q25 0 47.5 9t39 24.5t26 36t9.5 44.5t-9.5 44.5t-26 35.5t-39 24t-47.5 9h-193q-7 0 -12 -5t-5 -13v-192
q0 -8 5 -13t12 -5h193v1v0zM476 363q38 -29 61 -70.5t23 -90.5q0 -42 -16.5 -79t-45 -64t-67 -43t-81.5 -16h-344q20 2 33 17t13 35v595q0 20 -13 35.5t-33 17.5h344q40 0 75 -15.5t61 -41.5t41.5 -61t15.5 -75q0 -45 -18 -81.5t-49 -62.5z" />
    <glyph glyph-name="e" unicode="e" horiz-adv-x="451" 
d="M319 333q0 12 -5.5 23.5t-17.5 19.5q-12 5 -29.5 7.5t-32.5 2.5q-42 0 -77 -21.5t-55 -56.5q-5 -10 -8.5 -24t-5.5 -26q18 -2 36 -3t34 -1q42 0 72 7t50 18.5t29.5 25.5t9.5 28zM410 336q0 -32 -14 -61t-44 -51.5t-76.5 -35.5t-111.5 -13q-17 0 -35 0.5t-37 3.5
q17 -42 55.5 -68.5t86.5 -26.5q66 0 108 45q4 7 9.5 15t9 16t3.5 16t-6 15q28 -27 40 -45.5t15 -30.5t0 -19.5t-6 -13.5q-39 -45 -83.5 -63.5t-89.5 -18.5q-49 0 -91.5 18.5t-74 50t-50 74t-18.5 91.5t18.5 91.5t51.5 74.5t78 50.5t99 18.5q41 0 78.5 -13t60.5 -43
q2 -2 4 -3q9 -12 13 -21.5t5.5 -18t1.5 -16.5v-18z" />
    <glyph glyph-name="fi" unicode="&#xfb01;" horiz-adv-x="549" 
d="M473 48q0 -18 11.5 -32.5t31.5 -16.5h-76q-23 0 -37.5 15t-14.5 34v265q-13 8 -26 8l-214 1q-7 0 -12 -4.5t-5 -11.5v-257q0 -20 -13.5 -34.5t-34.5 -14.5h-77q18 2 31 16t13 33v601q0 18 -13 33t-31 17h77q21 0 34.5 -15t13.5 -35v-4q63 54 149 54q54 0 101 -23.5
t79 -62.5q0 -4 1 -5q10 -18 4 -37.5t-24 -29.5l-70 -38q17 11 22 29.5t-3 35.5q-43 48 -110 48q-34 0 -61.5 -11t-47 -31t-30 -47t-10.5 -58v-50q0 -6 5 -11t12 -5h274q21 0 36 -14.5t15 -36.5v-305v0z" />
    <glyph glyph-name="dotlessi" unicode="&#x131;" horiz-adv-x="223" 
d="M136 49q0 -18 11.5 -32.5t31.5 -16.5h-76q-23 0 -37.5 15t-14.5 34v367q0 20 -12 34.5t-32 16.5h78q21 0 36 -14.5t15 -36.5v-367v0z" />
    <glyph glyph-name="fl" unicode="&#xfb02;" horiz-adv-x="551" 
d="M467 52q0 -20 13 -35t33 -17h-81q-21 0 -36.5 15.5t-15.5 36.5v527q-41 38 -100 38q-34 0 -61.5 -11t-47 -31t-30 -47t-10.5 -58v-50q0 -6 5 -11t12 -5h115q20 0 35 -14.5t15 -34.5v-76q-2 18 -17 30.5t-33 12.5h-115q-7 0 -12 -4.5t-5 -11.5v-257q0 -20 -13.5 -34.5
t-34.5 -14.5h-77q18 2 31 16t13 33v601q0 18 -13 33t-31 17h77q21 0 34.5 -15t13.5 -35v-4q63 54 149 54q24 0 56.5 -8.5t61.5 -24.5t49 -38t20 -49v-528v0z" />
    <glyph glyph-name="oe" unicode="&#x153;" horiz-adv-x="821" 
d="M256 331q-15 -14 -15 -35q0 -20 15 -35q14 -14 14 -35q0 -19 -14 -35l-60 -58q15 13 15 34t-15 36q-14 16 -14 35t14 35l60 58v0zM698 333q0 12 -5.5 23.5t-17.5 19.5q-12 5 -29.5 7.5t-32.5 2.5q-42 0 -77 -21.5t-55 -56.5q-5 -10 -8 -24t-5 -26q18 -2 35.5 -3t33.5 -1
q42 0 72 7t50 18.5t29.5 25.5t9.5 28zM232 84q33 0 62.5 13.5t50 37t30.5 54t4 63.5q-4 27 -17 50.5t-32.5 41.5t-44.5 28t-53 10q-31 0 -58 -12t-47.5 -32.5t-32.5 -47.5t-12 -58t12 -58t32.5 -47t47.5 -31.5t58 -11.5zM789 336q0 -32 -14 -61t-44 -51.5t-76.5 -35.5
t-111.5 -13q-17 0 -34.5 0.5t-36.5 3.5q17 -42 55 -68.5t86 -26.5q66 0 108 45q4 7 9.5 15t9 16t3.5 16t-6 15q28 -27 40 -45.5t15 -30.5t0 -19.5t-6 -13.5q-39 -45 -83.5 -63.5t-89.5 -18.5q-60 0 -109.5 26.5t-81.5 71.5q-32 -45 -81 -71.5t-109 -26.5q-48 0 -90.5 18
t-74 49.5t-49.5 74t-18 90.5t18 90.5t49.5 74t74 49.5t90.5 18q59 0 108 -26t81 -71q32 47 85 74.5t120 27.5q41 0 78.5 -13t60.5 -43q2 -2 4 -3q9 -12 13 -21.5t5.5 -18t1.5 -16.5v-18z" />
    <glyph glyph-name="ae" unicode="&#xe6;" horiz-adv-x="831" 
d="M703 330q0 12 -5.5 23.5t-17.5 19.5q-12 5 -29.5 7.5t-32.5 2.5q-42 0 -77 -21.5t-55 -56.5q-5 -10 -8 -24t-5 -26q18 -2 35.5 -3t33.5 -1q42 0 72 7t50 18.5t29.5 25.5t9.5 28zM233 84q31 0 58.5 11.5t47.5 32t32 47.5t12 58t-12 58.5t-32 48t-47.5 32.5t-58.5 12
t-58 -12t-47.5 -32.5t-32.5 -48t-12 -58.5t12 -58t32.5 -47.5t47.5 -32t58 -11.5zM794 333q0 -32 -14 -61t-44 -51.5t-76.5 -35.5t-111.5 -13q-17 0 -34.5 0.5t-36.5 3.5q17 -42 55 -68.5t86 -26.5q66 0 108 45q4 7 9.5 15t9 16t3.5 16t-6 15q28 -27 40 -45.5t15 -30.5
t0 -19.5t-6 -13.5q-39 -45 -83.5 -63.5t-89.5 -18.5q-44 0 -82.5 14.5t-68.5 40.5v-2q0 -20 12.5 -34t30.5 -16h-76q-22 0 -36.5 15t-14.5 35v5q-30 -26 -67.5 -40.5t-82.5 -14.5q-48 0 -90.5 18.5t-74 50t-50 74t-18.5 90.5t18.5 91t50 74.5t74 50t90.5 18.5
q45 0 82.5 -14.5t67.5 -40.5v4q0 19 -12.5 34t-31.5 17h77q21 0 36 -15t15 -35v-8q32 26 73.5 41.5t90.5 15.5q41 0 78.5 -13t60.5 -43q2 -2 4 -3q9 -12 13 -21.5t5.5 -18t1.5 -16.5v-18z" />
    <glyph glyph-name="quotesingle" unicode="'" horiz-adv-x="186" 
d="M80 702q-1 1 -3 4l3 -4v0zM55 598q26 17 33.5 47t-8.5 57l71 -103q17 -30 11 -62q-8 -33 -33 -50q-14 -9 -22.5 -21.5t-12 -27.5t-1 -30.5t10.5 -29.5l-71 108q-17 29 -11 61q7 33 33 51z" />
    <glyph glyph-name="quotedbl" unicode="&#x22;" horiz-adv-x="379" 
d="M80 702q-1 1 -3 4l3 -4v0zM271 694q-1 1 -3 4l3 -4v0zM246 590q26 17 33.5 47t-8.5 57l71 -103q17 -30 11 -62q-8 -33 -33 -50q-14 -9 -22.5 -21.5t-12 -27.5t-1 -30.5t10.5 -29.5l-71 108q-17 29 -11 61q7 33 33 51zM55 598q26 17 33.5 47t-8.5 57l71 -103
q17 -30 11 -62q-8 -33 -33 -50q-14 -9 -22.5 -21.5t-12 -27.5t-1 -30.5t10.5 -29.5l-71 108q-17 29 -11 61q7 33 33 51z" />
    <glyph glyph-name="dieresis" unicode="&#xa8;" horiz-adv-x="483" 
d="M93 500q2 0 3 1zM320 500q2 0 3 1zM93 500q-1 -1 -3 -1l3 1v0zM90 499q-1 -1 -3 -1zM317 499q-1 -1 -3 -1zM320 500q-1 -1 -3 -1l3 1v0zM382 673q-1 -1 -3 -1zM155 673q-1 -1 -3 -1zM159 674q-1 -1 -4 -1l4 1v0zM386 674q-1 -1 -4 -1l4 1v0zM405 611q35 -17 41 -36
t-20 -30l-103 -44q21 12 12.5 30t-40.5 32q-34 15 -40.5 34.5t20.5 31.5l104 43q-23 -12 -16 -29.5t42 -31.5zM178 611q35 -17 41 -36t-20 -30l-103 -44q21 12 12.5 30t-40.5 32q-34 15 -40.5 34.5t20.5 31.5l104 43q-23 -12 -16 -29.5t42 -31.5z" />
    <glyph glyph-name="circumflex" unicode="&#x2c6;" horiz-adv-x="352" 
d="M146 461l-7.5 3l-7.5 3l15 -6v0zM233 467l-7.5 -3l-7.5 -3l15 6v0zM325 536q14 -14 5 -27.5t-37 -20.5l-60 -21q17 8 22 19t-6 23l-26 27l-42 42l-42 -42l-25 -27q-10 -12 -5 -23t22 -19l-60 21q-27 7 -36 20.5t4 27.5l25 27l97 94q7 7 7 13q0 9 -5.5 16t-10.5 10l20 -11
l13 -9.5t8 -6t6.5 -6t8.5 -9.5l90 -91l27 -27v0z" />
    <glyph glyph-name="ring" unicode="&#x2da;" horiz-adv-x="298" 
d="M185 610q-26 7 -31.5 18.5t10.5 20.5l-69 -35q-17 -10 -11.5 -22.5t28.5 -20.5q25 -8 31 -20t-10 -21l70 35q17 10 12 22.5t-30 22.5zM214 622q43 -21 50 -43.5t-25 -36.5l-129 -55q29 15 20 37.5t-50 39.5q-42 18 -49.5 42t25.5 38l126 52q-29 -14 -20 -35.5t52 -38.5z
" />
    <glyph glyph-name="Agrave" unicode="&#xc0;" horiz-adv-x="650" 
d="M490 437q0 37 -13.5 69t-37 55.5t-55.5 37t-69 13.5q-36 0 -68 -13.5t-56 -37t-37.5 -55.5t-13.5 -69v-87h350v87zM578 52q0 -20 13.5 -35t32.5 -17h-81q-22 0 -37.5 15.5t-15.5 36.5v210h-350v-210q0 -21 -14.5 -36.5t-37.5 -15.5h-82q20 2 33.5 17t13.5 35v385
q0 54 20.5 102t56.5 84t83.5 56.5t101.5 20.5q55 0 103 -20.5t83.5 -56.5t56 -84t20.5 -102v-385v0zM203 962q2 0 3 -0.5l3 -1.5l-6 2v0zM253 865q5 15 4 29.5t-7 27.5t-16.5 23t-24.5 15l120 -36q31 -12 45.5 -42t5.5 -60q-11 -29 2.5 -58t42.5 -41l-121 40
q-30 12 -44.5 41t-6.5 61z" />
    <glyph glyph-name="Aacute" unicode="&#xc1;" horiz-adv-x="650" 
d="M490 437q0 37 -13.5 69t-37 55.5t-55.5 37t-69 13.5q-36 0 -68 -13.5t-56 -37t-37.5 -55.5t-13.5 -69v-87h350v87zM578 52q0 -20 13.5 -35t32.5 -17h-81q-22 0 -37.5 15.5t-15.5 36.5v210h-350v-210q0 -21 -14.5 -36.5t-37.5 -15.5h-82q20 2 33.5 17t13.5 35v385
q0 54 20.5 102t56.5 84t83.5 56.5t101.5 20.5q55 0 103 -20.5t83.5 -56.5t56 -84t20.5 -102v-385v0zM430 958q-1 -1 -3 -1zM430 958q1 0 1.5 0.5t2.5 0.5zM378 865q5 -32 -11 -60.5t-47 -38.5l-127 -33q31 9 47.5 37.5t6.5 59.5q-6 31 10.5 59.5t48.5 39.5l121 28
q-29 -8 -43 -35.5t-6 -56.5z" />
    <glyph glyph-name="Acircumflex" unicode="&#xc2;" horiz-adv-x="650" 
d="M490 437q0 37 -13.5 69t-37 55.5t-55.5 37t-69 13.5q-36 0 -68 -13.5t-56 -37t-37.5 -55.5t-13.5 -69v-87h350v87zM578 52q0 -20 13.5 -35t32.5 -17h-81q-22 0 -37.5 15.5t-15.5 36.5v210h-350v-210q0 -21 -14.5 -36.5t-37.5 -15.5h-82q20 2 33.5 17t13.5 35v385
q0 54 20.5 102t56.5 84t83.5 56.5t101.5 20.5q55 0 103 -20.5t83.5 -56.5t56 -84t20.5 -102v-385v0zM275 735l-7.5 3l-7.5 3l15 -6v0zM362 741l-7.5 -3l-7.5 -3l15 6v0zM454 810q14 -14 5 -27.5t-37 -20.5l-60 -21q17 8 22 19t-6 23l-26 27l-42 42l-42 -42l-25 -27
q-10 -12 -5 -23t22 -19l-60 21q-27 7 -36 20.5t4 27.5l25 27l97 94q7 7 7 13q0 9 -5.5 16t-10.5 10l20 -11l13 -9.5t8 -6t6.5 -6t8.5 -9.5l90 -91l27 -27v0z" />
    <glyph glyph-name="Atilde" unicode="&#xc3;" horiz-adv-x="650" 
d="M490 437q0 37 -13.5 69t-37 55.5t-55.5 37t-69 13.5q-36 0 -68 -13.5t-56 -37t-37.5 -55.5t-13.5 -69v-87h350v87zM578 52q0 -20 13.5 -35t32.5 -17h-81q-22 0 -37.5 15.5t-15.5 36.5v210h-350v-210q0 -21 -14.5 -36.5t-37.5 -15.5h-82q20 2 33.5 17t13.5 35v385
q0 54 20.5 102t56.5 84t83.5 56.5t101.5 20.5q55 0 103 -20.5t83.5 -56.5t56 -84t20.5 -102v-385v0zM373 931q45 16 63 -5t18 -67l-21 -101q0 15 -2.5 32.5t-7.5 32t-14 24t-22 9.5l-133 -89q-23 -8 -39 -5t-25.5 14.5t-13.5 30t-4 41.5l20 100q0 -15 2.5 -32.5t8.5 -32.5
t15 -25t22 -10l133 83v0z" />
    <glyph glyph-name="Adieresis" unicode="&#xc4;" horiz-adv-x="650" 
d="M490 437q0 37 -13.5 69t-37 55.5t-55.5 37t-69 13.5q-36 0 -68 -13.5t-56 -37t-37.5 -55.5t-13.5 -69v-87h350v87zM578 52q0 -20 13.5 -35t32.5 -17h-81q-22 0 -37.5 15.5t-15.5 36.5v210h-350v-210q0 -21 -14.5 -36.5t-37.5 -15.5h-82q20 2 33.5 17t13.5 35v385
q0 54 20.5 102t56.5 84t83.5 56.5t101.5 20.5q55 0 103 -20.5t83.5 -56.5t56 -84t20.5 -102v-385v0zM172 793q2 0 3 1zM399 793q2 0 3 1zM172 793q-1 -1 -3 -1l3 1v0zM169 792q-1 -1 -3 -1zM396 792q-1 -1 -3 -1zM399 793q-1 -1 -3 -1l3 1v0zM461 966q-1 -1 -3 -1zM234 966
q-1 -1 -3 -1zM238 967q-1 -1 -4 -1l4 1v0zM465 967q-1 -1 -4 -1l4 1v0zM484 904q35 -17 41 -36t-20 -30l-103 -44q21 12 12.5 30t-40.5 32q-34 15 -40.5 34.5t20.5 31.5l104 43q-23 -12 -16 -29.5t42 -31.5zM257 904q35 -17 41 -36t-20 -30l-103 -44q21 12 12.5 30t-40.5 32
q-34 15 -40.5 34.5t20.5 31.5l104 43q-23 -12 -16 -29.5t42 -31.5z" />
    <glyph glyph-name="Aring" unicode="&#xc5;" horiz-adv-x="650" 
d="M357 800q-26 7 -31.5 18.5t10.5 20.5l-69 -35q-17 -10 -11.5 -22.5t28.5 -20.5q25 -8 31 -20t-10 -21l70 35q17 10 12 22.5t-30 22.5zM490 437q0 37 -13.5 69t-37 55.5t-55.5 37t-69 13.5q-36 0 -68 -13.5t-56 -37t-37.5 -55.5t-13.5 -69v-87h350v87zM386 812
q43 -21 50 -43.5t-25 -36.5l-77 -33q52 -3 96.5 -25t77.5 -57.5t51.5 -81.5t18.5 -98v-385q0 -20 13.5 -35t32.5 -17h-81q-22 0 -37.5 15.5t-15.5 36.5v210h-350v-210q0 -21 -14.5 -36.5t-37.5 -15.5h-82q20 2 33.5 17t13.5 35v385q0 53 19.5 100t53.5 82.5t79.5 57
t97.5 23.5q3 14 -10.5 28t-40.5 26q-42 18 -49.5 42t25.5 38l126 52q-29 -14 -20 -35.5t52 -38.5z" />
    <glyph glyph-name="tilde" unicode="&#x2dc;" horiz-adv-x="358" 
d="M246 662q45 16 63 -5t18 -67l-21 -101q0 15 -2.5 32.5t-7.5 32t-14 24t-22 9.5l-133 -89q-23 -8 -39 -5t-25.5 14.5t-13.5 30t-4 41.5l20 100q0 -15 2.5 -32.5t8.5 -32.5t15 -25t22 -10l133 83v0z" />
    <glyph glyph-name="agrave" unicode="&#xe0;" horiz-adv-x="547" 
d="M233 84q31 0 58.5 11.5t47.5 32t32 47.5t12 58t-12 58.5t-32 48t-47.5 32.5t-58.5 12t-58 -12t-47.5 -32.5t-32.5 -48t-12 -58.5t12 -58t32.5 -47.5t47.5 -32t58 -11.5zM467 50q0 -20 12.5 -34t30.5 -16h-76q-22 0 -36.5 15t-14.5 35v5q-30 -26 -67.5 -40.5t-82.5 -14.5
q-48 0 -90.5 18.5t-74 50t-50 74t-18.5 90.5t18.5 91t50 74.5t74 50t90.5 18.5q45 0 82.5 -14.5t67.5 -40.5v4q0 19 -12.5 34t-31.5 17h77q21 0 36 -15t15 -35v-367v0zM122 742q2 0 3 -0.5l3 -1.5l-6 2v0zM172 645q5 15 4 29.5t-7 27.5t-16.5 23t-24.5 15l120 -36
q31 -12 45.5 -42t5.5 -60q-11 -29 2.5 -58t42.5 -41l-121 40q-30 12 -44.5 41t-6.5 61z" />
    <glyph glyph-name="aacute" unicode="&#xe1;" horiz-adv-x="547" 
d="M233 84q31 0 58.5 11.5t47.5 32t32 47.5t12 58t-12 58.5t-32 48t-47.5 32.5t-58.5 12t-58 -12t-47.5 -32.5t-32.5 -48t-12 -58.5t12 -58t32.5 -47.5t47.5 -32t58 -11.5zM467 50q0 -20 12.5 -34t30.5 -16h-76q-22 0 -36.5 15t-14.5 35v5q-30 -26 -67.5 -40.5t-82.5 -14.5
q-48 0 -90.5 18.5t-74 50t-50 74t-18.5 90.5t18.5 91t50 74.5t74 50t90.5 18.5q45 0 82.5 -14.5t67.5 -40.5v4q0 19 -12.5 34t-31.5 17h77q21 0 36 -15t15 -35v-367v0zM351 728q-1 -1 -3 -1zM351 728q1 0 1.5 0.5t2.5 0.5zM299 635q5 -32 -11 -60.5t-47 -38.5l-127 -33
q31 9 47.5 37.5t6.5 59.5q-6 31 10.5 59.5t48.5 39.5l121 28q-29 -8 -43 -35.5t-6 -56.5z" />
    <glyph glyph-name="acircumflex" unicode="&#xe2;" horiz-adv-x="547" 
d="M233 84q31 0 58.5 11.5t47.5 32t32 47.5t12 58t-12 58.5t-32 48t-47.5 32.5t-58.5 12t-58 -12t-47.5 -32.5t-32.5 -48t-12 -58.5t12 -58t32.5 -47.5t47.5 -32t58 -11.5zM467 50q0 -20 12.5 -34t30.5 -16h-76q-22 0 -36.5 15t-14.5 35v5q-30 -26 -67.5 -40.5t-82.5 -14.5
q-48 0 -90.5 18.5t-74 50t-50 74t-18.5 90.5t18.5 91t50 74.5t74 50t90.5 18.5q45 0 82.5 -14.5t67.5 -40.5v4q0 19 -12.5 34t-31.5 17h77q21 0 36 -15t15 -35v-367v0zM194 498l-7.5 3l-7.5 3l15 -6v0zM281 504l-7.5 -3l-7.5 -3l15 6v0zM373 573q14 -14 5 -27.5t-37 -20.5
l-60 -21q17 8 22 19t-6 23l-26 27l-42 42l-42 -42l-25 -27q-10 -12 -5 -23t22 -19l-60 21q-27 7 -36 20.5t4 27.5l25 27l97 94q7 7 7 13q0 9 -5.5 16t-10.5 10l20 -11l13 -9.5t8 -6t6.5 -6t8.5 -9.5l90 -91l27 -27v0z" />
    <glyph glyph-name="atilde" unicode="&#xe3;" horiz-adv-x="547" 
d="M233 84q31 0 58.5 11.5t47.5 32t32 47.5t12 58t-12 58.5t-32 48t-47.5 32.5t-58.5 12t-58 -12t-47.5 -32.5t-32.5 -48t-12 -58.5t12 -58t32.5 -47.5t47.5 -32t58 -11.5zM467 50q0 -20 12.5 -34t30.5 -16h-76q-22 0 -36.5 15t-14.5 35v5q-30 -26 -67.5 -40.5t-82.5 -14.5
q-48 0 -90.5 18.5t-74 50t-50 74t-18.5 90.5t18.5 91t50 74.5t74 50t90.5 18.5q45 0 82.5 -14.5t67.5 -40.5v4q0 19 -12.5 34t-31.5 17h77q21 0 36 -15t15 -35v-367v0zM290 680q45 16 63 -5t18 -67l-21 -101q0 15 -2.5 32.5t-7.5 32t-14 24t-22 9.5l-133 -89q-23 -8 -39 -5
t-25.5 14.5t-13.5 30t-4 41.5l20 100q0 -15 2.5 -32.5t8.5 -32.5t15 -25t22 -10l133 83v0z" />
    <glyph glyph-name="adieresis" unicode="&#xe4;" horiz-adv-x="547" 
d="M233 84q31 0 58.5 11.5t47.5 32t32 47.5t12 58t-12 58.5t-32 48t-47.5 32.5t-58.5 12t-58 -12t-47.5 -32.5t-32.5 -48t-12 -58.5t12 -58t32.5 -47.5t47.5 -32t58 -11.5zM467 50q0 -20 12.5 -34t30.5 -16h-76q-22 0 -36.5 15t-14.5 35v5q-30 -26 -67.5 -40.5t-82.5 -14.5
q-48 0 -90.5 18.5t-74 50t-50 74t-18.5 90.5t18.5 91t50 74.5t74 50t90.5 18.5q45 0 82.5 -14.5t67.5 -40.5v4q0 19 -12.5 34t-31.5 17h77q21 0 36 -15t15 -35v-367v0zM89 500q2 0 3 1zM316 500q2 0 3 1zM89 500q-1 -1 -3 -1l3 1v0zM86 499q-1 -1 -3 -1zM313 499
q-1 -1 -3 -1zM316 500q-1 -1 -3 -1l3 1v0zM378 673q-1 -1 -3 -1zM151 673q-1 -1 -3 -1zM155 674q-1 -1 -4 -1l4 1v0zM382 674q-1 -1 -4 -1l4 1v0zM401 611q35 -17 41 -36t-20 -30l-103 -44q21 12 12.5 30t-40.5 32q-34 15 -40.5 34.5t20.5 31.5l104 43q-23 -12 -16 -29.5
t42 -31.5zM174 611q35 -17 41 -36t-20 -30l-103 -44q21 12 12.5 30t-40.5 32q-34 15 -40.5 34.5t20.5 31.5l104 43q-23 -12 -16 -29.5t42 -31.5z" />
    <glyph glyph-name="aring" unicode="&#xe5;" horiz-adv-x="547" 
d="M270 565q-26 7 -31.5 18.5t10.5 20.5l-69 -35q-17 -10 -11.5 -22.5t28.5 -20.5q25 -8 31 -20t-10 -21l70 35q17 10 12 22.5t-30 22.5zM233 84q31 0 58.5 11.5t47.5 32t32 47.5t12 58t-12 58.5t-32 48t-47.5 32.5t-58.5 12t-58 -12t-47.5 -32.5t-32.5 -48t-12 -58.5
t12 -58t32.5 -47.5t47.5 -32t58 -11.5zM299 577q43 -21 50 -43.5t-25 -36.5l-72 -31q75 -6 131 -54v4q0 19 -12.5 34t-31.5 17h77q21 0 36 -15t15 -35v-367q0 -20 12.5 -34t30.5 -16h-76q-22 0 -36.5 15t-14.5 35v5q-30 -26 -67.5 -40.5t-82.5 -14.5q-48 0 -90.5 18.5
t-74 50t-50 74t-18.5 90.5q0 46 17 87t46 72.5t68.5 51t84.5 22.5q2 14 -11.5 28t-39.5 25q-42 18 -49.5 42t25.5 38l126 52q-29 -14 -20 -35.5t52 -38.5z" />
    <glyph glyph-name="logicalnot" unicode="&#xac;" horiz-adv-x="748" 
d="M143 92q-6 2 -9 2q-5 0 -5 -6q0 -8 8 -8q1 0 14 8q-11 -12 -17 -12q-12 0 -12 11q0 3 5.5 7t9.5 4q3 0 11 -3l-5 -3v0zM280 90q0 6 -9 11h-2q-5 -7 -5 -10q0 -10 9 -10q1 0 2 1q5 5 5 8zM243 99q-1 1 -5 1q-3 -5 -3 -9q0 -11 8 -11t8 9q0 6 -6 11l-2 -1v0zM221 91
q0 7 -7 11h-4q-5 -5 -5 -10q0 -12 8 -12l1 1h1q6 4 6 10zM183 104q-5 0 -6 -7l-6 -3q2 14 15 14q6 0 6 -7q0 -4 -16 -20q1 1 3 1q5 0 14 -3l-7 -4q-8 2 -10 2q-1 0 -11 -5q0 1 3.5 5t7.5 8t7 8t3 7t-1 4h-2zM279 104q6 -5 6 -12q0 -15 -15 -15q-12 0 -12 12q0 9 9 13l-1 1
l6 4l2 -1q1 0 3 -1h3zM223 104q3 -5 3 -11q0 -9 -11 -15q-4 -2 -5 -2q-10 0 -10 14q0 15 15 16l2 1q1 0 1.5 -0.5t1.5 -0.5t1.5 -0.5t2.5 -0.5zM230 89q0 10 6 14h-1l6 4q15 -3 15 -17t-17 -14q-9 0 -9 13zM134 98q-2 1 -6 1q-12 0 -12 -10q0 -7 8.5 -13t17.5 -6q17 0 17 18
q0 20 -36 20h-7t-9 -1q10 5 19 5q13 0 26 -6t13 -17q0 -8 -9 -15.5t-18 -7.5q-8 0 -17.5 7t-9.5 14q0 16 21 16q5 0 8 -1l-6 -4v0zM579 672q-12 5 -19 5q-9 0 -9 -9q0 -5 3 -5q32 -5 32 -16q0 -7 -10 -14t-19 -7q-6 0 -9 3q7 6 9 6l2.5 -2t5.5 -2q11 0 11 10q0 12 -35 17
q0 24 29 24q10 0 19 -4q-2 -2 -5 -3t-5 -3zM249 636q-32 26 -32 45q0 8 8.5 15.5t18.5 7.5q7 0 7 -7q0 -11 -23 -16q13 7 13 9q0 8 -8 8q-7 0 -7 -10q0 -22 33 -46q-6 -5 -10 -6zM278 666l-4 -2t-5 -3l-5 20q0 18 24 20l1 -5q13 15 32 15q3 0 3 -15q0 -28 -25 -79
q-6 -4 -8 -5q23 54 23 80q0 13 -6 13q-14 0 -18 -16q-4 -3 -10 -5q-2 12 -3 12q-3 0 -3 -8q0 -10 4 -22zM444 664q0 3 -1.5 8.5t-1.5 7.5t9 5q4 -7 4 -17q0 -16 -11.5 -32t-29.5 -16q-14 0 -25 13t-11 25q0 13 11.5 24t26.5 11q14 0 14 -12q0 -13 -15 -17q6 7 6 12
q0 11 -15 11q-18 0 -18 -21q0 -28 24 -38q5 -1 9.5 -1.5t8.5 -0.5q15 19 15 38zM348 607q-4 -3 -10 -5q0 45 1.5 72.5t3.5 40.5q13 79 67 79q39 0 39 -28q0 -19 -22 -37q-24 -17 -44 -16l9 5q18 0 32.5 13.5t14.5 30.5q0 27 -38 27q-45 0 -52 -91l35 -3q-7 -5 -8 -5h-1
q-2 0 -8.5 0.5t-17.5 1.5q-1 -7 -1 -28v-57zM321 564q58 0 165 3q-5 14 -10 21h-1v0q0 1 1 1q-2 5 -5 8.5t-5 6.5l-28 -30l-1 -1q-7 -4 -7 -5q-18 7 -28 28q-11 -12 -15 -22l3 -4q-3 -3 -10 -5l-2 3l-2 -1l1 1q-23 24 -28 33l-17 -21.5t-11 -15.5zM639 690q-61 0 -101 3
q-4 -21 -5.5 -34.5t-1.5 -18.5q0 -57 107 -57h10t14 1h24q-6 -4 -9 -5h-72q-30 0 -55 13q-28 15 -28 40q0 6 2 21.5t6 40.5q-58 6 -58 23t24 17q8 0 13 -4q-6 -5 -9 -6q-8 5 -14 5h-2q-2 -4 -2 -7q0 -16 48 -22q3 19 3 36q0 7 -0.5 13t-1.5 11l10 6q1 -5 1.5 -10.5
t0.5 -12.5q0 -21 -4 -44l105 -3.5t75 -0.5l-8 -5h-72zM299 175h-31l-8 115h47zM473 612q2 -3 4.5 -6t4.5 -7q28 45 28 62q0 16 -8 16q-16 0 -19 -8q2 -10 2 -33q-3 -3 -10 -5q0 25 -1 30l-2 -2q1 2 1 3t1 2q-4 10 -7 14q6 4 9 5q3 -3 5 -9q14 8 28 8q10 0 10 -13
q0 -29 -34 -75q3 -6 6 -13t6 -15l-9 -6l-1 3q-14 -1 -27 -1.5t-25 -0.5l-12 -40.5t-9 -29.5l-9 -5q14 45 21 71l6 4q-32 -1 -60.5 -1.5t-51.5 -0.5q35 -26 70 -66l-17 61l9 5l23 -81q-1 0 -1 -1q-2 -2 0 -2q7 9 18 21l25 27q34 35 46 37q-51 -39 -85 -88q5 -5 9 -11t9 -11
q-2 -3 -10 -5l-14 18q-16 -21 -22 -23q5 7 9 13.5t9 12.5q-22 28 -44 49.5t-44 38.5l4 3l-5 -3l3 5h-1q23 40 43 50h-4l10 6q9 -1 37 -1.5t76 -0.5q-6 -4 -9 -5h-23h-56t-29 1l-3 -2l5 1l14 -17.5t11 -12.5q13 21 27 27l-2 -2l2 1q10 -21 26 -29q11 13 18 20t11 9l-2 3z
M634 432l-5 60h-126v-82h67v34h31v-98h-31v33h-99v144h191l2 -91h-30zM659 99q0 46 -78 46h-67v32h74q21 0 38 11t17 31q0 39 -61 39h-173l83 -202h2v-1h81q84 0 84 44zM438 107h-150l13 31h125l-49 120h-1v32h34v90h-150v112h-71v-234h-91v-202h360zM181 667q11 -20 11 -53
q0 -75 -35 -90h170v-32h-34v-81h150v-122h190l2 60h31v-91h-2q12 -14 12 -38q0 -41 -36 -57q53 -18 53 -68q0 -48 -53 -65q-17 -6 -38 -6h-536v265h91v203h-71l-3 -37h-31l5 69h98l-1 -1q2 0 3 1h-2q2 2 7 4q20 11 20 78q0 39 -10 56q-28 -5 -46 -5q-57 0 -57 38q0 39 53 68
q46 25 96 25q36 0 36 -21q0 -26 -43 -39q-7 -2 -22.5 -5.5t-40.5 -8.5q5 2 19.5 5l37.5 8q39 9 39 36q0 19 -37 19q-45 0 -84 -21q-45 -26 -45 -62q0 -37 59 -37q13 0 33 3l-17 25q6 4 9 5l19 -28v0z" />
    <glyph glyph-name="endash" unicode="&#x2013;" horiz-adv-x="653" 
d="M540 323q25 0 43 -17.5t18 -43.5v-80q-2 23 -20 38.5t-41 15.5h-430q-24 0 -41.5 15t-17.5 40v86q2 -23 19 -38.5t40 -15.5h430v0z" />
    <glyph glyph-name="emdash" unicode="&#x2014;" horiz-adv-x="851" 
d="M739 323q25 0 43 -17.5t18 -43.5v-80q-2 23 -20 38.5t-41 15.5h-629q-24 0 -41.5 15t-17.5 40v86q2 -23 19 -38.5t40 -15.5h629v0z" />
    <glyph glyph-name="quotesinglbase" unicode="&#x201a;" horiz-adv-x="186" 
d="M80 160q-1 1 -3 4l3 -4v0zM55 56q26 17 33.5 47t-8.5 57l71 -103q17 -30 11 -62q-8 -33 -33 -50q-14 -9 -22.5 -21.5t-12 -27.5t-1 -30.5t10.5 -29.5l-71 108q-17 29 -11 61q7 33 33 51z" />
    <glyph glyph-name="quotedblbase" unicode="&#x201e;" horiz-adv-x="379" 
d="M80 167q-1 1 -3 4l3 -4v0zM271 159q-1 1 -3 4l3 -4v0zM246 55q26 17 33.5 47t-8.5 57l71 -103q17 -30 11 -62q-8 -33 -33 -50q-14 -9 -22.5 -21.5t-12 -27.5t-1 -30.5t10.5 -29.5l-71 108q-17 29 -11 61q7 33 33 51zM55 63q26 17 33.5 47t-8.5 57l71 -103q17 -30 11 -62
q-8 -33 -33 -50q-14 -9 -22.5 -21.5t-12 -27.5t-1 -30.5t10.5 -29.5l-71 108q-17 29 -11 61q7 33 33 51z" />
    <glyph glyph-name="Egrave" unicode="&#xc8;" horiz-adv-x="580" 
d="M490 700q22 0 37 -15.5t15 -37.5v-81q-2 20 -17 33t-35 13h-333q-7 0 -12 -4.5t-5 -12.5v-175q0 -8 5 -13t12 -5h228q20 0 35 13t17 33v-180q-2 20 -17 33.5t-35 13.5h-228q-7 0 -12 -5t-5 -13v-192q0 -8 5 -13t12 -5h333q20 0 35 13t17 33v-81q0 -21 -15 -36.5
t-37 -15.5h-484q20 2 33 17t13 35v595q0 20 -13 35.5t-33 17.5h484v0zM168 983q2 0 3 -0.5l3 -1.5l-6 2v0zM218 886q5 15 4 29.5t-7 27.5t-16.5 23t-24.5 15l120 -36q31 -12 45.5 -42t5.5 -60q-11 -29 2.5 -58t42.5 -41l-121 40q-30 12 -44.5 41t-6.5 61z" />
    <glyph glyph-name="Eacute" unicode="&#xc9;" horiz-adv-x="580" 
d="M490 700q22 0 37 -15.5t15 -37.5v-81q-2 20 -17 33t-35 13h-333q-7 0 -12 -4.5t-5 -12.5v-175q0 -8 5 -13t12 -5h228q20 0 35 13t17 33v-180q-2 20 -17 33.5t-35 13.5h-228q-7 0 -12 -5t-5 -13v-192q0 -8 5 -13t12 -5h333q20 0 35 13t17 33v-81q0 -21 -15 -36.5
t-37 -15.5h-484q20 2 33 17t13 35v595q0 20 -13 35.5t-33 17.5h484v0zM411 975q-1 -1 -3 -1zM411 975q1 0 1.5 0.5t2.5 0.5zM359 882q5 -32 -11 -60.5t-47 -38.5l-127 -33q31 9 47.5 37.5t6.5 59.5q-6 31 10.5 59.5t48.5 39.5l121 28q-29 -8 -43 -35.5t-6 -56.5z" />
    <glyph glyph-name="Ecircumflex" unicode="&#xca;" horiz-adv-x="580" 
d="M490 700q22 0 37 -15.5t15 -37.5v-81q-2 20 -17 33t-35 13h-333q-7 0 -12 -4.5t-5 -12.5v-175q0 -8 5 -13t12 -5h228q20 0 35 13t17 33v-180q-2 20 -17 33.5t-35 13.5h-228q-7 0 -12 -5t-5 -13v-192q0 -8 5 -13t12 -5h333q20 0 35 13t17 33v-81q0 -21 -15 -36.5
t-37 -15.5h-484q20 2 33 17t13 35v595q0 20 -13 35.5t-33 17.5h484v0zM260 745l-7.5 3l-7.5 3l15 -6v0zM347 751l-7.5 -3l-7.5 -3l15 6v0zM439 820q14 -14 5 -27.5t-37 -20.5l-60 -21q17 8 22 19t-6 23l-26 27l-42 42l-42 -42l-25 -27q-10 -12 -5 -23t22 -19l-60 21
q-27 7 -36 20.5t4 27.5l25 27l97 94q7 7 7 13q0 9 -5.5 16t-10.5 10l20 -11l13 -9.5t8 -6t6.5 -6t8.5 -9.5l90 -91l27 -27v0z" />
    <glyph glyph-name="Edieresis" unicode="&#xcb;" horiz-adv-x="580" 
d="M490 700q22 0 37 -15.5t15 -37.5v-81q-2 20 -17 33t-35 13h-333q-7 0 -12 -4.5t-5 -12.5v-175q0 -8 5 -13t12 -5h228q20 0 35 13t17 33v-180q-2 20 -17 33.5t-35 13.5h-228q-7 0 -12 -5t-5 -13v-192q0 -8 5 -13t12 -5h333q20 0 35 13t17 33v-81q0 -21 -15 -36.5
t-37 -15.5h-484q20 2 33 17t13 35v595q0 20 -13 35.5t-33 17.5h484v0zM147 753q2 0 3 1zM374 753q2 0 3 1zM147 753q-1 -1 -3 -1l3 1v0zM144 752q-1 -1 -3 -1zM371 752q-1 -1 -3 -1zM374 753q-1 -1 -3 -1l3 1v0zM436 926q-1 -1 -3 -1zM209 926q-1 -1 -3 -1zM213 927
q-1 -1 -4 -1l4 1v0zM440 927q-1 -1 -4 -1l4 1v0zM459 864q35 -17 41 -36t-20 -30l-103 -44q21 12 12.5 30t-40.5 32q-34 15 -40.5 34.5t20.5 31.5l104 43q-23 -12 -16 -29.5t42 -31.5zM232 864q35 -17 41 -36t-20 -30l-103 -44q21 12 12.5 30t-40.5 32q-34 15 -40.5 34.5
t20.5 31.5l104 43q-23 -12 -16 -29.5t42 -31.5z" />
    <glyph glyph-name="Ydieresis" unicode="&#x178;" horiz-adv-x="748" 
d="M560 671q6 12 18 20.5t27 8.5h131q-20 -2 -45 -18.5t-60 -61.5l-215 -283v-284q0 -22 -15.5 -37.5t-36.5 -15.5h-82q20 2 33.5 17t13.5 36v286l-214 281q-35 45 -61 61.5t-46 18.5h132q15 0 27.5 -8.5t18.5 -20.5l186 -245l188 245v0zM227 751q2 0 3 1zM454 751q2 0 3 1z
M227 751q-1 -1 -3 -1l3 1v0zM224 750q-1 -1 -3 -1zM451 750q-1 -1 -3 -1zM454 751q-1 -1 -3 -1l3 1v0zM516 924q-1 -1 -3 -1zM289 924q-1 -1 -3 -1zM293 925q-1 -1 -4 -1l4 1v0zM520 925q-1 -1 -4 -1l4 1v0zM539 862q35 -17 41 -36t-20 -30l-103 -44q21 12 12.5 30t-40.5 32
q-34 15 -40.5 34.5t20.5 31.5l104 43q-23 -12 -16 -29.5t42 -31.5zM312 862q35 -17 41 -36t-20 -30l-103 -44q21 12 12.5 30t-40.5 32q-34 15 -40.5 34.5t20.5 31.5l104 43q-23 -12 -16 -29.5t42 -31.5z" />
    <glyph glyph-name="ydieresis" unicode="&#xff;" horiz-adv-x="549" 
d="M400 414q0 21 15 36t36 15h76q-18 -2 -30.5 -17t-12.5 -34v-416q0 -48 -18.5 -90.5t-50 -74t-74 -50t-90.5 -18.5h-100q-21 0 -36 14.5t-15 34.5v78q2 -19 16.5 -31.5t34.5 -12.5h100q31 0 58 12t47 32.5t32 47.5t12 58v47q-26 -22 -59.5 -34.5t-73.5 -12.5
q-48 0 -88 18.5t-68.5 50t-44 74t-15.5 91.5v182q0 19 -13 34t-32 17h78q21 0 35 -15t14 -36v-182q0 -31 9.5 -58.5t26.5 -47.5t42 -32t56 -12t56 12t42 32t26 47.5t9 58.5v182v0zM124 504q2 0 3 1zM351 504q2 0 3 1zM124 504q-1 -1 -3 -1l3 1v0zM121 503q-1 -1 -3 -1z
M348 503q-1 -1 -3 -1zM351 504q-1 -1 -3 -1l3 1v0zM413 677q-1 -1 -3 -1zM186 677q-1 -1 -3 -1zM190 678q-1 -1 -4 -1l4 1v0zM417 678q-1 -1 -4 -1l4 1v0zM436 615q35 -17 41 -36t-20 -30l-103 -44q21 12 12.5 30t-40.5 32q-34 15 -40.5 34.5t20.5 31.5l104 43
q-23 -12 -16 -29.5t42 -31.5zM209 615q35 -17 41 -36t-20 -30l-103 -44q21 12 12.5 30t-40.5 32q-34 15 -40.5 34.5t20.5 31.5l104 43q-23 -12 -16 -29.5t42 -31.5z" />
    <glyph glyph-name="dollar" unicode="$" horiz-adv-x="561" 
d="M321 88q25 0 47.5 9t39.5 24.5t26.5 36t9.5 44.5t-9.5 44.5t-26.5 35.5t-39.5 24t-47.5 9v-227zM199 612q-45 0 -75 -30t-30 -75t30 -75t75 -30h35v210h-35zM234 0h-55q-32 0 -70 12.5t-64.5 33.5t-33 49t26.5 60l80 37q-20 -10 -27.5 -30t0.5 -40q17 -16 39.5 -25.5
t48.5 -9.5h55v228h-35q-40 0 -75 15t-61.5 41.5t-41.5 61.5t-15 74q0 40 15 75t41.5 61t61.5 41.5t75 15.5h35v46q0 22 14.5 37.5t37.5 15.5h82q-20 -2 -33.5 -17.5t-13.5 -35.5v-46h37q45 0 80.5 -13.5t56 -35t23.5 -49.5t-18 -56l-79 -36q20 8 27 28t-1 40v-1
q-36 36 -89 36v-1h-37v-210h1q43 0 81.5 -16t67 -43t45 -63.5t16.5 -77.5q0 -42 -16.5 -79t-45 -64t-67 -43t-81.5 -16h-1v-47q0 -21 -15.5 -36.5t-36.5 -15.5h-81q20 2 33 17t13 35v47z" />
    <glyph glyph-name="oslash" unicode="&#xf8;" 
d="M232 84q31 0 58 11.5t47 31.5t32 47t12 58q0 32 -12.5 59.5t-33.5 48.5l-131 -254q7 -1 13.5 -1.5t14.5 -0.5zM261 379q-15 3 -29 3q-31 0 -58 -12t-47.5 -32.5t-32.5 -47.5t-12 -58q0 -32 12.5 -59.5t33.5 -47.5l133 254v0zM232 464q17 0 34 -2.5t34 -7.5l26 52
q7 25 37 25h114q-20 -3 -42 -19.5t-45 -63.5l-16 -33q42 -32 66 -79t24 -104q0 -48 -18 -90.5t-49.5 -74t-74 -49.5t-90.5 -18q-36 0 -67 9l-25 -43q-4 -9 -14.5 -18.5t-25.5 -10.5h-116q20 2 39 17t42 53v2l24 40q-42 32 -65.5 79t-23.5 104q0 48 18 90.5t49.5 74t74 49.5
t90.5 18z" />
    <glyph glyph-name="Oslash" unicode="&#xd8;" horiz-adv-x="661" 
d="M317 87q55 0 97 20.5t71 56t44 83.5t15 103q0 62 -19 114.5t-56 88.5l-233 -453q35 -13 81 -13zM398 598q-37 14 -81 14q-55 0 -97.5 -20.5t-71.5 -56t-44 -83t-15 -102.5q0 -63 18.5 -115.5t55.5 -88.5l235 452v0zM317 700q33 0 63.5 -6.5t58.5 -17.5q7 25 37 25h114
q-18 -3 -38 -16.5t-41 -51.5q58 -48 89.5 -121.5t31.5 -161.5q0 -72 -22 -136t-63 -111.5t-99.5 -75t-130.5 -27.5q-66 0 -121 23q-5 -8 -14.5 -14.5t-21.5 -7.5h-114q17 1 35.5 15t41.5 51q-58 48 -89.5 121.5t-31.5 161.5q0 72 22 136t63 111.5t99.5 75t130.5 27.5z" />
    <glyph glyph-name="paragraph" unicode="&#xb6;" horiz-adv-x="519" 
d="M326 0q0 -18 11.5 -32.5t31.5 -16.5h-68q-23 0 -25.5 15t-2.5 34v233q-10 -2 -20 -2h-19q-48 0 -91 18t-74.5 49.5t-50 74t-18.5 92.5q0 49 18.5 91.5t50 74.5t74.5 50.5t91 18.5q45 0 83 -14.5t69 -40.5v4h1l-1 1q0 17 -13 32.5t-32 17.5h78q21 0 36 -15t15 -35v-648
q0 -17 12.5 -32t30.5 -17h-77q-21 0 -35.5 14.5t-14.5 34.5v283q-27 -23 -60 -37v-248v0z" />
    <glyph glyph-name="Igrave" unicode="&#xcc;" horiz-adv-x="302" 
d="M210 700q22 0 37.5 -15.5t15.5 -37.5v-81q-2 20 -17.5 33t-35.5 13h-35v-525h35q20 0 35.5 13t17.5 33v-81q0 -19 -12.5 -33t-30.5 -18v-1h-167q-22 0 -37.5 15.5t-15.5 36.5v81q2 -20 17 -33t36 -13h35v525h-35q-21 0 -36 -13t-17 -33v81q0 20 13 34t32 18q-2 0 -3 1
h168v0zM12 987q2 0 3 -0.5l3 -1.5l-6 2v0zM62 890q5 15 4 29.5t-7 27.5t-16.5 23t-24.5 15l120 -36q31 -12 45.5 -42t5.5 -60q-11 -29 2.5 -58t42.5 -41l-121 40q-30 12 -44.5 41t-6.5 61z" />
    <glyph glyph-name="Iacute" unicode="&#xcd;" horiz-adv-x="302" 
d="M210 700q22 0 37.5 -15.5t15.5 -37.5v-81q-2 20 -17.5 33t-35.5 13h-35v-525h35q20 0 35.5 13t17.5 33v-81q0 -19 -12.5 -33t-30.5 -18v-1h-167q-22 0 -37.5 15.5t-15.5 36.5v81q2 -20 17 -33t36 -13h35v525h-35q-21 0 -36 -13t-17 -33v81q0 20 13 34t32 18q-2 0 -3 1
h168v0zM248 974q-1 -1 -3 -1zM248 974q1 0 1.5 0.5t2.5 0.5zM196 881q5 -32 -11 -60.5t-47 -38.5l-127 -33q31 9 47.5 37.5t6.5 59.5q-6 31 10.5 59.5t48.5 39.5l121 28q-29 -8 -43 -35.5t-6 -56.5z" />
    <glyph glyph-name="Icircumflex" unicode="&#xce;" horiz-adv-x="302" 
d="M210 700q22 0 37.5 -15.5t15.5 -37.5v-81q-2 20 -17.5 33t-35.5 13h-35v-525h35q20 0 35.5 13t17.5 33v-81q0 -19 -12.5 -33t-30.5 -18v-1h-167q-22 0 -37.5 15.5t-15.5 36.5v81q2 -20 17 -33t36 -13h35v525h-35q-21 0 -36 -13t-17 -33v81q0 20 13 34t32 18q-2 0 -3 1
h168v0zM94 745l-7.5 3l-7.5 3l15 -6v0zM181 751l-7.5 -3l-7.5 -3l15 6v0zM273 820q14 -14 5 -27.5t-37 -20.5l-60 -21q17 8 22 19t-6 23l-26 27l-42 42l-42 -42l-25 -27q-10 -12 -5 -23t22 -19l-60 21q-27 7 -36 20.5t4 27.5l25 27l97 94q7 7 7 13q0 9 -5.5 16t-10.5 10
l20 -11l13 -9.5t8 -6t6.5 -6t8.5 -9.5l90 -91l27 -27v0z" />
    <glyph glyph-name="Idieresis" unicode="&#xcf;" horiz-adv-x="302" 
d="M210 700q22 0 37.5 -15.5t15.5 -37.5v-81q-2 20 -17.5 33t-35.5 13h-35v-525h35q20 0 35.5 13t17.5 33v-81q0 -19 -12.5 -33t-30.5 -18v-1h-167q-22 0 -37.5 15.5t-15.5 36.5v81q2 -20 17 -33t36 -13h35v525h-35q-21 0 -36 -13t-17 -33v81q0 20 13 34t32 18q-2 0 -3 1
h168v0zM-3 753q2 0 3 1zM224 753q2 0 3 1zM-3 753q-1 -1 -3 -1l3 1v0zM-6 752q-1 -1 -3 -1zM221 752q-1 -1 -3 -1zM224 753q-1 -1 -3 -1l3 1v0zM286 926q-1 -1 -3 -1zM59 926q-1 -1 -3 -1zM63 927q-1 -1 -4 -1l4 1v0zM290 927q-1 -1 -4 -1l4 1v0zM309 864q35 -17 41 -36
t-20 -30l-103 -44q21 12 12.5 30t-40.5 32q-34 15 -40.5 34.5t20.5 31.5l104 43q-23 -12 -16 -29.5t42 -31.5zM82 864q35 -17 41 -36t-20 -30l-103 -44q21 12 12.5 30t-40.5 32q-34 15 -40.5 34.5t20.5 31.5l104 43q-23 -12 -16 -29.5t42 -31.5z" />
    <glyph glyph-name="Ntilde" unicode="&#xd1;" horiz-adv-x="680" 
d="M508 647q0 22 15.5 37.5t36.5 15.5h81q-20 -2 -33 -17.5t-13 -35.5v-595q0 -20 13 -35t33 -17h-81q-15 0 -26.5 7.5t-18.5 20.5l-375 490v-466q0 -21 -14.5 -36.5t-37.5 -15.5h-82q20 2 33.5 17t13.5 35v595q0 20 -13.5 35.5t-33.5 17.5h82q17 0 30 -9t19 -23l371 -487
v466v0zM397 934q45 16 63 -5t18 -67l-21 -101q0 15 -2.5 32.5t-7.5 32t-14 24t-22 9.5l-133 -89q-23 -8 -39 -5t-25.5 14.5t-13.5 30t-4 41.5l20 100q0 -15 2.5 -32.5t8.5 -32.5t15 -25t22 -10l133 83v0z" />
    <glyph glyph-name="ntilde" unicode="&#xf1;" horiz-adv-x="604" 
d="M522 51q0 -20 12.5 -34.5t30.5 -16.5h-77q-21 0 -35.5 15t-14.5 36v183q0 31 -12 58t-32 47.5t-47.5 32.5t-58.5 12t-58.5 -12t-48 -32.5t-32.5 -47.5t-12 -58v-185q0 -19 13 -33t32 -16h-78q-20 0 -35 14.5t-15 34.5v369q0 18 -12.5 32.5t-31.5 16.5h78q21 0 35 -14.5
t14 -34.5v-6q32 26 70 40.5t81 14.5q48 0 91 -18.5t74.5 -50t50 -74t18.5 -90.5v-183v0zM351 691q45 16 63 -5t18 -67l-21 -101q0 15 -2.5 32.5t-7.5 32t-14 24t-22 9.5l-133 -89q-23 -8 -39 -5t-25.5 14.5t-13.5 30t-4 41.5l20 100q0 -15 2.5 -32.5t8.5 -32.5t15 -25
t22 -10l133 83v0z" />
    <glyph glyph-name="Ograve" unicode="&#xd2;" horiz-adv-x="661" 
d="M279 319q-14 17 -14 37t14 37l58 57q-12 -15 -11 -35t16 -34q15 -15 15 -37q0 -21 -15 -37l-59 -58q13 16 11.5 35.5t-15.5 34.5zM317 87q55 0 97 20.5t71 56t44 83.5t15 103t-15 102.5t-44 83t-71 56t-97 20.5t-97.5 -20.5t-71.5 -56t-44 -83t-15 -102.5t15 -103
t44 -83.5t71.5 -56t97.5 -20.5zM317 700q72 0 130.5 -27.5t99.5 -75t63 -111.5t22 -136t-22 -136t-63 -111.5t-99.5 -75t-130.5 -27.5t-130.5 27.5t-99.5 75t-63 111.5t-22 136t22 136t63 111.5t99.5 75t130.5 27.5zM203 989q2 0 3 -0.5l3 -1.5l-6 2v0zM253 892q5 15 4 29.5
t-7 27.5t-16.5 23t-24.5 15l120 -36q31 -12 45.5 -42t5.5 -60q-11 -29 2.5 -58t42.5 -41l-121 40q-30 12 -44.5 41t-6.5 61z" />
    <glyph glyph-name="Oacute" unicode="&#xd3;" horiz-adv-x="661" 
d="M279 319q-14 17 -14 37t14 37l58 57q-12 -15 -11 -35t16 -34q15 -15 15 -37q0 -21 -15 -37l-59 -58q13 16 11.5 35.5t-15.5 34.5zM317 87q55 0 97 20.5t71 56t44 83.5t15 103t-15 102.5t-44 83t-71 56t-97 20.5t-97.5 -20.5t-71.5 -56t-44 -83t-15 -102.5t15 -103
t44 -83.5t71.5 -56t97.5 -20.5zM317 700q72 0 130.5 -27.5t99.5 -75t63 -111.5t22 -136t-22 -136t-63 -111.5t-99.5 -75t-130.5 -27.5t-130.5 27.5t-99.5 75t-63 111.5t-22 136t22 136t63 111.5t99.5 75t130.5 27.5zM434 977q-1 -1 -3 -1zM434 977q1 0 1.5 0.5t2.5 0.5z
M382 884q5 -32 -11 -60.5t-47 -38.5l-127 -33q31 9 47.5 37.5t6.5 59.5q-6 31 10.5 59.5t48.5 39.5l121 28q-29 -8 -43 -35.5t-6 -56.5z" />
    <glyph glyph-name="Ocircumflex" unicode="&#xd4;" horiz-adv-x="661" 
d="M279 319q-14 17 -14 37t14 37l58 57q-12 -15 -11 -35t16 -34q15 -15 15 -37q0 -21 -15 -37l-59 -58q13 16 11.5 35.5t-15.5 34.5zM317 87q55 0 97 20.5t71 56t44 83.5t15 103t-15 102.5t-44 83t-71 56t-97 20.5t-97.5 -20.5t-71.5 -56t-44 -83t-15 -102.5t15 -103
t44 -83.5t71.5 -56t97.5 -20.5zM317 700q72 0 130.5 -27.5t99.5 -75t63 -111.5t22 -136t-22 -136t-63 -111.5t-99.5 -75t-130.5 -27.5t-130.5 27.5t-99.5 75t-63 111.5t-22 136t22 136t63 111.5t99.5 75t130.5 27.5zM280 750l-7.5 3l-7.5 3l15 -6v0zM367 756l-7.5 -3
l-7.5 -3l15 6v0zM459 825q14 -14 5 -27.5t-37 -20.5l-60 -21q17 8 22 19t-6 23l-26 27l-42 42l-42 -42l-25 -27q-10 -12 -5 -23t22 -19l-60 21q-27 7 -36 20.5t4 27.5l25 27l97 94q7 7 7 13q0 9 -5.5 16t-10.5 10l20 -11l13 -9.5t8 -6t6.5 -6t8.5 -9.5l90 -91l27 -27v0z" />
    <glyph glyph-name="Otilde" unicode="&#xd5;" horiz-adv-x="661" 
d="M279 319q-14 17 -14 37t14 37l58 57q-12 -15 -11 -35t16 -34q15 -15 15 -37q0 -21 -15 -37l-59 -58q13 16 11.5 35.5t-15.5 34.5zM317 87q55 0 97 20.5t71 56t44 83.5t15 103t-15 102.5t-44 83t-71 56t-97 20.5t-97.5 -20.5t-71.5 -56t-44 -83t-15 -102.5t15 -103
t44 -83.5t71.5 -56t97.5 -20.5zM317 700q72 0 130.5 -27.5t99.5 -75t63 -111.5t22 -136t-22 -136t-63 -111.5t-99.5 -75t-130.5 -27.5t-130.5 27.5t-99.5 75t-63 111.5t-22 136t22 136t63 111.5t99.5 75t130.5 27.5zM377 928q45 16 63 -5t18 -67l-21 -101q0 15 -2.5 32.5
t-7.5 32t-14 24t-22 9.5l-133 -89q-23 -8 -39 -5t-25.5 14.5t-13.5 30t-4 41.5l20 100q0 -15 2.5 -32.5t8.5 -32.5t15 -25t22 -10l133 83v0z" />
    <glyph glyph-name="Odieresis" unicode="&#xd6;" horiz-adv-x="661" 
d="M279 319q-14 17 -14 37t14 37l58 57q-12 -15 -11 -35t16 -34q15 -15 15 -37q0 -21 -15 -37l-59 -58q13 16 11.5 35.5t-15.5 34.5zM317 87q55 0 97 20.5t71 56t44 83.5t15 103t-15 102.5t-44 83t-71 56t-97 20.5t-97.5 -20.5t-71.5 -56t-44 -83t-15 -102.5t15 -103
t44 -83.5t71.5 -56t97.5 -20.5zM317 700q72 0 130.5 -27.5t99.5 -75t63 -111.5t22 -136t-22 -136t-63 -111.5t-99.5 -75t-130.5 -27.5t-130.5 27.5t-99.5 75t-63 111.5t-22 136t22 136t63 111.5t99.5 75t130.5 27.5zM175 750q2 0 3 1zM402 750q2 0 3 1zM175 750q-1 -1 -3 -1
l3 1v0zM172 749q-1 -1 -3 -1zM399 749q-1 -1 -3 -1zM402 750q-1 -1 -3 -1l3 1v0zM464 923q-1 -1 -3 -1zM237 923q-1 -1 -3 -1zM241 924q-1 -1 -4 -1l4 1v0zM468 924q-1 -1 -4 -1l4 1v0zM487 861q35 -17 41 -36t-20 -30l-103 -44q21 12 12.5 30t-40.5 32q-34 15 -40.5 34.5
t20.5 31.5l104 43q-23 -12 -16 -29.5t42 -31.5zM260 861q35 -17 41 -36t-20 -30l-103 -44q21 12 12.5 30t-40.5 32q-34 15 -40.5 34.5t20.5 31.5l104 43q-23 -12 -16 -29.5t42 -31.5z" />
    <glyph glyph-name="Ugrave" unicode="&#xd9;" horiz-adv-x="649" 
d="M490 647q0 22 15.5 37.5t36.5 15.5h81q-20 -2 -33 -17.5t-13 -35.5v-385q0 -54 -20.5 -101.5t-56 -83.5t-83 -56.5t-102.5 -20.5t-103 20.5t-83.5 56.5t-56 83.5t-20.5 101.5v385q0 20 -13 35.5t-33 17.5h81q22 0 37.5 -15.5t15.5 -37.5v-385q0 -36 13.5 -68t37.5 -56
t56 -37.5t68 -13.5t68 13.5t56 37.5t37.5 56t13.5 68v385v0zM201 984q2 0 3 -0.5l3 -1.5l-6 2v0zM251 887q5 15 4 29.5t-7 27.5t-16.5 23t-24.5 15l120 -36q31 -12 45.5 -42t5.5 -60q-11 -29 2.5 -58t42.5 -41l-121 40q-30 12 -44.5 41t-6.5 61z" />
    <glyph glyph-name="Uacute" unicode="&#xda;" horiz-adv-x="649" 
d="M490 647q0 22 15.5 37.5t36.5 15.5h81q-20 -2 -33 -17.5t-13 -35.5v-385q0 -54 -20.5 -101.5t-56 -83.5t-83 -56.5t-102.5 -20.5t-103 20.5t-83.5 56.5t-56 83.5t-20.5 101.5v385q0 20 -13 35.5t-33 17.5h81q22 0 37.5 -15.5t15.5 -37.5v-385q0 -36 13.5 -68t37.5 -56
t56 -37.5t68 -13.5t68 13.5t56 37.5t37.5 56t13.5 68v385v0zM431 974q-1 -1 -3 -1zM431 974q1 0 1.5 0.5t2.5 0.5zM379 881q5 -32 -11 -60.5t-47 -38.5l-127 -33q31 9 47.5 37.5t6.5 59.5q-6 31 10.5 59.5t48.5 39.5l121 28q-29 -8 -43 -35.5t-6 -56.5z" />
    <glyph glyph-name="Ucircumflex" unicode="&#xdb;" horiz-adv-x="649" 
d="M490 647q0 22 15.5 37.5t36.5 15.5h81q-20 -2 -33 -17.5t-13 -35.5v-385q0 -54 -20.5 -101.5t-56 -83.5t-83 -56.5t-102.5 -20.5t-103 20.5t-83.5 56.5t-56 83.5t-20.5 101.5v385q0 20 -13 35.5t-33 17.5h81q22 0 37.5 -15.5t15.5 -37.5v-385q0 -36 13.5 -68t37.5 -56
t56 -37.5t68 -13.5t68 13.5t56 37.5t37.5 56t13.5 68v385v0zM277 755l-7.5 3l-7.5 3l15 -6v0zM364 761l-7.5 -3l-7.5 -3l15 6v0zM456 830q14 -14 5 -27.5t-37 -20.5l-60 -21q17 8 22 19t-6 23l-26 27l-42 42l-42 -42l-25 -27q-10 -12 -5 -23t22 -19l-60 21q-27 7 -36 20.5
t4 27.5l25 27l97 94q7 7 7 13q0 9 -5.5 16t-10.5 10l20 -11l13 -9.5t8 -6t6.5 -6t8.5 -9.5l90 -91l27 -27v0z" />
    <glyph glyph-name="Udieresis" unicode="&#xdc;" horiz-adv-x="649" 
d="M490 647q0 22 15.5 37.5t36.5 15.5h81q-20 -2 -33 -17.5t-13 -35.5v-385q0 -54 -20.5 -101.5t-56 -83.5t-83 -56.5t-102.5 -20.5t-103 20.5t-83.5 56.5t-56 83.5t-20.5 101.5v385q0 20 -13 35.5t-33 17.5h81q22 0 37.5 -15.5t15.5 -37.5v-385q0 -36 13.5 -68t37.5 -56
t56 -37.5t68 -13.5t68 13.5t56 37.5t37.5 56t13.5 68v385v0zM170 753q2 0 3 1zM397 753q2 0 3 1zM170 753q-1 -1 -3 -1l3 1v0zM167 752q-1 -1 -3 -1zM394 752q-1 -1 -3 -1zM397 753q-1 -1 -3 -1l3 1v0zM459 926q-1 -1 -3 -1zM232 926q-1 -1 -3 -1zM236 927q-1 -1 -4 -1l4 1
v0zM463 927q-1 -1 -4 -1l4 1v0zM482 864q35 -17 41 -36t-20 -30l-103 -44q21 12 12.5 30t-40.5 32q-34 15 -40.5 34.5t20.5 31.5l104 43q-23 -12 -16 -29.5t42 -31.5zM255 864q35 -17 41 -36t-20 -30l-103 -44q21 12 12.5 30t-40.5 32q-34 15 -40.5 34.5t20.5 31.5l104 43
q-23 -12 -16 -29.5t42 -31.5z" />
    <glyph glyph-name="ellipsis" unicode="&#x2026;" horiz-adv-x="780" 
d="M609 -5q-1 -1 -3 -1zM612 -4q-1 -1 -3 -1l3 1v0zM96 1q-1 -1 -3 -1l3 1v0zM612 -4q1 1 3 1zM355 -3q1 1 3 1zM355 -3q-1 -1 -3 -1l3 1v0zM352 -4q-1 -1 -3 -1zM90 -1q-1 -1 -3 -1zM674 169q-1 -1 -3 -1zM155 173q-1 -1 -3 -1zM417 170q-1 -1 -3 -1zM93 0q-1 -1 -3 -1l3 1
v0zM678 170q-1 -1 -4 -1l4 1v0zM159 174q-1 -1 -4 -1l4 1v0zM421 171q-1 -1 -4 -1l4 1v0zM697 107q35 -17 41 -36t-20 -30l-103 -44q21 12 12.5 30t-40.5 32q-34 15 -40.5 34.5t20.5 31.5l104 43q-23 -12 -16 -29.5t42 -31.5zM440 108q35 -17 41 -36t-20 -30l-103 -44
q21 12 12.5 30t-40.5 32q-34 15 -40.5 34.5t20.5 31.5l104 43q-23 -12 -16 -29.5t42 -31.5zM178 111q35 -17 41 -36t-20 -30l-103 -44q21 12 12.5 30t-40.5 32q-34 15 -40.5 34.5t20.5 31.5l104 43q-23 -12 -16 -29.5t42 -31.5z" />
    <glyph glyph-name="egrave" unicode="&#xe8;" horiz-adv-x="451" 
d="M319 333q0 12 -5.5 23.5t-17.5 19.5q-12 5 -29.5 7.5t-32.5 2.5q-42 0 -77 -21.5t-55 -56.5q-5 -10 -8.5 -24t-5.5 -26q18 -2 36 -3t34 -1q42 0 72 7t50 18.5t29.5 25.5t9.5 28zM410 336q0 -32 -14 -61t-44 -51.5t-76.5 -35.5t-111.5 -13q-17 0 -35 0.5t-37 3.5
q17 -42 55.5 -68.5t86.5 -26.5q66 0 108 45q4 7 9.5 15t9 16t3.5 16t-6 15q28 -27 40 -45.5t15 -30.5t0 -19.5t-6 -13.5q-39 -45 -83.5 -63.5t-89.5 -18.5q-49 0 -91.5 18.5t-74 50t-50 74t-18.5 91.5t18.5 91.5t51.5 74.5t78 50.5t99 18.5q41 0 78.5 -13t60.5 -43
q2 -2 4 -3q9 -12 13 -21.5t5.5 -18t1.5 -16.5v-18zM101 738q2 0 3 -0.5l3 -1.5l-6 2v0zM151 641q5 15 4 29.5t-7 27.5t-16.5 23t-24.5 15l120 -36q31 -12 45.5 -42t5.5 -60q-11 -29 2.5 -58t42.5 -41l-121 40q-30 12 -44.5 41t-6.5 61z" />
    <glyph glyph-name="eacute" unicode="&#xe9;" horiz-adv-x="451" 
d="M319 333q0 12 -5.5 23.5t-17.5 19.5q-12 5 -29.5 7.5t-32.5 2.5q-42 0 -77 -21.5t-55 -56.5q-5 -10 -8.5 -24t-5.5 -26q18 -2 36 -3t34 -1q42 0 72 7t50 18.5t29.5 25.5t9.5 28zM410 336q0 -32 -14 -61t-44 -51.5t-76.5 -35.5t-111.5 -13q-17 0 -35 0.5t-37 3.5
q17 -42 55.5 -68.5t86.5 -26.5q66 0 108 45q4 7 9.5 15t9 16t3.5 16t-6 15q28 -27 40 -45.5t15 -30.5t0 -19.5t-6 -13.5q-39 -45 -83.5 -63.5t-89.5 -18.5q-49 0 -91.5 18.5t-74 50t-50 74t-18.5 91.5t18.5 91.5t51.5 74.5t78 50.5t99 18.5q41 0 78.5 -13t60.5 -43
q2 -2 4 -3q9 -12 13 -21.5t5.5 -18t1.5 -16.5v-18zM352 724q-1 -1 -3 -1zM352 724q1 0 1.5 0.5t2.5 0.5zM300 631q5 -32 -11 -60.5t-47 -38.5l-127 -33q31 9 47.5 37.5t6.5 59.5q-6 31 10.5 59.5t48.5 39.5l121 28q-29 -8 -43 -35.5t-6 -56.5z" />
    <glyph glyph-name="ecircumflex" unicode="&#xea;" horiz-adv-x="451" 
d="M319 333q0 12 -5.5 23.5t-17.5 19.5q-12 5 -29.5 7.5t-32.5 2.5q-42 0 -77 -21.5t-55 -56.5q-5 -10 -8.5 -24t-5.5 -26q18 -2 36 -3t34 -1q42 0 72 7t50 18.5t29.5 25.5t9.5 28zM410 336q0 -32 -14 -61t-44 -51.5t-76.5 -35.5t-111.5 -13q-17 0 -35 0.5t-37 3.5
q17 -42 55.5 -68.5t86.5 -26.5q66 0 108 45q4 7 9.5 15t9 16t3.5 16t-6 15q28 -27 40 -45.5t15 -30.5t0 -19.5t-6 -13.5q-39 -45 -83.5 -63.5t-89.5 -18.5q-49 0 -91.5 18.5t-74 50t-50 74t-18.5 91.5t18.5 91.5t51.5 74.5t78 50.5t99 18.5q41 0 78.5 -13t60.5 -43
q2 -2 4 -3q9 -12 13 -21.5t5.5 -18t1.5 -16.5v-18zM196 496l-7.5 3l-7.5 3l15 -6v0zM283 502l-7.5 -3l-7.5 -3l15 6v0zM375 571q14 -14 5 -27.5t-37 -20.5l-60 -21q17 8 22 19t-6 23l-26 27l-42 42l-42 -42l-25 -27q-10 -12 -5 -23t22 -19l-60 21q-27 7 -36 20.5t4 27.5
l25 27l97 94q7 7 7 13q0 9 -5.5 16t-10.5 10l20 -11l13 -9.5t8 -6t6.5 -6t8.5 -9.5l90 -91l27 -27v0z" />
    <glyph glyph-name="edieresis" unicode="&#xeb;" horiz-adv-x="451" 
d="M319 333q0 12 -5.5 23.5t-17.5 19.5q-12 5 -29.5 7.5t-32.5 2.5q-42 0 -77 -21.5t-55 -56.5q-5 -10 -8.5 -24t-5.5 -26q18 -2 36 -3t34 -1q42 0 72 7t50 18.5t29.5 25.5t9.5 28zM410 336q0 -32 -14 -61t-44 -51.5t-76.5 -35.5t-111.5 -13q-17 0 -35 0.5t-37 3.5
q17 -42 55.5 -68.5t86.5 -26.5q66 0 108 45q4 7 9.5 15t9 16t3.5 16t-6 15q28 -27 40 -45.5t15 -30.5t0 -19.5t-6 -13.5q-39 -45 -83.5 -63.5t-89.5 -18.5q-49 0 -91.5 18.5t-74 50t-50 74t-18.5 91.5t18.5 91.5t51.5 74.5t78 50.5t99 18.5q41 0 78.5 -13t60.5 -43
q2 -2 4 -3q9 -12 13 -21.5t5.5 -18t1.5 -16.5v-18zM90 503q2 0 3 1zM317 503q2 0 3 1zM90 503q-1 -1 -3 -1l3 1v0zM87 502q-1 -1 -3 -1zM314 502q-1 -1 -3 -1zM317 503q-1 -1 -3 -1l3 1v0zM379 676q-1 -1 -3 -1zM152 676q-1 -1 -3 -1zM156 677q-1 -1 -4 -1l4 1v0zM383 677
q-1 -1 -4 -1l4 1v0zM402 614q35 -17 41 -36t-20 -30l-103 -44q21 12 12.5 30t-40.5 32q-34 15 -40.5 34.5t20.5 31.5l104 43q-23 -12 -16 -29.5t42 -31.5zM175 614q35 -17 41 -36t-20 -30l-103 -44q21 12 12.5 30t-40.5 32q-34 15 -40.5 34.5t20.5 31.5l104 43
q-23 -12 -16 -29.5t42 -31.5z" />
    <glyph glyph-name="cent" unicode="&#xa2;" horiz-adv-x="451" 
d="M191 496q-48 -14 -78 -54t-30 -91t30.5 -90.5t77.5 -53.5v289v0zM276 50q0 -18 11.5 -32.5t31.5 -16.5h-76q-23 0 -37.5 15t-14.5 34v71q-41 7 -76 28t-60.5 51t-40 68.5t-14.5 82.5q0 43 14.5 81.5t40 69.5t60.5 51.5t76 28.5v66q0 20 -12 34.5t-32 16.5h78
q21 0 36 -14.5t15 -36.5v-66q32 -6 60.5 -20.5t53.5 -34.5q20 -29 19.5 -48t-12.5 -31l-61 -58q14 14 15 34t-11 35q-14 13 -29.5 23t-34.5 15v-291q38 11 66 40q9 15 7 32t-15 31q28 -27 44 -45.5t23.5 -30.5t8 -20t-2.5 -14q-30 -34 -63 -52.5t-68 -25.5v-71v0z" />
    <glyph glyph-name="currency" unicode="&#xa4;" horiz-adv-x="737" 
d="M337 314q25 0 43 -17.5t18 -43.5v-80q-2 23 -20 38.5t-41 15.5h-132q32 -63 94 -101.5t139 -38.5q58 0 107 23t86 62q15 16 14 37t-17 36l63 -60q16 -15 17 -36.5t-14 -37.5h-1q-49 -52 -114 -81.5t-141 -29.5q-56 0 -107.5 17t-94 47t-75 71.5t-51.5 91.5h-49
q-24 0 -41.5 15t-17.5 40v86q2 -23 19 -38.5t40 -15.5h29q-1 9 -1.5 18t-0.5 18v15t1 15h-3q-24 0 -41.5 15t-17.5 40v86q2 -23 19 -38.5t40 -15.5h22q18 51 50.5 93.5t75.5 73.5t95 48.5t109 17.5q78 0 143.5 -29.5t114.5 -83.5q16 -16 15 -38t-17 -37l-63 -60
q16 15 16.5 36t-13.5 37h-1q-36 40 -86.5 63.5t-108.5 23.5q-39 0 -75 -10.5t-66.5 -29.5t-54.5 -46t-40 -59h160q25 0 43 -17.5t18 -43.5v-80q-2 23 -20 38.5t-41 15.5h-185q-1 -8 -1.5 -15t-0.5 -15q0 -10 0.5 -18.5t1.5 -17.5h160v0z" />
    <glyph glyph-name="plusminus" unicode="&#xb1;" horiz-adv-x="443" 
d="M338 178q25 0 43 -13t18 -39v-80q-2 23 -20 38.5t-41 15.5h-276q-24 0 -41.5 10.5t-17.5 35.5v86q2 -23 19 -38.5t40 -15.5h276v0zM370 480q18 0 31 13t15 30v-73q0 -19 -13 -32t-33 -13h-121v-138q0 -17 18 -30t37 -15h-86q-20 0 -33 13.5t-13 31.5v138h-122
q-17 0 -30 -12.5t-15 -30.5v73q0 20 13.5 32.5t33.5 12.5h120v122q0 18 -12.5 31.5t-29.5 15.5h73q19 0 32.5 -13.5t13.5 -33.5v-122h121v0z" />
    <glyph glyph-name="periodcentered" unicode="&#xb7;" horiz-adv-x="232" 
d="M93 260q2 0 3 1zM93 260q-1 -1 -3 -1l3 1v0zM155 433q-1 -1 -3 -1zM90 259q-1 -1 -3 -1zM159 434q-1 -1 -4 -1l4 1v0zM178 371q35 -17 41 -36t-20 -30l-103 -44q21 12 12.5 30t-40.5 32q-34 15 -40.5 34.5t20.5 31.5l104 43q-23 -12 -16 -29.5t42 -31.5z" />
    <glyph glyph-name="periodcentered" unicode="&#x22c5;" horiz-adv-x="232" 
d="M93 260q2 0 3 1zM93 260q-1 -1 -3 -1l3 1v0zM155 433q-1 -1 -3 -1zM90 259q-1 -1 -3 -1zM159 434q-1 -1 -4 -1l4 1v0zM178 371q35 -17 41 -36t-20 -30l-103 -44q21 12 12.5 30t-40.5 32q-34 15 -40.5 34.5t20.5 31.5l104 43q-23 -12 -16 -29.5t42 -31.5z" />
    <glyph glyph-name="dotaccent" unicode="&#x2d9;" horiz-adv-x="232" 
d="M93 509q2 0 3 1zM93 509q-1 -1 -3 -1l3 1v0zM155 682q-1 -1 -3 -1zM90 508q-1 -1 -3 -1zM159 683q-1 -1 -4 -1l4 1v0zM178 620q35 -17 41 -36t-20 -30l-103 -44q21 12 12.5 30t-40.5 32q-34 15 -40.5 34.5t20.5 31.5l104 43q-23 -12 -16 -29.5t42 -31.5z" />
    <glyph glyph-name="mu1" unicode="&#xb5;" horiz-adv-x="570" 
d="M489 48q0 -18 12 -32.5t32 -16.5h-76q-23 0 -37.5 14.5t-14.5 33.5q-27 -23 -61.5 -35t-74.5 -12q-78 0 -134 47v-126q0 -18 11.5 -32.5t31.5 -16.5h-76q-23 0 -37.5 15t-14.5 34l1 498q0 19 -13 34t-32 17h79q21 0 35 -15t14 -36l1 -203q5 -56 40 -93.5t94 -37.5
q31 0 56 12t42.5 32t26.5 47.5t9 58.5v184q0 21 15 36t36 15h77q-18 -2 -30.5 -17t-12.5 -34z" />
    <glyph glyph-name="mu1" unicode="&#x3bc;" horiz-adv-x="570" 
d="M489 48q0 -18 12 -32.5t32 -16.5h-76q-23 0 -37.5 14.5t-14.5 33.5q-27 -23 -61.5 -35t-74.5 -12q-78 0 -134 47v-126q0 -18 11.5 -32.5t31.5 -16.5h-76q-23 0 -37.5 15t-14.5 34l1 498q0 19 -13 34t-32 17h79q21 0 35 -15t14 -36l1 -203q5 -56 40 -93.5t94 -37.5
q31 0 56 12t42.5 32t26.5 47.5t9 58.5v184q0 21 15 36t36 15h77q-18 -2 -30.5 -17t-12.5 -34z" />
    <glyph glyph-name="igrave" unicode="&#xec;" horiz-adv-x="223" 
d="M136 49q0 -18 11.5 -32.5t31.5 -16.5h-76q-23 0 -37.5 15t-14.5 34v367q0 20 -12 34.5t-32 16.5h78q21 0 36 -14.5t15 -36.5v-367v0zM-22 744q2 0 3 -0.5l3 -1.5l-6 2v0zM28 647q5 15 4 29.5t-7 27.5t-16.5 23t-24.5 15l120 -36q31 -12 45.5 -42t5.5 -60q-11 -29 2.5 -58
t42.5 -41l-121 40q-30 12 -44.5 41t-6.5 61z" />
    <glyph glyph-name="iacute" unicode="&#xed;" horiz-adv-x="223" 
d="M136 49q0 -18 11.5 -32.5t31.5 -16.5h-76q-23 0 -37.5 15t-14.5 34v367q0 20 -12 34.5t-32 16.5h78q21 0 36 -14.5t15 -36.5v-367v0zM213 724q-1 -1 -3 -1zM213 724q1 0 1.5 0.5t2.5 0.5zM161 631q5 -32 -11 -60.5t-47 -38.5l-127 -33q31 9 47.5 37.5t6.5 59.5
q-6 31 10.5 59.5t48.5 39.5l121 28q-29 -8 -43 -35.5t-6 -56.5z" />
    <glyph glyph-name="icircumflex" unicode="&#xee;" horiz-adv-x="223" 
d="M136 49q0 -18 11.5 -32.5t31.5 -16.5h-76q-23 0 -37.5 15t-14.5 34v367q0 20 -12 34.5t-32 16.5h78q21 0 36 -14.5t15 -36.5v-367v0zM58 498l-7.5 3l-7.5 3l15 -6v0zM145 504l-7.5 -3l-7.5 -3l15 6v0zM237 573q14 -14 5 -27.5t-37 -20.5l-60 -21q17 8 22 19t-6 23l-26 27
l-42 42l-42 -42l-25 -27q-10 -12 -5 -23t22 -19l-60 21q-27 7 -36 20.5t4 27.5l25 27l97 94q7 7 7 13q0 9 -5.5 16t-10.5 10l20 -11l13 -9.5t8 -6t6.5 -6t8.5 -9.5l90 -91l27 -27v0z" />
    <glyph glyph-name="idieresis" unicode="&#xef;" horiz-adv-x="223" 
d="M136 49q0 -18 11.5 -32.5t31.5 -16.5h-76q-23 0 -37.5 15t-14.5 34v367q0 20 -12 34.5t-32 16.5h78q21 0 36 -14.5t15 -36.5v-367v0zM-50 498q2 0 3 1zM177 498q2 0 3 1zM-50 498q-1 -1 -3 -1l3 1v0zM-53 497q-1 -1 -3 -1zM174 497q-1 -1 -3 -1zM177 498q-1 -1 -3 -1l3 1
v0zM239 671q-1 -1 -3 -1zM12 671q-1 -1 -3 -1zM16 672q-1 -1 -4 -1l4 1v0zM243 672q-1 -1 -4 -1l4 1v0zM262 609q35 -17 41 -36t-20 -30l-103 -44q21 12 12.5 30t-40.5 32q-34 15 -40.5 34.5t20.5 31.5l104 43q-23 -12 -16 -29.5t42 -31.5zM35 609q35 -17 41 -36t-20 -30
l-103 -44q21 12 12.5 30t-40.5 32q-34 15 -40.5 34.5t20.5 31.5l104 43q-23 -12 -16 -29.5t42 -31.5z" />
    <glyph glyph-name="ograve" unicode="&#xf2;" 
d="M256 331q-15 -14 -15 -35q0 -20 15 -35q14 -14 14 -35q0 -19 -14 -35l-60 -58q15 13 15 34t-15 36q-14 16 -14 35t14 35l60 58v0zM232 84q31 0 58 11.5t47 31.5t32 47t12 58t-12 58t-32 47.5t-47 32.5t-58 12t-58 -12t-47.5 -32.5t-32.5 -47.5t-12 -58t12 -58t32.5 -47
t47.5 -31.5t58 -11.5zM232 464q48 0 90.5 -18t74 -49.5t49.5 -74t18 -90.5t-18 -90.5t-49.5 -74t-74 -49.5t-90.5 -18t-90.5 18t-74 49.5t-49.5 74t-18 90.5t18 90.5t49.5 74t74 49.5t90.5 18zM118 742q2 0 3 -0.5l3 -1.5l-6 2v0zM168 645q5 15 4 29.5t-7 27.5t-16.5 23
t-24.5 15l120 -36q31 -12 45.5 -42t5.5 -60q-11 -29 2.5 -58t42.5 -41l-121 40q-30 12 -44.5 41t-6.5 61z" />
    <glyph glyph-name="oacute" unicode="&#xf3;" 
d="M256 331q-15 -14 -15 -35q0 -20 15 -35q14 -14 14 -35q0 -19 -14 -35l-60 -58q15 13 15 34t-15 36q-14 16 -14 35t14 35l60 58v0zM232 84q31 0 58 11.5t47 31.5t32 47t12 58t-12 58t-32 47.5t-47 32.5t-58 12t-58 -12t-47.5 -32.5t-32.5 -47.5t-12 -58t12 -58t32.5 -47
t47.5 -31.5t58 -11.5zM232 464q48 0 90.5 -18t74 -49.5t49.5 -74t18 -90.5t-18 -90.5t-49.5 -74t-74 -49.5t-90.5 -18t-90.5 18t-74 49.5t-49.5 74t-18 90.5t18 90.5t49.5 74t74 49.5t90.5 18zM348 725q-1 -1 -3 -1zM348 725q1 0 1.5 0.5t2.5 0.5zM296 632q5 -32 -11 -60.5
t-47 -38.5l-127 -33q31 9 47.5 37.5t6.5 59.5q-6 31 10.5 59.5t48.5 39.5l121 28q-29 -8 -43 -35.5t-6 -56.5z" />
    <glyph glyph-name="ocircumflex" unicode="&#xf4;" 
d="M256 331q-15 -14 -15 -35q0 -20 15 -35q14 -14 14 -35q0 -19 -14 -35l-60 -58q15 13 15 34t-15 36q-14 16 -14 35t14 35l60 58v0zM232 84q31 0 58 11.5t47 31.5t32 47t12 58t-12 58t-32 47.5t-47 32.5t-58 12t-58 -12t-47.5 -32.5t-32.5 -47.5t-12 -58t12 -58t32.5 -47
t47.5 -31.5t58 -11.5zM232 464q48 0 90.5 -18t74 -49.5t49.5 -74t18 -90.5t-18 -90.5t-49.5 -74t-74 -49.5t-90.5 -18t-90.5 18t-74 49.5t-49.5 74t-18 90.5t18 90.5t49.5 74t74 49.5t90.5 18zM198 499l-7.5 3l-7.5 3l15 -6v0zM285 505l-7.5 -3l-7.5 -3l15 6v0zM377 574
q14 -14 5 -27.5t-37 -20.5l-60 -21q17 8 22 19t-6 23l-26 27l-42 42l-42 -42l-25 -27q-10 -12 -5 -23t22 -19l-60 21q-27 7 -36 20.5t4 27.5l25 27l97 94q7 7 7 13q0 9 -5.5 16t-10.5 10l20 -11l13 -9.5t8 -6t6.5 -6t8.5 -9.5l90 -91l27 -27v0z" />
    <glyph glyph-name="otilde" unicode="&#xf5;" 
d="M256 331q-15 -14 -15 -35q0 -20 15 -35q14 -14 14 -35q0 -19 -14 -35l-60 -58q15 13 15 34t-15 36q-14 16 -14 35t14 35l60 58v0zM232 84q31 0 58 11.5t47 31.5t32 47t12 58t-12 58t-32 47.5t-47 32.5t-58 12t-58 -12t-47.5 -32.5t-32.5 -47.5t-12 -58t12 -58t32.5 -47
t47.5 -31.5t58 -11.5zM232 464q48 0 90.5 -18t74 -49.5t49.5 -74t18 -90.5t-18 -90.5t-49.5 -74t-74 -49.5t-90.5 -18t-90.5 18t-74 49.5t-49.5 74t-18 90.5t18 90.5t49.5 74t74 49.5t90.5 18zM294 682q45 16 63 -5t18 -67l-21 -101q0 15 -2.5 32.5t-7.5 32t-14 24t-22 9.5
l-133 -89q-23 -8 -39 -5t-25.5 14.5t-13.5 30t-4 41.5l20 100q0 -15 2.5 -32.5t8.5 -32.5t15 -25t22 -10l133 83v0z" />
    <glyph glyph-name="odieresis" unicode="&#xf6;" 
d="M256 331q-15 -14 -15 -35q0 -20 15 -35q14 -14 14 -35q0 -19 -14 -35l-60 -58q15 13 15 34t-15 36q-14 16 -14 35t14 35l60 58v0zM232 84q31 0 58 11.5t47 31.5t32 47t12 58t-12 58t-32 47.5t-47 32.5t-58 12t-58 -12t-47.5 -32.5t-32.5 -47.5t-12 -58t12 -58t32.5 -47
t47.5 -31.5t58 -11.5zM232 464q48 0 90.5 -18t74 -49.5t49.5 -74t18 -90.5t-18 -90.5t-49.5 -74t-74 -49.5t-90.5 -18t-90.5 18t-74 49.5t-49.5 74t-18 90.5t18 90.5t49.5 74t74 49.5t90.5 18zM89 503q2 0 3 1zM316 503q2 0 3 1zM89 503q-1 -1 -3 -1l3 1v0zM86 502
q-1 -1 -3 -1zM313 502q-1 -1 -3 -1zM316 503q-1 -1 -3 -1l3 1v0zM378 676q-1 -1 -3 -1zM151 676q-1 -1 -3 -1zM155 677q-1 -1 -4 -1l4 1v0zM382 677q-1 -1 -4 -1l4 1v0zM401 614q35 -17 41 -36t-20 -30l-103 -44q21 12 12.5 30t-40.5 32q-34 15 -40.5 34.5t20.5 31.5l104 43
q-23 -12 -16 -29.5t42 -31.5zM174 614q35 -17 41 -36t-20 -30l-103 -44q21 12 12.5 30t-40.5 32q-34 15 -40.5 34.5t20.5 31.5l104 43q-23 -12 -16 -29.5t42 -31.5z" />
    <glyph glyph-name="yen" unicode="&#xa5;" horiz-adv-x="748" 
d="M487 176q23 0 39.5 -16t16.5 -39v-86q-2 21 -18.5 35.5t-37.5 14.5h-71v-32q0 -22 -15.5 -37.5t-36.5 -15.5h-82q20 2 33.5 17t13.5 36v32h-82q-22 0 -38 16t-16 39v83q2 -20 17.5 -33.5t36.5 -13.5h82v78h-82q-22 0 -38 6.5t-16 29.5v68q2 -20 17.5 -33.5t36.5 -13.5h82
v28l-214 281q-35 45 -61 61.5t-46 18.5h132q15 0 27.5 -8.5t18.5 -20.5l186 -245l188 245q6 12 18 20.5t27 8.5h131q-20 -2 -45 -18.5t-60 -61.5l-215 -283v-26h71q23 0 39.5 -8.5t16.5 -31.5v-67q-2 22 -18.5 36t-37.5 14h-71v-78h71v0z" />
    <glyph glyph-name="ugrave" unicode="&#xf9;" horiz-adv-x="570" 
d="M403 419q0 21 15 36t36 15h77q-18 -2 -30.5 -17t-12.5 -34v-184q0 -49 -16 -91.5t-45 -74.5t-69 -50.5t-89 -18.5q-48 0 -88.5 18.5t-69 50.5t-44.5 74.5t-16 91.5v184q0 19 -13 34t-32 17h79q21 0 35 -15t14 -36v-184q0 -31 9.5 -58.5t26.5 -47.5t42 -32t57 -12
q31 0 56 12t42.5 32t26.5 47.5t9 58.5v184v0zM157 745q2 0 3 -0.5l3 -1.5l-6 2v0zM207 648q5 15 4 29.5t-7 27.5t-16.5 23t-24.5 15l120 -36q31 -12 45.5 -42t5.5 -60q-11 -29 2.5 -58t42.5 -41l-121 40q-30 12 -44.5 41t-6.5 61z" />
    <glyph glyph-name="uacute" unicode="&#xfa;" horiz-adv-x="570" 
d="M403 419q0 21 15 36t36 15h77q-18 -2 -30.5 -17t-12.5 -34v-184q0 -49 -16 -91.5t-45 -74.5t-69 -50.5t-89 -18.5q-48 0 -88.5 18.5t-69 50.5t-44.5 74.5t-16 91.5v184q0 19 -13 34t-32 17h79q21 0 35 -15t14 -36v-184q0 -31 9.5 -58.5t26.5 -47.5t42 -32t57 -12
q31 0 56 12t42.5 32t26.5 47.5t9 58.5v184v0zM385 730q-1 -1 -3 -1zM385 730q1 0 1.5 0.5t2.5 0.5zM333 637q5 -32 -11 -60.5t-47 -38.5l-127 -33q31 9 47.5 37.5t6.5 59.5q-6 31 10.5 59.5t48.5 39.5l121 28q-29 -8 -43 -35.5t-6 -56.5z" />
    <glyph glyph-name="ucircumflex" unicode="&#xfb;" horiz-adv-x="570" 
d="M403 419q0 21 15 36t36 15h77q-18 -2 -30.5 -17t-12.5 -34v-184q0 -49 -16 -91.5t-45 -74.5t-69 -50.5t-89 -18.5q-48 0 -88.5 18.5t-69 50.5t-44.5 74.5t-16 91.5v184q0 19 -13 34t-32 17h79q21 0 35 -15t14 -36v-184q0 -31 9.5 -58.5t26.5 -47.5t42 -32t57 -12
q31 0 56 12t42.5 32t26.5 47.5t9 58.5v184v0zM232 500l-7.5 3l-7.5 3l15 -6v0zM319 506l-7.5 -3l-7.5 -3l15 6v0zM411 575q14 -14 5 -27.5t-37 -20.5l-60 -21q17 8 22 19t-6 23l-26 27l-42 42l-42 -42l-25 -27q-10 -12 -5 -23t22 -19l-60 21q-27 7 -36 20.5t4 27.5l25 27
l97 94q7 7 7 13q0 9 -5.5 16t-10.5 10l20 -11l13 -9.5t8 -6t6.5 -6t8.5 -9.5l90 -91l27 -27v0z" />
    <glyph glyph-name="udieresis" unicode="&#xfc;" horiz-adv-x="570" 
d="M403 419q0 21 15 36t36 15h77q-18 -2 -30.5 -17t-12.5 -34v-184q0 -49 -16 -91.5t-45 -74.5t-69 -50.5t-89 -18.5q-48 0 -88.5 18.5t-69 50.5t-44.5 74.5t-16 91.5v184q0 19 -13 34t-32 17h79q21 0 35 -15t14 -36v-184q0 -31 9.5 -58.5t26.5 -47.5t42 -32t57 -12
q31 0 56 12t42.5 32t26.5 47.5t9 58.5v184v0zM123 500q2 0 3 1zM350 500q2 0 3 1zM123 500q-1 -1 -3 -1l3 1v0zM120 499q-1 -1 -3 -1zM347 499q-1 -1 -3 -1zM350 500q-1 -1 -3 -1l3 1v0zM412 673q-1 -1 -3 -1zM185 673q-1 -1 -3 -1zM189 674q-1 -1 -4 -1l4 1v0zM416 674
q-1 -1 -4 -1l4 1v0zM435 611q35 -17 41 -36t-20 -30l-103 -44q21 12 12.5 30t-40.5 32q-34 15 -40.5 34.5t20.5 31.5l104 43q-23 -12 -16 -29.5t42 -31.5zM208 611q35 -17 41 -36t-20 -30l-103 -44q21 12 12.5 30t-40.5 32q-34 15 -40.5 34.5t20.5 31.5l104 43
q-23 -12 -16 -29.5t42 -31.5z" />
    <glyph glyph-name="germandbls" unicode="&#xdf;" horiz-adv-x="619" 
d="M199 341q-12 12 -12.5 31t19.5 48q22 20 49.5 33.5t58.5 20t62.5 5t60.5 -11.5q0 31 -12 58.5t-32.5 47.5t-48.5 32t-59 12t-58.5 -12t-48 -32t-32.5 -47.5t-12 -58.5v-33v-91v-158v-235q0 -18 13 -33t32 -17h-79q-21 0 -35 15t-15 35v700q0 19 -12.5 34t-31.5 17h77
q21 0 36 -15t15 -36v-4q31 26 69.5 40.5t81.5 14.5q54 0 101.5 -23t79.5 -61.5t45.5 -88.5t0.5 -104q38 -32 61 -79t23 -101q0 -49 -18.5 -91.5t-50 -74t-74 -50t-91.5 -18.5q-45 0 -89.5 18.5t-83.5 63.5q-3 6 -2.5 14t8 20t23.5 30.5t44 45.5q-13 -14 -15 -31t7 -32
q42 -45 108 -45q31 0 58.5 12t48 32t32.5 47.5t12 58.5q0 32 -12.5 59.5t-33.5 47.5t-48 31.5t-55.5 13t-56.5 -9t-51 -34.5q-12 -15 -11 -35t15 -34z" />
    <glyph glyph-name="quotedblleft" unicode="&#x201c;" horiz-adv-x="387" 
d="M239 498q-22 22 -22 56q0 33 22 58l90 87q-20 -23 -19.5 -53.5t23.5 -52.5q22 -23 22 -57t-22 -57l-90 -90q10 12 15.5 26t5 29t-6.5 29t-18 25zM45 495q-22 22 -22 56q0 33 22 58l90 87q-20 -23 -19.5 -53.5t23.5 -52.5q22 -23 22 -57t-22 -57l-90 -90q10 12 15.5 26
t5 29t-6.5 29t-18 25z" />
    <glyph glyph-name="quotedblright" unicode="&#x201d;" horiz-adv-x="387" 
d="M49 696q-3 1 -4 4l4 -4v0zM246 695q-3 1 -4 4l4 -4v0zM242 589q22 22 23 52.5t-19 53.5l90 -87q22 -25 22 -58q0 -34 -22 -56q-24 -23 -24.5 -55t21.5 -56l-91 92q-22 23 -22 57t22 57zM45 590q22 22 23 52.5t-19 53.5l90 -87q22 -25 22 -58q0 -34 -22 -56
q-24 -23 -24.5 -55t21.5 -56l-91 92q-22 23 -22 57t22 57z" />
    <glyph glyph-name="macron" unicode="&#xaf;" horiz-adv-x="352" 
d="M264 643q25 0 43 -17.5t18 -43.5v-80q-2 23 -20 38.5t-41 15.5h-163q-24 0 -41.5 15t-17.5 40v86q2 -23 19 -38.5t40 -15.5h163v0z" />
    <glyph glyph-name="macron" unicode="&#x2c9;" horiz-adv-x="352" 
d="M264 643q25 0 43 -17.5t18 -43.5v-80q-2 23 -20 38.5t-41 15.5h-163q-24 0 -41.5 15t-17.5 40v86q2 -23 19 -38.5t40 -15.5h163v0z" />
    <glyph glyph-name="bullet" unicode="&#x2022;" horiz-adv-x="400" 
d="M161 360q-14 -16 -14 -35t14 -35q15 -15 15 -36t-15 -34l60 58q14 16 14 35q0 21 -14 35q-15 15 -15 35q0 21 15 35zM197 171q-31 0 -58 11.5t-47.5 31.5t-32.5 47t-12 58t12 58t32.5 47.5t47.5 32.5t58 12t58 -12t47 -32.5t32 -47.5t12 -58t-12 -58t-32 -47t-47 -31.5
t-58 -11.5z" />
    <glyph glyph-name="underscore" unicode="_" horiz-adv-x="499" 
d="M443 -60q22 0 38 15t18 37v-89q0 -21 -16.5 -37.5t-39.5 -16.5h-384q-24 0 -40 16.5t-16 37.5v89q2 -22 17.5 -37t38.5 -15h384v0z" />
    <glyph glyph-name="guilsinglleft" unicode="&#x2039;" horiz-adv-x="302" 
d="M255 296l3 -7.5l3 -7.5zM261 209l-3 -7.5l-3 -7.5zM159 129l-91 90q-6 5 -9.5 8.5t-6 6.5t-6 8l-9.5 13l-11 20q3 -5 10 -10.5t16 -5.5q6 0 13 7l94 97l27 25q14 13 27.5 4t20.5 -36l21 -60q-8 17 -19 22t-23 -5l-27 -25l-42 -42l42 -42l27 -26q12 -11 23 -6t19 22
l-21 -60q-7 -28 -20.5 -37t-27.5 5z" />
    <glyph glyph-name="guilsinglright" unicode="&#x203a;" horiz-adv-x="302" 
d="M25 281l3 7.5l3 7.5l-6 -15v0zM31 194l-3 7.5l-3 7.5l6 -15v0zM100 102q-14 -14 -27.5 -5t-20.5 37l-21 60q8 -17 19 -22t23 6l27 26l42 42l-42 42l-27 25q-12 10 -23 5t-19 -22l21 60q7 27 20.5 36t27.5 -4l27 -25l94 -97q7 -7 13 -7q9 0 16 5.5t10 10.5l-11 -20
l-9.5 -13t-6 -8t-6 -6.5t-9.5 -8.5l-91 -90l-27 -27v0z" />
    <glyph glyph-name="guillemotleft" unicode="&#xab;" horiz-adv-x="497" 
d="M461 296l3 -7.5l3 -7.5zM255 296l3 -7.5l3 -7.5zM261 209l-3 -7.5l-3 -7.5zM467 209l-3 -7.5l-3 -7.5zM365 129l-91 90q-6 5 -9.5 8.5t-6 6.5t-6 8l-9.5 13l-11 20q3 -5 10 -10.5t16 -5.5q6 0 13 7l94 97l27 25q14 13 27.5 4t20.5 -36l21 -60q-8 17 -19 22t-23 -5
l-27 -25l-42 -42l42 -42l27 -26q12 -11 23 -6t19 22l-21 -60q-7 -28 -20.5 -37t-27.5 5zM159 129l-91 90q-6 5 -9.5 8.5t-6 6.5t-6 8l-9.5 13l-11 20q3 -5 10 -10.5t16 -5.5q6 0 13 7l94 97l27 25q14 13 27.5 4t20.5 -36l21 -60q-8 17 -19 22t-23 -5l-27 -25l-42 -42l42 -42
l27 -26q12 -11 23 -6t19 22l-21 -60q-7 -28 -20.5 -37t-27.5 5z" />
    <glyph glyph-name="guillemotright" unicode="&#xbb;" horiz-adv-x="497" 
d="M25 281l3 7.5l3 7.5l-6 -15v0zM231 281l3 7.5l3 7.5l-6 -15v0zM237 194l-3 7.5l-3 7.5l6 -15v0zM31 194l-3 7.5l-3 7.5l6 -15v0zM100 102q-14 -14 -27.5 -5t-20.5 37l-21 60q8 -17 19 -22t23 6l27 26l42 42l-42 42l-27 25q-12 10 -23 5t-19 -22l21 60q7 27 20.5 36
t27.5 -4l27 -25l94 -97q7 -7 13 -7q9 0 16 5.5t10 10.5l-11 -20l-9.5 -13t-6 -8t-6 -6.5t-9.5 -8.5l-91 -90l-27 -27v0zM306 102q-14 -14 -27.5 -5t-20.5 37l-21 60q8 -17 19 -22t23 6l27 26l42 42l-42 42l-27 25q-12 10 -23 5t-19 -22l21 60q7 27 20.5 36t27.5 -4l27 -25
l94 -97q7 -7 13 -7q9 0 16 5.5t10 10.5l-11 -20l-9.5 -13t-6 -8t-6 -6.5t-9.5 -8.5l-91 -90l-27 -27v0z" />
    <glyph glyph-name="cedilla" unicode="&#xb8;" horiz-adv-x="266" 
d="M95 -35q0 23 -15 38.5t-37 17.5h89q21 0 37.5 -16.5t16.5 -39.5v-10q0 -22 -14.5 -38t-33.5 -18h41q21 0 37.5 -16.5t16.5 -39.5v-32q0 -24 -16.5 -40t-37.5 -16h-87q21 2 35.5 18t14.5 38v32q0 23 -15 38.5t-37 17.5h-45q21 2 35.5 18t14.5 38v10v0z" />
    <glyph glyph-name="Ccedilla" unicode="&#xc7;" horiz-adv-x="649" 
d="M313 -37q0 27 -19 41q-62 10 -116 41t-93.5 77t-62 104.5t-22.5 123.5q0 72 27.5 136t75 111.5t111.5 75t136 27.5q78 0 143.5 -29.5t114.5 -83.5q16 -16 15 -38t-17 -37l-63 -60q16 15 16.5 36t-13.5 37h-1q-36 40 -86.5 63.5t-108.5 23.5q-55 0 -103 -20.5t-83.5 -56
t-56 -83t-20.5 -102.5t20.5 -103t56 -83.5t83.5 -56t103 -20.5q58 0 107 23t86 62q15 16 14 37t-17 36l63 -60q16 -15 17 -36.5t-14 -37.5h-1q-43 -46 -98 -74t-119 -35q7 -8 11.5 -18t4.5 -21v-10q0 -22 -14.5 -38t-33.5 -18h41q21 0 37.5 -16.5t16.5 -39.5v-32
q0 -24 -16.5 -40t-37.5 -16h-87q21 2 35.5 18t14.5 38v32q0 23 -15 38.5t-37 17.5h-45q21 2 35.5 18t14.5 38v10v0z" />
    <glyph glyph-name="ccedilla" unicode="&#xe7;" horiz-adv-x="451" 
d="M193 -27q0 19 -11 32q-39 9 -72.5 30t-58 51t-38 68t-13.5 80q0 49 18.5 91.5t50 74.5t74 50.5t91.5 18.5q46 0 85 -16t71 -43q20 -29 19.5 -48t-12.5 -31l-61 -58q14 14 15 34t-11 35q-20 20 -47 32t-59 12q-31 0 -58.5 -12t-48 -33t-32.5 -48.5t-12 -58.5t12 -58.5
t32.5 -47.5t48 -32t58.5 -12q66 0 108 45q9 15 7 32t-15 31q28 -27 44 -45.5t23.5 -30.5t8 -20t-2.5 -14q-30 -35 -63.5 -53.5t-68.5 -25.5q9 -14 9 -30v-10q0 -22 -14.5 -38t-33.5 -18h41q21 0 37.5 -16.5t16.5 -39.5v-32q0 -24 -16.5 -40t-37.5 -16h-87q21 2 35.5 18
t14.5 38v32q0 23 -15 38.5t-37 17.5h-45q21 2 35.5 18t14.5 38v10v0z" />
    <glyph glyph-name="section" unicode="&#xa7;" horiz-adv-x="425" 
d="M344 328q0 -1 -0.5 -1.5l-0.5 -0.5l1 2v0zM262 146q24 0 49 -10q21 18 21 47q0 20 -11 36q-7 8 -17 13.5t-26 9.5l-12.5 2l-13.5 2h-108q-20 -2 -34.5 -15.5t-14.5 -34.5t14.5 -35.5t34.5 -14.5h118v0zM344 328q13 15 12.5 34.5t-13.5 34.5l-2 -2q-8 10 -19 17.5t-31 12
t-52 6t-82 -1.5q-20 -2 -34.5 -15.5t-14.5 -34.5q0 -19 11 -32.5t28 -16.5h99h10t10 -1h9q32 0 61 -16q26 -13 47 -37q-1 0 3 -2q9 -9 14 -24q16 -32 16 -67q0 -69 -42 -103q10 -17 15.5 -36t5.5 -40q0 -29 -10.5 -54.5t-28.5 -45t-42.5 -30.5t-51.5 -11h-102q-36 2 -69 16
t-57 35q-4 2 -7 5q-15 13 -15 35q0 20 14 36l55 58q-13 -15 -12.5 -35t15.5 -34v1q17 -15 38 -24t46 -10h94q21 0 35 18t14 40q0 23 -14 41t-35 18h-118q-27 0 -51.5 10.5t-42.5 28.5t-28.5 42.5t-10.5 51.5q0 30 11.5 55t31.5 43q-30 36 -30 85q0 28 10.5 52t28.5 42
t42 28.5t51 11.5h103q37 0 72.5 -14t61.5 -37q1 -1 2.5 -2t3.5 -3q15 -14 15.5 -35t-14.5 -36l-56 -58v0z" />
    <glyph glyph-name="at" unicode="@" horiz-adv-x="806" 
d="M367 236q26 0 51 9.5t46 26t36.5 38.5t21.5 48q7 25 3.5 47.5t-15.5 39.5t-31.5 26.5t-45.5 9.5q-25 0 -50 -9.5t-46.5 -26.5t-37.5 -39.5t-23 -47.5q-7 -26 -3 -48t16.5 -38.5t32.5 -26t45 -9.5zM551 208q-3 -11 0 -21q8 -21 36 -21q32 0 59.5 20.5t48 52t32.5 70
t12 74.5q0 46 -23.5 96.5t-65.5 92.5t-100.5 69t-129.5 27q-62 0 -119 -24.5t-101 -71t-70.5 -114.5t-26.5 -156q0 -61 25 -112.5t67 -90t96.5 -63t114.5 -31.5t120.5 4.5t114.5 45.5l13 -31q-62 -29 -114 -44.5t-109 -15.5q-67 -1 -123 14.5t-100.5 42t-78 61.5t-55.5 74.5
t-33 80t-10 77.5q0 85 31 159t84.5 129t124 87t149.5 32q73 0 139 -27.5t116.5 -74t80 -107.5t29.5 -128q0 -42 -16 -87t-44.5 -82t-68 -61t-85.5 -24q-40 0 -62.5 19.5t-27.5 52.5v8q-31 -21 -64.5 -32.5t-68.5 -11.5q-39 0 -70 15t-50 41.5t-25 61.5t4 74q11 40 35.5 75
t58 61t72.5 41t78 15q71 0 112 -44v2q5 15 -2 27.5t-21 14.5h63q17 0 26 -12t4 -29l-82 -301v0z" />
    <glyph glyph-name="braceright" unicode="}" horiz-adv-x="255" 
d="M170 36q0 -15 -18.5 -25t-36.5 -10h-117q9 1 23.5 6.5t28.5 13t24 16t10 15.5v231q0 6 6.5 16t16 19.5t20.5 16.5t20 7q-9 1 -19.5 7.5t-19.5 15.5t-15.5 19t-6.5 16v251q0 6 -11 14t-26 15.5t-30 12.5t-24 6h122q18 0 36.5 -9.5t18.5 -24.5v-266q0 -6 8.5 -15.5
t20.5 -18.5t25 -15.5t22 -7.5h-2q-9 -1 -22 -8t-25 -16.5t-20.5 -19t-8.5 -15.5v-247v0z" />
    <glyph glyph-name="braceleft" unicode="{" horiz-adv-x="253" 
d="M80 36v247q0 6 -8.5 15.5t-20.5 19t-25 16.5t-22 8h-2q9 1 22 7.5t25 15.5t20.5 18.5t8.5 15.5v266q0 15 18.5 24.5t36.5 9.5h122q-9 -1 -24 -6t-30 -12.5t-26 -15.5t-11 -14v-251q0 -6 -6.5 -16t-15.5 -19t-19.5 -15.5t-19.5 -7.5q9 0 20 -7t20.5 -16.5t16 -19.5
t6.5 -16v-231q0 -7 10 -15.5t24 -16t28.5 -13t23.5 -6.5h-117q-18 0 -36.5 10t-18.5 25z" />
    <glyph glyph-name="florin" unicode="&#x192;" horiz-adv-x="655" 
d="M413 365q25 0 43 -17.5t18 -43.5v-80q-2 23 -20 38.5t-41 15.5h-120l-172 -475q-2 -10 -11 -21t-23 -14l-187 -37q10 2 30 9.5t42 20.5t41 30.5t27 39.5v2l164 445h-67q-24 0 -41.5 15t-17.5 40v86q2 -23 19 -38.5t40 -15.5h99l113 304q2 14 10 22.5t22 8.5h235
q-6 -2 -22 -4.5t-37 -6.5t-44.5 -11.5t-45.5 -21t-40 -34t-27 -50.5l-75 -207h88v0z" />
    <glyph glyph-name="ogonek" unicode="&#x2db;" horiz-adv-x="266" 
d="M181 -35v-10q0 -22 14.5 -38t35.5 -18h-45q-22 -2 -37 -17.5t-15 -38.5v-32q0 -22 14.5 -38t35.5 -18h-87q-21 0 -37.5 16t-16.5 40v32q0 23 16.5 39.5t37.5 16.5h41q-19 2 -33.5 18t-14.5 38v10q0 23 16.5 39.5t37.5 16.5h89q-22 -2 -37 -17.5t-15 -38.5z" />
    <glyph glyph-name="trademark" unicode="&#x2122;" horiz-adv-x="853" 
d="M793 328q0 -11 7.5 -19.5t18.5 -10.5h-46q-14 0 -22.5 9t-8.5 21v263l-144 -293h-18l-143 293v-263q0 -12 -8.5 -21t-21.5 -9h-47q12 2 19.5 10.5t7.5 19.5v1v341q0 12 -7.5 20.5t-19.5 9.5h57q20 2 31 -17l142 -287l141 287h1q9 19 31 17h56q-11 -1 -18.5 -9.5
t-7.5 -20.5v-342v0zM327 700q11 -1 18.5 -9.5t7.5 -20.5v-48q-1 11 -10 19.5t-21 8.5h-119v-323q0 -11 -9 -20.5t-21 -9.5h-47q12 2 19.5 10.5t7.5 19.5v323h-122q-13 0 -21 -8t-10 -19v47q0 13 8.5 21.5t22.5 8.5h296v0z" />
    <glyph glyph-name="degree" unicode="&#xb0;" horiz-adv-x="298" 
d="M188 589q-26 7 -31.5 18.5t10.5 20.5l-69 -35q-17 -10 -11.5 -22.5t28.5 -20.5q25 -8 31 -20t-10 -21l70 35q17 10 12 22.5t-30 22.5zM217 601q43 -21 50 -43.5t-25 -36.5l-129 -55q29 15 20 37.5t-50 39.5q-42 18 -49.5 42t25.5 38l126 52q-29 -14 -20 -35.5t52 -38.5z
" />
    <glyph glyph-name="dagger" unicode="&#x2020;" horiz-adv-x="409" 
d="M295 538q25 0 43 -9.5t18 -35.5v-80q-2 23 -20 38.5t-41 15.5h-60l-14 -419q0 -11 1.5 -20t-4.5 -16.5t-25 -11.5t-60 -4q20 2 33 17t13 35l-17 419h-63q-24 0 -41.5 7t-17.5 32v86q2 -23 19 -38.5t40 -15.5h60l-4 110q0 22 14.5 37.5t37.5 15.5h82q-20 -2 -33.5 -17.5
t-13.5 -35.5l-4 -110h57v0z" />
    <glyph glyph-name="daggerdbl" unicode="&#x2021;" horiz-adv-x="409" 
d="M294 299q25 0 43 -9.5t18 -35.5v-80q-2 23 -20 38.5t-41 15.5h-69l-4 -180q0 -11 1.5 -20t-4.5 -16.5t-25 -11.5t-60 -4q20 2 33 17t13 35l-5 180h-77q-24 0 -41.5 7t-17.5 32v86q2 -23 19 -38.5t40 -15.5h74l-9 168h-63q-24 0 -41.5 7t-17.5 32v86q2 -23 19 -38.5
t40 -15.5h60l-4 110q0 22 14.5 37.5t37.5 15.5h82q-20 -2 -33.5 -17.5t-13.5 -35.5l-4 -110h57q25 0 43 -9.5t18 -35.5v-80q-2 23 -20 38.5t-41 15.5h-60l-7 -168h66v0z" />
    <glyph glyph-name="sterling" unicode="&#xa3;" horiz-adv-x="553" 
d="M337 531q-2 -1 -5 -1zM272 381q25 0 43 -17.5t18 -43.5v-80q-2 23 -20 38.5t-41 15.5h-27q20 -43 34.5 -85t12.5 -88l106 -16q13 0 24 7t19.5 18t13.5 25.5t5 29.5l20 -100q0 -23 -4 -41.5t-13.5 -30t-25.5 -14.5t-39 5l-269 45q-13 0 -24 -7t-19 -18t-12.5 -26t-4.5 -30
l-21 101q0 23 4 41t14 29.5t25 14.5t38 -5l67 -14q4 23 1.5 43.5t-9 39t-16.5 37.5l-20 39h-44q-24 0 -41.5 15t-17.5 40v86q2 -23 19 -38.5t40 -15.5h7q-9 29 -15 65.5t-5 82.5q1 55 22.5 92.5t53.5 58t70.5 23.5t73.5 -11t61.5 -45.5t34.5 -79.5l-73 -35q15 23 9.5 41.5
t-22.5 29t-41.5 12t-47 -10t-38.5 -37.5t-16 -70q0 -31 6.5 -59.5t17.5 -56.5h66v0z" />
    <glyph glyph-name="Q" unicode="Q" horiz-adv-x="661" 
d="M317 87q58 0 104 23l-125 189q-12 20 -32 34.5t-42 16.5h78q21 0 44.5 -14.5t36.5 -36.5l96 -145q33 36 50 86t17 110q0 55 -15 102.5t-44 83t-71 56t-97 20.5t-97.5 -20.5t-71.5 -56t-44 -83t-15 -102.5t15 -103t44 -83.5t71.5 -56t97.5 -20.5zM582 -4
q11 -18 30.5 -32.5t41.5 -16.5h-76q-23 0 -46.5 15t-34.5 34l-28 42q-33 -18 -71 -28t-81 -10q-72 0 -130.5 27.5t-99.5 75t-63 111.5t-22 136t22 136t63 111.5t99.5 75t130.5 27.5t130.5 -27.5t99.5 -75t63 -111.5t22 -136q0 -82 -27.5 -152t-78.5 -118l56 -84v0z" />
    <glyph glyph-name="ordmasculine" unicode="&#xba;" horiz-adv-x="315" 
d="M161 705q69 0 102 -51q30 -45 30 -124q0 -175 -132 -175q-68 0 -101 51q-30 46 -30 124q0 175 131 175zM161 399q88 0 88 131t-88 131q-50 0 -70 -38q-17 -32 -17 -93q0 -78 27 -108q20 -23 60 -23z" />
    <glyph glyph-name="ordfeminine" unicode="&#xaa;" horiz-adv-x="423" 
d="M200 625q-41 0 -71 -30t-30 -71q0 -21 8 -39.5t22 -32t32 -21t39 -7.5t39.5 7.5t32 21t21.5 32t8 39.5t-8 39t-21.5 32t-32 22t-39.5 8zM298 670q-8 12 -9 15q-7 9 -13 10l1 4h55q18 0 31 -12.5t13 -30.5v-264q0 -12 7.5 -25t17.5 -14l-1 -4h-55q-35 0 -42 33
q-45 -33 -103 -33q-72 0 -124 51q-51 52 -51 124t51 123q52 52 124 52q54 0 98 -29z" />
    <glyph glyph-name="minus" horiz-adv-x="588" 
d="M486 319q26 0 43.5 -17.5t17.5 -43.5v-80q-2 23 -20 38.5t-41 15.5h-376q-25 0 -42 15t-17 40v86q2 -23 19 -38.5t40 -15.5h376v0z" />
    <glyph glyph-name="minus" horiz-adv-x="588" 
d="M486 319q26 0 43.5 -17.5t17.5 -43.5v-80q-2 23 -20 38.5t-41 15.5h-376q-25 0 -42 15t-17 40v86q2 -23 19 -38.5t40 -15.5h376v0z" />
    <glyph glyph-name="C" unicode="C" horiz-adv-x="649" 
d="M543 452q16 15 16.5 36t-13.5 37h-1q-36 40 -86.5 63.5t-108.5 23.5q-55 0 -103 -20.5t-83.5 -56t-56 -83t-20.5 -102.5t20.5 -103t56 -83.5t83.5 -56t103 -20.5q58 0 107 23t86 62q15 16 14 37t-17 36l63 -60q16 -15 17 -36.5t-14 -37.5h-1q-49 -52 -114 -81.5
t-141 -29.5q-72 0 -136 27.5t-111.5 75t-75 111.5t-27.5 136t27.5 136t75 111.5t111.5 75t136 27.5q78 0 143.5 -29.5t114.5 -83.5q16 -16 15 -38t-17 -37z" />
    <glyph glyph-name="c" unicode="c" horiz-adv-x="451" 
d="M336 273q14 14 15 34t-11 35q-20 20 -47 32t-59 12q-31 0 -58.5 -12t-48 -33t-32.5 -48.5t-12 -58.5t12 -58.5t32.5 -47.5t48 -32t58.5 -12q66 0 108 45q9 15 7 32t-15 31q28 -27 44 -45.5t23.5 -30.5t8 -20t-2.5 -14q-39 -45 -83.5 -63.5t-89.5 -18.5q-49 0 -91.5 18.5
t-74 50t-50 74t-18.5 91.5t18.5 91.5t50 74.5t74 50.5t91.5 18.5q46 0 85 -16t71 -43q20 -29 19.5 -48t-12.5 -31l-61 -58v0z" />
    <glyph glyph-name="brokenbar" unicode="&#xa6;" horiz-adv-x="193" 
d="M50 227q0 22 14.5 37.5t37.5 15.5h82q-20 -2 -33.5 -17.5t-13.5 -35.5v-273q0 -21 -15.5 -36.5t-36.5 -15.5h-81q20 2 33 17t13 35v273zM52 746q0 22 14.5 37.5t37.5 15.5h82q-20 -2 -33.5 -17.5t-13.5 -35.5v-274q0 -21 -15.5 -36.5t-36.5 -15.5h-81q20 2 33 17t13 35
v274z" />
    <glyph glyph-name="yacute" unicode="&#xfd;" horiz-adv-x="549" 
d="M400 414q0 21 15 36t36 15h76q-18 -2 -30.5 -17t-12.5 -34v-416q0 -48 -18.5 -90.5t-50 -74t-74 -50t-90.5 -18.5h-100q-21 0 -36 14.5t-15 34.5v78q2 -19 16.5 -31.5t34.5 -12.5h100q31 0 58 12t47 32.5t32 47.5t12 58v47q-26 -22 -59.5 -34.5t-73.5 -12.5
q-48 0 -88 18.5t-68.5 50t-44 74t-15.5 91.5v182q0 19 -13 34t-32 17h78q21 0 35 -15t14 -36v-182q0 -31 9.5 -58.5t26.5 -47.5t42 -32t56 -12t56 12t42 32t26 47.5t9 58.5v182v0zM387 722q-1 -1 -3 -1zM387 722q1 0 1.5 0.5t2.5 0.5zM335 629q5 -32 -11 -60.5t-47 -38.5
l-127 -33q31 9 47.5 37.5t6.5 59.5q-6 31 10.5 59.5t48.5 39.5l121 28q-29 -8 -43 -35.5t-6 -56.5z" />
    <glyph glyph-name="Yacute" unicode="&#xdd;" horiz-adv-x="748" 
d="M560 671q6 12 18 20.5t27 8.5h131q-20 -2 -45 -18.5t-60 -61.5l-215 -283v-284q0 -22 -15.5 -37.5t-36.5 -15.5h-82q20 2 33.5 17t13.5 36v286l-214 281q-35 45 -61 61.5t-46 18.5h132q15 0 27.5 -8.5t18.5 -20.5l186 -245l188 245v0zM489 975q-1 -1 -3 -1zM489 975
q1 0 1.5 0.5t2.5 0.5zM437 882q5 -32 -11 -60.5t-47 -38.5l-127 -33q31 9 47.5 37.5t6.5 59.5q-6 31 10.5 59.5t48.5 39.5l121 28q-29 -8 -43 -35.5t-6 -56.5z" />
    <glyph glyph-name="multiply" unicode="&#xd7;" horiz-adv-x="447" 
d="M226 234l-79 -92q-13 -16 -32 -17t-33 11l-56 47q15 -9 33 -7t29 15l80 94l-91 78q-16 13 -18.5 31t11.5 34l47 55q-10 -16 -8.5 -33.5t14.5 -28.5l94 -79l89 104q11 14 29.5 16.5t35.5 -11.5l66 -57q-8 6 -18 9.5t-20 4t-19 -2t-15 -8.5l-90 -106l92 -78
q16 -13 17 -31.5t-11 -32.5l-47 -55q9 14 8 32.5t-15 29.5z" />
    <glyph glyph-name="fraction" unicode="&#x2215;" horiz-adv-x="742" 
d="M813 720q-20 2 -45 -8.5t-60 -49.5l-598 -684q-6 -8 -19 -14.5t-27 -3.5l-114 31q19 -5 42.5 4t55.5 42v2l613 696q13 21 42 15z" />
    <glyph glyph-name="Thorn" unicode="&#xde;" horiz-adv-x="551" 
d="M333 240q22 0 41 8t33 22.5t22.5 33.5t8.5 41t-8.5 41t-22.5 33.5t-33 22.5t-41 8h-175q-18 0 -18 -17v-175q0 -18 18 -18h175v0zM333 538q40 0 75 -15.5t61 -41.5t41 -61t15 -75q0 -39 -15 -74t-41 -61.5t-61 -41.5t-75 -15h-175q-18 0 -18 -18v-83q0 -21 -14.5 -36.5
t-37.5 -15.5h-82q20 2 33.5 17t13.5 35v596q0 20 -12 34.5t-32 16.5h78q21 0 36 -14.5t15 -36.5v-110h195v0z" />
    <glyph glyph-name="thorn" unicode="&#xfe;" horiz-adv-x="551" 
d="M285 83q31 0 59 12t48.5 32.5t32.5 48t12 59.5q0 31 -12 58.5t-32.5 47.5t-48.5 32t-59 12t-58.5 -12t-48 -32t-32.5 -47.5t-12 -58.5v-7q1 -30 13.5 -56.5t33 -46t47.5 -31t57 -11.5zM285 469q49 0 91.5 -18.5t74.5 -50t50.5 -74t18.5 -91.5t-18.5 -92t-50.5 -74.5
t-74.5 -50t-91.5 -18.5q-88 0 -151 54v-206q0 -18 13 -33t32 -17h-79q-21 0 -35 15t-15 35v751q0 20 -12 34.5t-32 16.5h78q21 0 36 -14.5t15 -36.5l-1 -185q31 26 69.5 40.5t81.5 14.5z" />
    <glyph glyph-name="Scaron" unicode="&#x160;" horiz-adv-x="561" 
d="M315 904l7.5 -3l7.5 -3zM228 898l7.5 3l7.5 3zM305 711q-4 -4 -6 -6.5t-4 -4.5h63q50 0 85.5 -16.5t54.5 -40t20 -50t-18 -47.5l-79 -36q20 8 27 28t-1 40v-1q-36 36 -89 36v-1h-159q-45 0 -75 -30t-30 -75t30 -75t75 -30h123q43 0 81.5 -16t67 -43t45 -63.5t16.5 -77.5
q0 -42 -16.5 -79t-45 -64t-67 -43t-81.5 -16h-143q-32 0 -70 12.5t-64.5 33.5t-33 49t26.5 60l80 37q-20 -10 -27.5 -30t0.5 -40q17 -16 39.5 -25.5t48.5 -9.5h142v1q25 0 47.5 9t39.5 24.5t26.5 36t9.5 44.5t-9.5 44.5t-26.5 35.5t-39.5 24t-47.5 9h-122q-40 0 -75 15
t-61.5 41.5t-41.5 61.5t-15 74q0 40 15 75t41.5 61t61.5 41.5t75 15.5h64q-1 2 -5 8l-97 94l-25 27q-13 14 -4 27.5t36 20.5l60 21q-17 -8 -22 -19t5 -23l25 -27l42 -42l42 42l26 27q11 12 6 23t-22 19l60 -21q28 -7 37 -20.5t-5 -27.5l-27 -27z" />
    <glyph glyph-name="scaron" unicode="&#x161;" horiz-adv-x="425" 
d="M324 282q0 -1 -0.5 -1.5l-0.5 -0.5l1 2v0zM231 649l7.5 -3l7.5 -3zM144 643l7.5 3l7.5 3zM232 467h7q37 0 72.5 -14t61.5 -37q1 -1 2.5 -2t3.5 -3q15 -14 15.5 -35t-14.5 -36l-56 -58q13 15 12.5 34.5t-13.5 34.5l-2 -2q-8 10 -19 17.5t-31 12t-52 6t-82 -1.5
q-20 -2 -34.5 -15.5t-14.5 -34.5t14.5 -35.5t34.5 -14.5h118q27 0 51.5 -11t42.5 -30.5t28.5 -45t10.5 -55.5q0 -29 -10.5 -54.5t-28.5 -45t-42.5 -30.5t-51.5 -11h-102q-36 2 -69 16t-57 35q-4 2 -7 5q-15 13 -15 35q0 20 14 36l55 58q-13 -15 -12.5 -35t15.5 -34v1
q17 -15 38 -24t46 -10h94q21 0 35 18t14 40q0 23 -14 41t-35 18h-118q-27 0 -51.5 10.5t-42.5 28.5t-28.5 42.5t-10.5 51.5q0 28 10.5 52t28.5 42t42 28.5t51 11.5h23l-82 80l-25 27q-13 14 -4 27.5t36 20.5l60 21q-17 -8 -22 -19t5 -23l25 -27l42 -42l42 42l26 27
q11 12 6 23t-22 19l60 -21q28 -7 37 -20.5t-5 -27.5l-27 -27z" />
    <glyph glyph-name="Zcaron" unicode="&#x17d;" horiz-adv-x="752" 
d="M444 891l7.5 -3l7.5 -3zM357 885l7.5 3l7.5 3zM436 700h309q-21 -2 -50 -21t-65 -67v1l-400 -526h417q20 0 35.5 13t17.5 33v-81q0 -21 -15.5 -36.5t-37.5 -15.5h-633q17 2 40.5 17t53.5 54l411 541h-379q-21 0 -36 -13t-17 -33v81q0 22 15.5 37.5t37.5 15.5h242l-92 89
l-25 27q-13 14 -4 27.5t36 20.5l60 21q-17 -8 -22 -19t5 -23l25 -27l42 -42l42 42l26 27q11 12 6 23t-22 19l60 -21q28 -7 37 -20.5t-5 -27.5l-27 -27z" />
    <glyph glyph-name="zcaron" unicode="&#x17e;" horiz-adv-x="634" 
d="M350 656l7.5 -3l7.5 -3zM263 650l7.5 3l7.5 3zM344 467h286q-40 -4 -108 -74h1l-292 -311h284q20 0 35.5 12.5t17.5 32.5v-78q0 -20 -15.5 -34.5t-37.5 -14.5h-509q9 1 21 7.5t25 16t26 21t24 22.5l298 316h-301q-20 0 -34 -12t-16 -31v76q0 21 14.5 36t35.5 15h187
l-90 87l-25 27q-13 14 -4 27.5t36 20.5l60 21q-17 -8 -22 -19t5 -23l25 -27l42 -42l42 42l26 27q11 12 6 23t-22 19l60 -21q28 -7 37 -20.5t-5 -27.5l-27 -27z" />
    <glyph glyph-name="Eth" unicode="&#xd0;" horiz-adv-x="763" 
d="M293 402q25 0 43 -17.5t18 -43.5v-80q-2 23 -20 38.5t-41 15.5h-74v-210q0 -18 18 -18h140q55 0 102.5 20.5t83 56t56 83.5t20.5 103t-20.5 102.5t-56 83t-83 56t-102.5 20.5h-140q-18 0 -18 -17v-193h74v0zM377 700q72 0 136 -27.5t111.5 -75t75 -111.5t27.5 -136
t-27.5 -136t-75 -111.5t-111.5 -75t-136 -27.5h-292q20 2 33.5 17t13.5 35v263h-66q-24 0 -41.5 15t-17.5 40v86q2 -23 19 -38.5t40 -15.5h66v245q0 20 -13.5 35.5t-33.5 17.5h292v0z" />
    <glyph glyph-name="eth" unicode="&#xf0;" horiz-adv-x="498" 
d="M232 380q-31 0 -58 -11.5t-47 -31.5t-31.5 -47t-11.5 -58t11.5 -58t31.5 -47.5t47 -32t58 -11.5t58 11.5t47.5 32t32 47.5t11.5 58t-11.5 58t-32 47t-47.5 31.5t-58 11.5zM288 599q-29 19 -60 21q-19 0 -32.5 -12.5t-15.5 -31.5v77q0 20 13 34t33 15q34 0 65.5 -12.5
t58.5 -34.5l17 15q20 16 44.5 14t41.5 -22l51 -61q-17 17 -40 17t-41 -15l-13 -12q25 -36 39 -77.5t14 -83.5v-380q0 -21 -13.5 -35.5t-35.5 -14.5h-77q18 2 31 16.5t13 33.5v4q-30 -26 -68.5 -40t-80.5 -14q-48 0 -90 18t-73.5 49.5t-50 74t-18.5 90.5t18.5 90t50 73.5
t73.5 49.5t90 18q42 0 80.5 -13.5t68.5 -39.5v20q0 26 -9 53t-24 53l-34 -30q-18 -15 -41 -15t-39 20l-54 65q17 -16 39 -17t40 14z" />
    <glyph glyph-name="Lslash" unicode="&#x141;" horiz-adv-x="573" 
d="M370 469q-10 -2 -21.5 -7.5t-29 -22.5t-43 -49t-63.5 -86v-199q0 -18 18 -18h263q19 0 34.5 13t17.5 33v-81q0 -21 -15.5 -36.5t-36.5 -15.5h-263q-21 0 -40.5 8.5t-33.5 22.5t-22.5 33.5t-8.5 40.5v97q-5 -9 -14.5 -16.5t-23.5 -8.5h-114q10 0 21.5 5t28.5 21t41.5 46
t60.5 81v317q0 20 -13.5 35.5t-33.5 17.5h82q23 0 37.5 -15.5t14.5 -37.5v-211l6 8q7 25 37 25h114z" />
    <glyph glyph-name="lslash" unicode="&#x142;" horiz-adv-x="573" 
d="M213 45q2 -19 14 -32.5t32 -15.5h-81q-21 0 -36.5 15.5t-15.5 36.5v153q-5 -9 -14.5 -16.5t-23.5 -8.5h-110q9 1 20.5 7t28 22.5t40.5 46t59 77.5v317q0 20 -13.5 35.5t-33.5 17.5h82q23 0 37.5 -15.5t14.5 -37.5v-211l6 8q7 25 37 25h114q-10 -2 -21.5 -7.5t-29 -22.5
t-43 -49t-63.5 -86v-259v0z" />
    <glyph glyph-name="twosuperior" unicode="&#xb2;" horiz-adv-x="332" 
d="M131 504q-23 0 -37.5 -15t-14.5 -38v-52h184q23 0 26 23v-41q0 -26 -26 -26h-202q-26 0 -26 26v70q0 20 7.5 37.5t20.5 31t30.5 21t37.5 7.5h61q25 0 43.5 16t18.5 40t-18.5 40.5t-43.5 16.5h-71q-25 0 -44 -17q-2 -6 -2 -10q0 -18 16 -25l-40 19q-16 7 -16 23q0 4 2 10
v1v1l3 3q25 39 81 39h72q21 0 40.5 -8t33.5 -21.5t22.5 -32t8.5 -39.5t-8.5 -39.5t-23 -32t-33.5 -21t-40 -7.5h-1h-61v0z" />
    <glyph glyph-name="threesuperior" unicode="&#xb3;" horiz-adv-x="323" 
d="M254 537q43 -31 43 -81q0 -21 -8.5 -39.5t-23 -32t-33.5 -21.5t-40 -8h-70v1h-1q-56 0 -84 43q-2 6 -2 10q0 17 15 25l40 17q-15 -6 -15 -24q0 -4 2 -10q19 -18 45 -18h70q25 0 42.5 16.5t17.5 40.5t-18 40.5t-42 16.5h-67q-21 0 -21 21q0 22 21 22h67q22 0 37 15.5
t15 37.5q0 21 -15 36.5t-37 15.5h-70q-28 0 -45 -17q-2 -6 -2 -10q0 -18 15 -25l-40 19q-15 7 -15 23q0 4 2 10v2l3 3q27 39 81 39h71q20 0 37.5 -7.5t30 -21t20 -31t7.5 -36.5q0 -45 -33 -72z" />
    <glyph glyph-name="onesuperior" unicode="&#xb9;" horiz-adv-x="177" 
d="M109 704q2 1 8 1h40q-23 -2 -23 -26v-298q0 -26 -26 -26h-41q23 2 23 26v264l-23 -12q-11 -5 -20 -2q-11 3 -15 13l-19 36q5 -8 15 -11q10 -1 19 3l8 4l46 24q2 2 7 4l1 1v-1v0z" />
    <glyph glyph-name="onequarter" unicode="&#xbc;" horiz-adv-x="623" 
d="M127 694q2 1 8 1h40q-23 -2 -23 -26v-298q0 -26 -26 -26h-41q23 2 23 26v264l-23 -12q-11 -5 -20 -2q-11 3 -15 13l-19 36q5 -8 15 -11q10 -1 19 3l8 4l46 24q2 2 7 4l1 1v-1v0zM582 103q23 0 26 23v-40q0 -26 -26 -26h-53v-35q0 -26 -26 -26h-40q22 1 22 26v35h-132
q-27 0 -16 26l91 236q9 24 -14 26h41q11 0 16 -8q4 -8 0 -18l-83 -219h97v87q0 27 27 27h40q-23 -3 -23 -27v-87h53v0zM533 700q-49 -8 -87 -83l-303 -588q-15 -29 -40 -29h-88q45 1 83 70v2l314 603q7 25 37 25h84v0z" />
    <glyph glyph-name="onehalf" unicode="&#xbd;" horiz-adv-x="641" 
d="M458 144q-23 0 -37.5 -15t-14.5 -38v-52h184q23 0 26 23v-41q0 -25 -26 -25h-202q-26 0 -26 25v70q0 20 7.5 37.5t20.5 31t30.5 21t37.5 7.5h61q25 0 43.5 16t18.5 40t-18.5 40.5t-43.5 16.5h-71q-25 0 -44 -17q-2 -6 -2 -10q0 -18 16 -25l-40 19q-16 7 -16 23q0 4 2 10
v1v1l3 3q25 39 81 39h72q21 0 40.5 -8t33.5 -21.5t22.5 -32t8.5 -39.5t-8.5 -39.5t-23 -32t-33.5 -21t-40 -7.5h-1h-61v0zM124 694q2 1 8 1h40q-23 -2 -23 -26v-298q0 -26 -26 -26h-41q23 2 23 26v264l-23 -12q-11 -5 -20 -2q-11 3 -15 13l-19 36q5 -8 15 -11q10 -1 19 3
l8 4l46 24q2 2 7 4l1 1v-1v0zM530 700q-49 -8 -87 -83l-303 -588q-15 -29 -40 -29h-88q45 1 83 70v2l314 603q7 25 37 25h84v0z" />
    <glyph glyph-name="threequarters" unicode="&#xbe;" horiz-adv-x="698" 
d="M240 527q43 -31 43 -81q0 -21 -8.5 -39.5t-23 -32t-33.5 -21.5t-40 -8h-70v1h-1q-55 0 -83 43q-2 6 -2 10q0 17 15 25l39 17q-15 -6 -15 -24q0 -4 2 -10q19 -18 45 -18h70q25 0 42.5 16.5t17.5 40.5t-18 40.5t-42 16.5h-67q-21 0 -21 21q0 22 21 22h67q22 0 37 15.5
t15 37.5q0 21 -15 36.5t-37 15.5h-70q-28 0 -45 -17q-2 -6 -2 -10q0 -18 15 -25l-39 19q-15 7 -15 23q0 4 2 10v2l3 3q25 39 80 39h71q20 0 37.5 -7.5t30 -21t20 -31t7.5 -36.5q0 -45 -33 -72zM658 103q23 0 26 23v-40q0 -26 -26 -26h-53v-35q0 -26 -26 -26h-40q22 1 22 26
v35h-132q-27 0 -16 26l91 236q9 24 -14 26h41q11 0 16 -8q4 -8 0 -18l-83 -219h97v87q0 27 27 27h40q-23 -3 -23 -27v-87h53v0zM609 700q-49 -8 -87 -83l-303 -588q-15 -29 -40 -29h-88q45 1 83 70v2l314 603q7 25 37 25h84v0z" />
    <glyph glyph-name="periodcentered" unicode="&#x2219;" horiz-adv-x="232" 
d="M220 328q0 -14 -21 -23l-103 -44q15 9 15 20q0 23 -43 41q-42 19 -42 43q0 15 22 24l104 43q-18 -9 -18 -22q0 -20 43 -39t43 -43zM159 434q-1 -1 -4 -1l4 1v0zM90 259q-1 -1 -3 -1l3 1v0zM155 433q-1 -1 -3 -1l3 1v0zM93 260q-1 -1 -3 -1l3 1v0zM93 260q2 0 3 1l-3 -1v0
z" />
    <glyph glyph-name="Abreve" unicode="&#x102;" horiz-adv-x="653" 
d="M490 437q0 74 -51 124q-51 51 -124 51q-74 0 -125 -51q-50 -52 -50 -124v-87h350v87zM543 0q-22 0 -37.5 15t-15.5 37v210h-350v-210q0 -22 -15 -37t-37 -15h-82q20 2 33.5 17t13.5 35v385q0 109 77 186t185 77q109 0 186 -77t77 -186v-385q0 -20 13 -35t33 -17h-81z
M408 853q22 0 38 14.5t18 36.5v-88q0 -22 -17 -38t-39 -16h-163q-23 0 -39.5 15.5t-16.5 38.5v88q2 -23 17.5 -37t38.5 -14h163v0z" />
    <glyph glyph-name="abreve" unicode="&#x103;" horiz-adv-x="547" 
d="M313 612q22 0 38 14.5t18 36.5v-88q0 -22 -17 -38t-39 -16h-163q-23 0 -39.5 15.5t-16.5 38.5v88q2 -23 17.5 -37t38.5 -14h163v0zM467 50q0 -46 43 -50h-76q-21 0 -36 14.5t-15 35.5v5q-62 -55 -150 -55q-96 0 -165 69q-68 70 -68 164q0 97 68 165q69 69 165 69
q88 0 150 -55v4q0 19 -12.5 34t-31.5 17h77q21 0 36 -14.5t15 -35.5v-367v0zM233 84q63 0 106 43q44 44 44 106t-44 106q-44 45 -106 45q-63 0 -106 -45q-44 -46 -44 -106q0 -62 44 -106q44 -43 106 -43z" />
    <glyph glyph-name="Cacute" unicode="&#x106;" horiz-adv-x="649" 
d="M390 850q0 -28 -16.5 -52.5t-42.5 -31.5l-127 -33q25 7 41.5 28t16.5 46q0 12 -4 23q-2 10 -2 16q0 62 61 83l121 28q-52 -13 -52 -71q0 -10 2 -19.5t2 -16.5zM441 958q1 0 2 1h2l-4 -1v0zM441 958q-1 -1 -3 -1l3 1v0zM543 452q15 14 17 36q0 20 -14 37h-1
q-78 87 -195 87q-110 0 -187 -77q-76 -76 -76 -185q0 -110 77 -187q76 -76 186 -76q114 0 193 85q15 17 14 37q-2 22 -17 36l63 -60q15 -14 17 -36q1 -21 -14 -38h-1q-105 -111 -255 -111q-146 0 -248 103t-102 247q0 146 103 248t247 102q153 0 258 -113q17 -17 15 -38
q-2 -23 -17 -37l-63 -60v0z" />
    <glyph glyph-name="Ccircumflex" unicode="&#x108;" horiz-adv-x="649" 
d="M467 810q14 -14 5 -27q-9 -14 -37 -21l-60 -21q17 8 22 19t-6 23l-26 27l-42 42l-42 -42l-25 -27q-10 -10 -5 -23q5 -11 22 -19l-60 21q-29 10 -36 21q-9 14 4 27l25 27l97 94q7 7 7 13q0 16 -16 26l20 -11q5 -4 12 -9l16 -12q1 -2 3 -4t5 -6l117 -118v0zM368 738
q-2 -1 -8 -3l8 3v0zM543 452q15 14 17 36q0 20 -14 37h-1q-78 87 -195 87q-110 0 -187 -77q-76 -76 -76 -185q0 -110 77 -187q76 -76 186 -76q114 0 193 85q15 17 14 37q-2 22 -17 36l63 -60q15 -14 17 -36q1 -21 -14 -38h-1q-105 -111 -255 -111q-146 0 -248 103t-102 247
q0 146 103 248t247 102q153 0 258 -113q17 -17 15 -38q-2 -23 -17 -37l-63 -60v0z" />
    <glyph glyph-name="Cdot" unicode="&#x10a;" horiz-adv-x="649" 
d="M421 812q0 -14 -21 -23l-103 -44q15 9 15 20q0 23 -43 41q-42 19 -42 43q0 15 22 24l104 43q-17 -9 -17 -22q0 -20 42 -39q43 -19 43 -43zM360 918q-1 -1 -4 -1l4 1v0zM291 743q-1 -1 -3 -1l3 1v0zM356 917q-1 -1 -3 -1l3 1v0zM294 744q-1 -1 -3 -1l3 1v0zM294 744
q2 0 3 1l-3 -1v0zM543 452q15 14 17 36q0 20 -14 37h-1q-78 87 -195 87q-110 0 -187 -77q-76 -76 -76 -185q0 -110 77 -187q76 -76 186 -76q114 0 193 85q15 17 14 37q-2 22 -17 36l63 -60q15 -14 17 -36q1 -21 -14 -38h-1q-105 -111 -255 -111q-146 0 -248 103t-102 247
q0 146 103 248t247 102q153 0 258 -113q17 -17 15 -38q-2 -23 -17 -37l-63 -60v0z" />
    <glyph glyph-name="Ccaron" unicode="&#x10c;" horiz-adv-x="649" 
d="M467 895q14 14 5 28q-8 12 -37 20l-60 21q17 -8 22 -19t-6 -23l-26 -27l-42 -42l-42 42l-25 27q-10 10 -5 23q5 11 22 19l-60 -21q-29 -11 -36 -20q-10 -14 4 -28l25 -27l97 -94q7 -7 7 -13q0 -16 -16 -26l20 11q11 8 28 22l3 3t5 6l117 118v0zM368 967q-2 1 -4 1.5
t-4 1.5l8 -3v0zM543 452q15 14 17 36q0 20 -14 37h-1q-78 87 -195 87q-110 0 -187 -77q-76 -76 -76 -185q0 -110 77 -187q76 -76 186 -76q114 0 193 85q15 17 14 37q-2 22 -17 36l63 -60q15 -14 17 -36q1 -21 -14 -38h-1q-105 -111 -255 -111q-146 0 -248 103t-102 247
q0 146 103 248t247 102q153 0 258 -113q17 -17 15 -38q-2 -23 -17 -37l-63 -60v0z" />
    <glyph glyph-name="Ibreve" unicode="&#x12c;" horiz-adv-x="302" 
d="M220 853q22 0 38 14.5t18 36.5v-88q0 -22 -17 -38t-39 -16h-163q-23 0 -39.5 15.5t-16.5 38.5v88q2 -23 17.5 -37t38.5 -14h163v0zM210 700q22 0 37.5 -15.5t15.5 -37.5v-81q-2 20 -17.5 33t-35.5 13h-35v-525h35q20 0 35.5 13t17.5 33v-81q0 -41 -43 -51v-1h-167
q-22 0 -37.5 15t-15.5 37v81q2 -20 17 -33t36 -13h35v525h-35q-21 0 -36 -13t-17 -33v81q0 43 45 52q-2 0 -3 1h168v0z" />
    <glyph glyph-name="FL270" horiz-adv-x="424" 
d="M321 460q23 0 26 23v-41q0 -26 -26 -26h-53v-35q0 -26 -26 -26h-40q22 1 22 26v35h-132q-27 0 -16 26l91 236q10 25 -14 27h41q11 0 16 -8q4 -7 0 -19l-83 -218h97v87q0 26 27 26h40q-23 -2 -23 -26v-87h53v0z" />
    <glyph glyph-name="macron" unicode="&#xffe6;" horiz-adv-x="352" 
d="M264 643q26 0 43.5 -17.5t17.5 -43.5v-80q-2 23 -20 38.5t-41 15.5h-163q-25 0 -42 15t-17 40v86q2 -23 19 -38.5t40 -15.5h163v0z" />
    </font>
</defs>
</svg>
